G04*
G04 #@! TF.GenerationSoftware,Altium Limited,Altium Designer,19.0.15 (446)*
G04*
G04 Layer_Color=65535*
%FSLAX25Y25*%
%MOIN*%
G70*
G01*
G75*
%ADD10C,0.00984*%
%ADD11C,0.01968*%
%ADD12C,0.00787*%
%ADD13C,0.01000*%
%ADD14C,0.02362*%
%ADD15C,0.00400*%
%ADD16C,0.00591*%
%ADD17C,0.00600*%
%ADD18C,0.00700*%
D10*
X532697Y489980D02*
G03*
X532697Y489980I-492J0D01*
G01*
X603090D02*
G03*
X603090Y489980I-492J0D01*
G01*
X618996Y489980D02*
G03*
X618996Y489980I-492J0D01*
G01*
X550571Y489980D02*
G03*
X550571Y489980I-492J0D01*
G01*
X635689Y489980D02*
G03*
X635689Y489980I-492J0D01*
G01*
X569232Y489980D02*
G03*
X569232Y489980I-492J0D01*
G01*
X652775D02*
G03*
X652775Y489980I-492J0D01*
G01*
X586713D02*
G03*
X586713Y489980I-492J0D01*
G01*
X228839Y380709D02*
G03*
X228839Y380709I-492J0D01*
G01*
X362697Y388189D02*
G03*
X362697Y388189I-492J0D01*
G01*
X364665Y284252D02*
G03*
X364665Y284252I-492J0D01*
G01*
X224114Y285433D02*
G03*
X224114Y285433I-492J0D01*
G01*
X221358Y177559D02*
G03*
X221358Y177559I-492J0D01*
G01*
X361910Y179528D02*
G03*
X361910Y179528I-492J0D01*
G01*
X502461Y288583D02*
G03*
X502461Y288583I-492J0D01*
G01*
X497736Y181890D02*
G03*
X497736Y181890I-492J0D01*
G01*
X218996Y380709D02*
G03*
X218996Y380709I-492J0D01*
G01*
X352854Y388189D02*
G03*
X352854Y388189I-492J0D01*
G01*
X354823Y284252D02*
G03*
X354823Y284252I-492J0D01*
G01*
X214272Y285433D02*
G03*
X214272Y285433I-492J0D01*
G01*
X211516Y177559D02*
G03*
X211516Y177559I-492J0D01*
G01*
X352067Y179528D02*
G03*
X352067Y179528I-492J0D01*
G01*
X492618Y288583D02*
G03*
X492618Y288583I-492J0D01*
G01*
X487894Y181890D02*
G03*
X487894Y181890I-492J0D01*
G01*
X191043Y425433D02*
G03*
X191043Y425433I-492J0D01*
G01*
X186319Y330157D02*
G03*
X186319Y330157I-492J0D01*
G01*
X296949Y398189D02*
G03*
X296949Y398189I-492J0D01*
G01*
X432776Y301732D02*
G03*
X432776Y301732I-492J0D01*
G01*
X289469Y195039D02*
G03*
X289469Y195039I-492J0D01*
G01*
X300492Y182323D02*
G03*
X300492Y182323I-492J0D01*
G01*
X430020Y197008D02*
G03*
X430020Y197008I-492J0D01*
G01*
X437106Y184685D02*
G03*
X437106Y184685I-492J0D01*
G01*
X666634Y450787D02*
G03*
X666634Y450787I-492J0D01*
G01*
X639862Y459055D02*
G03*
X639862Y459055I-492J0D01*
G01*
X610728Y298543D02*
G03*
X610728Y298543I-492J0D01*
G01*
X665185Y293587D02*
G03*
X665185Y293587I-492J0D01*
G01*
X277264Y440551D02*
G03*
X277264Y440551I-492J0D01*
G01*
X440650Y401181D02*
G03*
X440650Y401181I-492J0D01*
G01*
X413168Y371063D02*
G03*
X413168Y371063I-492J0D01*
G01*
X253524Y351181D02*
G03*
X253524Y351181I-492J0D01*
G01*
X523796Y345488D02*
G03*
X523796Y345488I-492J0D01*
G01*
X590650Y237795D02*
G03*
X590650Y237795I-492J0D01*
G01*
X604626Y308957D02*
G03*
X604626Y308957I-492J0D01*
G01*
X515496Y401256D02*
G03*
X515496Y401256I-492J0D01*
G01*
X324902Y432913D02*
G03*
X324902Y432913I-492J0D01*
G01*
X430807Y405669D02*
G03*
X430807Y405669I-492J0D01*
G01*
X536461Y390921D02*
G03*
X536461Y390921I-492J0D01*
G01*
X504587Y203740D02*
G03*
X504587Y203740I-492J0D01*
G01*
X519153Y190295D02*
G03*
X519153Y190295I-492J0D01*
G01*
X476279Y185728D02*
G03*
X476279Y185728I-492J0D01*
G01*
X565846Y199370D02*
G03*
X565846Y199370I-492J0D01*
G01*
X368760Y201378D02*
G03*
X368760Y201378I-492J0D01*
G01*
X340453Y183366D02*
G03*
X340453Y183366I-492J0D01*
G01*
X383760Y186909D02*
G03*
X383760Y186909I-492J0D01*
G01*
X509311Y310433D02*
G03*
X509311Y310433I-492J0D01*
G01*
X570571Y306063D02*
G03*
X570571Y306063I-492J0D01*
G01*
X458858Y287276D02*
G03*
X458858Y287276I-492J0D01*
G01*
X524311Y296161D02*
G03*
X524311Y296161I-492J0D01*
G01*
X245965Y293996D02*
G03*
X245965Y293996I-492J0D01*
G01*
X202658Y289272D02*
G03*
X202658Y289272I-492J0D01*
G01*
X292224Y302913D02*
G03*
X292224Y302913I-492J0D01*
G01*
X230965Y307283D02*
G03*
X230965Y307283I-492J0D01*
G01*
X228209Y199409D02*
G03*
X228209Y199409I-492J0D01*
G01*
X199902Y181398D02*
G03*
X199902Y181398I-492J0D01*
G01*
X242815Y186122D02*
G03*
X242815Y186122I-492J0D01*
G01*
X371516Y306102D02*
G03*
X371516Y306102I-492J0D01*
G01*
X343209Y288091D02*
G03*
X343209Y288091I-492J0D01*
G01*
X387028Y292028D02*
G03*
X387028Y292028I-492J0D01*
G01*
X386083Y395642D02*
G03*
X386083Y395642I-492J0D01*
G01*
X341240Y392028D02*
G03*
X341240Y392028I-492J0D01*
G01*
X369547Y410039D02*
G03*
X369547Y410039I-492J0D01*
G01*
X251476Y388161D02*
G03*
X251476Y388161I-492J0D01*
G01*
X207382Y384547D02*
G03*
X207382Y384547I-492J0D01*
G01*
X235689Y402559D02*
G03*
X235689Y402559I-492J0D01*
G01*
X459941Y226614D02*
G03*
X459941Y226614I-492J0D01*
G01*
X183563Y222284D02*
G03*
X183563Y222284I-492J0D01*
G01*
X326870Y328976D02*
G03*
X326870Y328976I-492J0D01*
G01*
X324114Y224252D02*
G03*
X324114Y224252I-492J0D01*
G01*
X464665Y333307D02*
G03*
X464665Y333307I-492J0D01*
G01*
X641142Y326969D02*
G03*
X641142Y326969I-492J0D01*
G01*
X594390Y388681D02*
G03*
X594390Y388681I-492J0D01*
G01*
X645177Y294587D02*
G03*
X645177Y294587I-492J0D01*
G01*
X682185Y469291D02*
G03*
X682185Y469291I-492J0D01*
G01*
X515445Y236470D02*
G03*
X515445Y236470I-492J0D01*
G01*
X610925Y262055D02*
G03*
X610925Y262055I-492J0D01*
G01*
D11*
X198819Y420472D02*
G03*
X198819Y420472I-984J0D01*
G01*
X194095Y325197D02*
G03*
X194095Y325197I-984J0D01*
G01*
X290158Y403150D02*
G03*
X290158Y403150I-984J0D01*
G01*
X425984Y306693D02*
G03*
X425984Y306693I-984J0D01*
G01*
X282677Y200000D02*
G03*
X282677Y200000I-984J0D01*
G01*
X423228Y201969D02*
G03*
X423228Y201969I-984J0D01*
G01*
X332677Y427953D02*
G03*
X332677Y427953I-984J0D01*
G01*
X424016Y410630D02*
G03*
X424016Y410630I-984J0D01*
G01*
X559055Y204331D02*
G03*
X559055Y204331I-984J0D01*
G01*
X563779Y311024D02*
G03*
X563779Y311024I-984J0D01*
G01*
X285433Y307874D02*
G03*
X285433Y307874I-984J0D01*
G01*
X467717Y221654D02*
G03*
X467717Y221654I-984J0D01*
G01*
X191339Y217323D02*
G03*
X191339Y217323I-984J0D01*
G01*
X334646Y324016D02*
G03*
X334646Y324016I-984J0D01*
G01*
X331890Y219291D02*
G03*
X331890Y219291I-984J0D01*
G01*
X472441Y328346D02*
G03*
X472441Y328346I-984J0D01*
G01*
D12*
X88661Y194606D02*
G03*
X88661Y187520I0J-3543D01*
G01*
X88622Y489764D02*
G03*
X88622Y482677I0J-3543D01*
G01*
X472112Y445635D02*
G03*
X468614Y438295I5951J-7339D01*
G01*
X472127Y442846D02*
G03*
X470583Y438295I5936J-4551D01*
G01*
X485543D02*
G03*
X483999Y442846I-7480J0D01*
G01*
X487512Y438295D02*
G03*
X484014Y445635I-9449J0D01*
G01*
Y405365D02*
G03*
X487512Y412705I-5951J7339D01*
G01*
X483999Y408153D02*
G03*
X485543Y412705I-5936J4551D01*
G01*
X470583D02*
G03*
X472127Y408153I7480J0D01*
G01*
X468614Y412705D02*
G03*
X472112Y405365I9449J0D01*
G01*
X529646Y497460D02*
X534764D01*
X600039D02*
X605158D01*
X615945Y497460D02*
X621063D01*
X547520Y497460D02*
X552638D01*
X632638Y497460D02*
X637756D01*
X566181Y497460D02*
X571299D01*
X649724D02*
X654842D01*
X583661D02*
X588779D01*
X225787Y373228D02*
X230906D01*
X359646Y380709D02*
X364764D01*
X361614Y276772D02*
X366732D01*
X221063Y277953D02*
X226181D01*
X218307Y170079D02*
X223425D01*
X358858Y172047D02*
X363976D01*
X499409Y281102D02*
X504528D01*
X494685Y174409D02*
X499803D01*
X215945Y373228D02*
X221063D01*
X349803Y380709D02*
X354921D01*
X351772Y276772D02*
X356890D01*
X211221Y277953D02*
X216339D01*
X208465Y170079D02*
X213583D01*
X349016Y172047D02*
X354134D01*
X489567Y281102D02*
X494685D01*
X484842Y174409D02*
X489961D01*
X193898Y389764D02*
X206102D01*
X193898Y424409D02*
X206102D01*
Y389764D02*
Y424409D01*
X193898Y389764D02*
Y424409D01*
X88779Y350910D02*
X89567Y349336D01*
X87204Y350910D02*
X88779D01*
X86417Y349336D02*
X87204Y350910D01*
X85630D02*
X86417Y349336D01*
X84055Y350910D02*
X85630D01*
X83267Y349336D02*
X84055Y350910D01*
X82480D02*
X83267Y349336D01*
X80905Y350910D02*
X82480D01*
X80118Y349336D02*
X80905Y350910D01*
X79330D02*
X80118Y349336D01*
X77756Y350910D02*
X79330D01*
X76968Y349336D02*
X77756Y350910D01*
X76181D02*
X76968Y349336D01*
X74606Y350910D02*
X76181D01*
X73819Y349336D02*
X74606Y350910D01*
X73031D02*
X73819Y349336D01*
X71456Y350910D02*
X73031D01*
X70669Y349336D02*
X71456Y350910D01*
X69882D02*
X70669Y349336D01*
X68307Y350910D02*
X69882D01*
X67519Y349336D02*
X68307Y350910D01*
X66732D02*
X67519Y349336D01*
X65157Y350910D02*
X66732D01*
X64370Y349336D02*
X65157Y350910D01*
X63582D02*
X64370Y349336D01*
X62008Y350910D02*
X63582D01*
X61220Y349336D02*
X62008Y350910D01*
X60433D02*
X61220Y349336D01*
X58858Y350910D02*
X60433D01*
X58071Y349336D02*
X58858Y350910D01*
X57283D02*
X58071Y349336D01*
X55708Y350910D02*
X57283D01*
X54921Y349336D02*
X55708Y350910D01*
X54134D02*
X54921Y349336D01*
X53740Y350910D02*
X54134D01*
X53740D02*
Y396383D01*
X88779Y363838D02*
X89567Y360597D01*
X87204Y363838D02*
X88779D01*
X86417Y360597D02*
X87204Y363838D01*
X85630D02*
X86417Y360597D01*
X84055Y363838D02*
X85630D01*
X83267Y360597D02*
X84055Y363838D01*
X82480D02*
X83267Y360597D01*
X80905Y363838D02*
X82480D01*
X80118Y360597D02*
X80905Y363838D01*
X79330D02*
X80118Y360597D01*
X77756Y363838D02*
X79330D01*
X76968Y360597D02*
X77756Y363838D01*
X76181D02*
X76968Y360597D01*
X74606Y363838D02*
X76181D01*
X73819Y360597D02*
X74606Y363838D01*
X73031D02*
X73819Y360597D01*
X71456Y363838D02*
X73031D01*
X70669Y360597D02*
X71456Y363838D01*
X69882D02*
X70669Y360597D01*
X68307Y363838D02*
X69882D01*
X67519Y360597D02*
X68307Y363838D01*
X66732D02*
X67519Y360597D01*
X65157Y363838D02*
X66732D01*
X64370Y360597D02*
X65157Y363838D01*
X63582D02*
X64370Y360597D01*
X62008Y363838D02*
X63582D01*
X61220Y360597D02*
X62008Y363838D01*
X60433D02*
X61220Y360597D01*
X58858Y363838D02*
X60433D01*
X58071Y360597D02*
X58858Y363838D01*
X57283D02*
X58071Y360597D01*
X55708Y363838D02*
X57283D01*
X54921Y360597D02*
X55708Y363838D01*
X54134D02*
X54921Y360597D01*
X53740Y363838D02*
X54134D01*
X54921Y349336D02*
X58071Y360597D01*
Y349336D02*
X61220Y360597D01*
Y349336D02*
X64370Y360597D01*
Y349336D02*
X67519Y360597D01*
Y349336D02*
X70669Y360597D01*
Y349336D02*
X73819Y360597D01*
Y349336D02*
X76968Y360597D01*
Y349336D02*
X80118Y360597D01*
Y349336D02*
X83267Y360597D01*
Y349336D02*
X86417Y360597D01*
Y349336D02*
X89567Y360597D01*
X53740Y356374D02*
X54921Y360597D01*
X88779Y396383D02*
X89567Y397957D01*
X87204Y396383D02*
X88779D01*
X86417Y397957D02*
X87204Y396383D01*
X85630D02*
X86417Y397957D01*
X84055Y396383D02*
X85630D01*
X83267Y397957D02*
X84055Y396383D01*
X82480D02*
X83267Y397957D01*
X80905Y396383D02*
X82480D01*
X80118Y397957D02*
X80905Y396383D01*
X79330D02*
X80118Y397957D01*
X77756Y396383D02*
X79330D01*
X76968Y397957D02*
X77756Y396383D01*
X76181D02*
X76968Y397957D01*
X74606Y396383D02*
X76181D01*
X73819Y397957D02*
X74606Y396383D01*
X73031D02*
X73819Y397957D01*
X71456Y396383D02*
X73031D01*
X70669Y397957D02*
X71456Y396383D01*
X69882D02*
X70669Y397957D01*
X68307Y396383D02*
X69882D01*
X67519Y397957D02*
X68307Y396383D01*
X66732D02*
X67519Y397957D01*
X65157Y396383D02*
X66732D01*
X64370Y397957D02*
X65157Y396383D01*
X63582D02*
X64370Y397957D01*
X62008Y396383D02*
X63582D01*
X61220Y397957D02*
X62008Y396383D01*
X60433D02*
X61220Y397957D01*
X58858Y396383D02*
X60433D01*
X58071Y397957D02*
X58858Y396383D01*
X57283D02*
X58071Y397957D01*
X55708Y396383D02*
X57283D01*
X54921Y397957D02*
X55708Y396383D01*
X54134D02*
X54921Y397957D01*
X53740Y396383D02*
X54134D01*
X88779Y383455D02*
X89567Y386696D01*
X87204Y383455D02*
X88779D01*
X86417Y386696D02*
X87204Y383455D01*
X85630D02*
X86417Y386696D01*
X84055Y383455D02*
X85630D01*
X83267Y386696D02*
X84055Y383455D01*
X82480D02*
X83267Y386696D01*
X80905Y383455D02*
X82480D01*
X80118Y386696D02*
X80905Y383455D01*
X79330D02*
X80118Y386696D01*
X77756Y383455D02*
X79330D01*
X76968Y386696D02*
X77756Y383455D01*
X76181D02*
X76968Y386696D01*
X74606Y383455D02*
X76181D01*
X73819Y386696D02*
X74606Y383455D01*
X73031D02*
X73819Y386696D01*
X71456Y383455D02*
X73031D01*
X70669Y386696D02*
X71456Y383455D01*
X69882D02*
X70669Y386696D01*
X68307Y383455D02*
X69882D01*
X67519Y386696D02*
X68307Y383455D01*
X66732D02*
X67519Y386696D01*
X65157Y383455D02*
X66732D01*
X64370Y386696D02*
X65157Y383455D01*
X63582D02*
X64370Y386696D01*
X62008Y383455D02*
X63582D01*
X61220Y386696D02*
X62008Y383455D01*
X60433D02*
X61220Y386696D01*
X58858Y383455D02*
X60433D01*
X58071Y386696D02*
X58858Y383455D01*
X57283D02*
X58071Y386696D01*
X55708Y383455D02*
X57283D01*
X54921Y386696D02*
X55708Y383455D01*
X54134D02*
X54921Y386696D01*
X53740Y383455D02*
X54134D01*
X6889Y354740D02*
X53740D01*
X6889D02*
Y392553D01*
X53740D01*
X54921Y386696D02*
X58071Y397957D01*
Y386696D02*
X61220Y397957D01*
Y386696D02*
X64370Y397957D01*
Y386696D02*
X67519Y397957D01*
Y386696D02*
X70669Y397957D01*
Y386696D02*
X73819Y397957D01*
Y386696D02*
X76968Y397957D01*
Y386696D02*
X80118Y397957D01*
Y386696D02*
X83267Y397957D01*
Y386696D02*
X86417Y397957D01*
Y386696D02*
X89567Y397957D01*
X53740Y393735D02*
X54921Y397957D01*
X89567Y344119D02*
Y403174D01*
Y344119D02*
X160827D01*
Y348450D01*
X157677D02*
X160827D01*
X157677Y344119D02*
Y403174D01*
Y398843D02*
X160827D01*
X160825D02*
X160827Y403174D01*
X89567D02*
X160827D01*
X26575Y351993D02*
Y354740D01*
X18701Y351993D02*
X26575D01*
X18701D02*
Y354740D01*
X26575Y392553D02*
Y395300D01*
X18701D02*
X26575D01*
X18701Y392553D02*
Y395300D01*
X142993Y198150D02*
Y201103D01*
Y181024D02*
Y183977D01*
Y188308D02*
Y193820D01*
X89449Y181024D02*
X142992D01*
X89449Y201102D02*
X142992D01*
X89449Y181024D02*
Y201102D01*
X88661Y194606D02*
X89449D01*
X88661Y187520D02*
X89449D01*
X142953Y493308D02*
Y496260D01*
Y476182D02*
Y479135D01*
Y483465D02*
Y488977D01*
X89409Y476181D02*
X142953D01*
X89409Y496260D02*
X142953D01*
X89409Y476181D02*
Y496260D01*
X88622Y489764D02*
X89409D01*
X88622Y482677D02*
X89409D01*
X88779Y280044D02*
X89567Y278469D01*
X87204Y280044D02*
X88779D01*
X86417Y278469D02*
X87204Y280044D01*
X85630D02*
X86417Y278469D01*
X84055Y280044D02*
X85630D01*
X83267Y278469D02*
X84055Y280044D01*
X82480D02*
X83267Y278469D01*
X80905Y280044D02*
X82480D01*
X80118Y278469D02*
X80905Y280044D01*
X79330D02*
X80118Y278469D01*
X77756Y280044D02*
X79330D01*
X76968Y278469D02*
X77756Y280044D01*
X76181D02*
X76968Y278469D01*
X74606Y280044D02*
X76181D01*
X73819Y278469D02*
X74606Y280044D01*
X73031D02*
X73819Y278469D01*
X71456Y280044D02*
X73031D01*
X70669Y278469D02*
X71456Y280044D01*
X69882D02*
X70669Y278469D01*
X68307Y280044D02*
X69882D01*
X67519Y278469D02*
X68307Y280044D01*
X66732D02*
X67519Y278469D01*
X65157Y280044D02*
X66732D01*
X64370Y278469D02*
X65157Y280044D01*
X63582D02*
X64370Y278469D01*
X62008Y280044D02*
X63582D01*
X61220Y278469D02*
X62008Y280044D01*
X60433D02*
X61220Y278469D01*
X58858Y280044D02*
X60433D01*
X58071Y278469D02*
X58858Y280044D01*
X57283D02*
X58071Y278469D01*
X55708Y280044D02*
X57283D01*
X54921Y278469D02*
X55708Y280044D01*
X54134D02*
X54921Y278469D01*
X53740Y280044D02*
X54134D01*
X53740D02*
Y325517D01*
X88779Y292972D02*
X89567Y289731D01*
X87204Y292972D02*
X88779D01*
X86417Y289731D02*
X87204Y292972D01*
X85630D02*
X86417Y289731D01*
X84055Y292972D02*
X85630D01*
X83267Y289731D02*
X84055Y292972D01*
X82480D02*
X83267Y289731D01*
X80905Y292972D02*
X82480D01*
X80118Y289731D02*
X80905Y292972D01*
X79330D02*
X80118Y289731D01*
X77756Y292972D02*
X79330D01*
X76968Y289731D02*
X77756Y292972D01*
X76181D02*
X76968Y289731D01*
X74606Y292972D02*
X76181D01*
X73819Y289731D02*
X74606Y292972D01*
X73031D02*
X73819Y289731D01*
X71456Y292972D02*
X73031D01*
X70669Y289731D02*
X71456Y292972D01*
X69882D02*
X70669Y289731D01*
X68307Y292972D02*
X69882D01*
X67519Y289731D02*
X68307Y292972D01*
X66732D02*
X67519Y289731D01*
X65157Y292972D02*
X66732D01*
X64370Y289731D02*
X65157Y292972D01*
X63582D02*
X64370Y289731D01*
X62008Y292972D02*
X63582D01*
X61220Y289731D02*
X62008Y292972D01*
X60433D02*
X61220Y289731D01*
X58858Y292972D02*
X60433D01*
X58071Y289731D02*
X58858Y292972D01*
X57283D02*
X58071Y289731D01*
X55708Y292972D02*
X57283D01*
X54921Y289731D02*
X55708Y292972D01*
X54134D02*
X54921Y289731D01*
X53740Y292972D02*
X54134D01*
X54921Y278469D02*
X58071Y289731D01*
Y278469D02*
X61220Y289731D01*
Y278469D02*
X64370Y289731D01*
Y278469D02*
X67519Y289731D01*
Y278469D02*
X70669Y289731D01*
Y278469D02*
X73819Y289731D01*
Y278469D02*
X76968Y289731D01*
Y278469D02*
X80118Y289731D01*
Y278469D02*
X83267Y289731D01*
Y278469D02*
X86417Y289731D01*
Y278469D02*
X89567Y289731D01*
X53740Y285508D02*
X54921Y289731D01*
X88779Y325517D02*
X89567Y327091D01*
X87204Y325517D02*
X88779D01*
X86417Y327091D02*
X87204Y325517D01*
X85630D02*
X86417Y327091D01*
X84055Y325517D02*
X85630D01*
X83267Y327091D02*
X84055Y325517D01*
X82480D02*
X83267Y327091D01*
X80905Y325517D02*
X82480D01*
X80118Y327091D02*
X80905Y325517D01*
X79330D02*
X80118Y327091D01*
X77756Y325517D02*
X79330D01*
X76968Y327091D02*
X77756Y325517D01*
X76181D02*
X76968Y327091D01*
X74606Y325517D02*
X76181D01*
X73819Y327091D02*
X74606Y325517D01*
X73031D02*
X73819Y327091D01*
X71456Y325517D02*
X73031D01*
X70669Y327091D02*
X71456Y325517D01*
X69882D02*
X70669Y327091D01*
X68307Y325517D02*
X69882D01*
X67519Y327091D02*
X68307Y325517D01*
X66732D02*
X67519Y327091D01*
X65157Y325517D02*
X66732D01*
X64370Y327091D02*
X65157Y325517D01*
X63582D02*
X64370Y327091D01*
X62008Y325517D02*
X63582D01*
X61220Y327091D02*
X62008Y325517D01*
X60433D02*
X61220Y327091D01*
X58858Y325517D02*
X60433D01*
X58071Y327091D02*
X58858Y325517D01*
X57283D02*
X58071Y327091D01*
X55708Y325517D02*
X57283D01*
X54921Y327091D02*
X55708Y325517D01*
X54134D02*
X54921Y327091D01*
X53740Y325517D02*
X54134D01*
X88779Y312589D02*
X89567Y315830D01*
X87204Y312589D02*
X88779D01*
X86417Y315830D02*
X87204Y312589D01*
X85630D02*
X86417Y315830D01*
X84055Y312589D02*
X85630D01*
X83267Y315830D02*
X84055Y312589D01*
X82480D02*
X83267Y315830D01*
X80905Y312589D02*
X82480D01*
X80118Y315830D02*
X80905Y312589D01*
X79330D02*
X80118Y315830D01*
X77756Y312589D02*
X79330D01*
X76968Y315830D02*
X77756Y312589D01*
X76181D02*
X76968Y315830D01*
X74606Y312589D02*
X76181D01*
X73819Y315830D02*
X74606Y312589D01*
X73031D02*
X73819Y315830D01*
X71456Y312589D02*
X73031D01*
X70669Y315830D02*
X71456Y312589D01*
X69882D02*
X70669Y315830D01*
X68307Y312589D02*
X69882D01*
X67519Y315830D02*
X68307Y312589D01*
X66732D02*
X67519Y315830D01*
X65157Y312589D02*
X66732D01*
X64370Y315830D02*
X65157Y312589D01*
X63582D02*
X64370Y315830D01*
X62008Y312589D02*
X63582D01*
X61220Y315830D02*
X62008Y312589D01*
X60433D02*
X61220Y315830D01*
X58858Y312589D02*
X60433D01*
X58071Y315830D02*
X58858Y312589D01*
X57283D02*
X58071Y315830D01*
X55708Y312589D02*
X57283D01*
X54921Y315830D02*
X55708Y312589D01*
X54134D02*
X54921Y315830D01*
X53740Y312589D02*
X54134D01*
X6889Y283874D02*
X53740D01*
X6889D02*
Y321687D01*
X53740D01*
X54921Y315830D02*
X58071Y327091D01*
Y315830D02*
X61220Y327091D01*
Y315830D02*
X64370Y327091D01*
Y315830D02*
X67519Y327091D01*
Y315830D02*
X70669Y327091D01*
Y315830D02*
X73819Y327091D01*
Y315830D02*
X76968Y327091D01*
Y315830D02*
X80118Y327091D01*
Y315830D02*
X83267Y327091D01*
Y315830D02*
X86417Y327091D01*
Y315830D02*
X89567Y327091D01*
X53740Y322868D02*
X54921Y327091D01*
X89567Y273253D02*
Y332308D01*
Y273253D02*
X160827D01*
Y277584D01*
X157677D02*
X160827D01*
X157677Y273253D02*
Y332308D01*
Y327977D02*
X160827D01*
X160825D02*
X160827Y332308D01*
X89567D02*
X160827D01*
X26575Y281127D02*
Y283874D01*
X18701Y281127D02*
X26575D01*
X18701D02*
Y283874D01*
X26575Y321687D02*
Y324434D01*
X18701D02*
X26575D01*
X18701Y321687D02*
Y324434D01*
X88779Y421776D02*
X89567Y420202D01*
X87204Y421776D02*
X88779D01*
X86417Y420202D02*
X87204Y421776D01*
X85630D02*
X86417Y420202D01*
X84055Y421776D02*
X85630D01*
X83267Y420202D02*
X84055Y421776D01*
X82480D02*
X83267Y420202D01*
X80905Y421776D02*
X82480D01*
X80118Y420202D02*
X80905Y421776D01*
X79330D02*
X80118Y420202D01*
X77756Y421776D02*
X79330D01*
X76968Y420202D02*
X77756Y421776D01*
X76181D02*
X76968Y420202D01*
X74606Y421776D02*
X76181D01*
X73819Y420202D02*
X74606Y421776D01*
X73031D02*
X73819Y420202D01*
X71456Y421776D02*
X73031D01*
X70669Y420202D02*
X71456Y421776D01*
X69882D02*
X70669Y420202D01*
X68307Y421776D02*
X69882D01*
X67519Y420202D02*
X68307Y421776D01*
X66732D02*
X67519Y420202D01*
X65157Y421776D02*
X66732D01*
X64370Y420202D02*
X65157Y421776D01*
X63582D02*
X64370Y420202D01*
X62008Y421776D02*
X63582D01*
X61220Y420202D02*
X62008Y421776D01*
X60433D02*
X61220Y420202D01*
X58858Y421776D02*
X60433D01*
X58071Y420202D02*
X58858Y421776D01*
X57283D02*
X58071Y420202D01*
X55708Y421776D02*
X57283D01*
X54921Y420202D02*
X55708Y421776D01*
X54134D02*
X54921Y420202D01*
X53740Y421776D02*
X54134D01*
X53740D02*
Y467249D01*
X88779Y434704D02*
X89567Y431463D01*
X87204Y434704D02*
X88779D01*
X86417Y431463D02*
X87204Y434704D01*
X85630D02*
X86417Y431463D01*
X84055Y434704D02*
X85630D01*
X83267Y431463D02*
X84055Y434704D01*
X82480D02*
X83267Y431463D01*
X80905Y434704D02*
X82480D01*
X80118Y431463D02*
X80905Y434704D01*
X79330D02*
X80118Y431463D01*
X77756Y434704D02*
X79330D01*
X76968Y431463D02*
X77756Y434704D01*
X76181D02*
X76968Y431463D01*
X74606Y434704D02*
X76181D01*
X73819Y431463D02*
X74606Y434704D01*
X73031D02*
X73819Y431463D01*
X71456Y434704D02*
X73031D01*
X70669Y431463D02*
X71456Y434704D01*
X69882D02*
X70669Y431463D01*
X68307Y434704D02*
X69882D01*
X67519Y431463D02*
X68307Y434704D01*
X66732D02*
X67519Y431463D01*
X65157Y434704D02*
X66732D01*
X64370Y431463D02*
X65157Y434704D01*
X63582D02*
X64370Y431463D01*
X62008Y434704D02*
X63582D01*
X61220Y431463D02*
X62008Y434704D01*
X60433D02*
X61220Y431463D01*
X58858Y434704D02*
X60433D01*
X58071Y431463D02*
X58858Y434704D01*
X57283D02*
X58071Y431463D01*
X55708Y434704D02*
X57283D01*
X54921Y431463D02*
X55708Y434704D01*
X54134D02*
X54921Y431463D01*
X53740Y434704D02*
X54134D01*
X54921Y420202D02*
X58071Y431463D01*
Y420202D02*
X61220Y431463D01*
Y420202D02*
X64370Y431463D01*
Y420202D02*
X67519Y431463D01*
Y420202D02*
X70669Y431463D01*
Y420202D02*
X73819Y431463D01*
Y420202D02*
X76968Y431463D01*
Y420202D02*
X80118Y431463D01*
Y420202D02*
X83267Y431463D01*
Y420202D02*
X86417Y431463D01*
Y420202D02*
X89567Y431463D01*
X53740Y427240D02*
X54921Y431463D01*
X88779Y467249D02*
X89567Y468824D01*
X87204Y467249D02*
X88779D01*
X86417Y468824D02*
X87204Y467249D01*
X85630D02*
X86417Y468824D01*
X84055Y467249D02*
X85630D01*
X83267Y468824D02*
X84055Y467249D01*
X82480D02*
X83267Y468824D01*
X80905Y467249D02*
X82480D01*
X80118Y468824D02*
X80905Y467249D01*
X79330D02*
X80118Y468824D01*
X77756Y467249D02*
X79330D01*
X76968Y468824D02*
X77756Y467249D01*
X76181D02*
X76968Y468824D01*
X74606Y467249D02*
X76181D01*
X73819Y468824D02*
X74606Y467249D01*
X73031D02*
X73819Y468824D01*
X71456Y467249D02*
X73031D01*
X70669Y468824D02*
X71456Y467249D01*
X69882D02*
X70669Y468824D01*
X68307Y467249D02*
X69882D01*
X67519Y468824D02*
X68307Y467249D01*
X66732D02*
X67519Y468824D01*
X65157Y467249D02*
X66732D01*
X64370Y468824D02*
X65157Y467249D01*
X63582D02*
X64370Y468824D01*
X62008Y467249D02*
X63582D01*
X61220Y468824D02*
X62008Y467249D01*
X60433D02*
X61220Y468824D01*
X58858Y467249D02*
X60433D01*
X58071Y468824D02*
X58858Y467249D01*
X57283D02*
X58071Y468824D01*
X55708Y467249D02*
X57283D01*
X54921Y468824D02*
X55708Y467249D01*
X54134D02*
X54921Y468824D01*
X53740Y467249D02*
X54134D01*
X88779Y454321D02*
X89567Y457562D01*
X87204Y454321D02*
X88779D01*
X86417Y457562D02*
X87204Y454321D01*
X85630D02*
X86417Y457562D01*
X84055Y454321D02*
X85630D01*
X83267Y457562D02*
X84055Y454321D01*
X82480D02*
X83267Y457562D01*
X80905Y454321D02*
X82480D01*
X80118Y457562D02*
X80905Y454321D01*
X79330D02*
X80118Y457562D01*
X77756Y454321D02*
X79330D01*
X76968Y457562D02*
X77756Y454321D01*
X76181D02*
X76968Y457562D01*
X74606Y454321D02*
X76181D01*
X73819Y457562D02*
X74606Y454321D01*
X73031D02*
X73819Y457562D01*
X71456Y454321D02*
X73031D01*
X70669Y457562D02*
X71456Y454321D01*
X69882D02*
X70669Y457562D01*
X68307Y454321D02*
X69882D01*
X67519Y457562D02*
X68307Y454321D01*
X66732D02*
X67519Y457562D01*
X65157Y454321D02*
X66732D01*
X64370Y457562D02*
X65157Y454321D01*
X63582D02*
X64370Y457562D01*
X62008Y454321D02*
X63582D01*
X61220Y457562D02*
X62008Y454321D01*
X60433D02*
X61220Y457562D01*
X58858Y454321D02*
X60433D01*
X58071Y457562D02*
X58858Y454321D01*
X57283D02*
X58071Y457562D01*
X55708Y454321D02*
X57283D01*
X54921Y457562D02*
X55708Y454321D01*
X54134D02*
X54921Y457562D01*
X53740Y454321D02*
X54134D01*
X6889Y425606D02*
X53740D01*
X6889D02*
Y463419D01*
X53740D01*
X54921Y457562D02*
X58071Y468824D01*
Y457562D02*
X61220Y468824D01*
Y457562D02*
X64370Y468824D01*
Y457562D02*
X67519Y468824D01*
Y457562D02*
X70669Y468824D01*
Y457562D02*
X73819Y468824D01*
Y457562D02*
X76968Y468824D01*
Y457562D02*
X80118Y468824D01*
Y457562D02*
X83267Y468824D01*
Y457562D02*
X86417Y468824D01*
Y457562D02*
X89567Y468824D01*
X53740Y464601D02*
X54921Y468824D01*
X89567Y414985D02*
Y474040D01*
Y414985D02*
X160827D01*
Y419316D01*
X157677D02*
X160827D01*
X157677Y414985D02*
Y474040D01*
Y469709D02*
X160827D01*
X160825D02*
X160827Y474040D01*
X89567D02*
X160827D01*
X26575Y422859D02*
Y425606D01*
X18701Y422859D02*
X26575D01*
X18701D02*
Y425606D01*
X26575Y463419D02*
Y466166D01*
X18701D02*
X26575D01*
X18701Y463419D02*
Y466166D01*
X88779Y209178D02*
X89567Y207603D01*
X87204Y209178D02*
X88779D01*
X86417Y207603D02*
X87204Y209178D01*
X85630D02*
X86417Y207603D01*
X84055Y209178D02*
X85630D01*
X83267Y207603D02*
X84055Y209178D01*
X82480D02*
X83267Y207603D01*
X80905Y209178D02*
X82480D01*
X80118Y207603D02*
X80905Y209178D01*
X79330D02*
X80118Y207603D01*
X77756Y209178D02*
X79330D01*
X76968Y207603D02*
X77756Y209178D01*
X76181D02*
X76968Y207603D01*
X74606Y209178D02*
X76181D01*
X73819Y207603D02*
X74606Y209178D01*
X73031D02*
X73819Y207603D01*
X71456Y209178D02*
X73031D01*
X70669Y207603D02*
X71456Y209178D01*
X69882D02*
X70669Y207603D01*
X68307Y209178D02*
X69882D01*
X67519Y207603D02*
X68307Y209178D01*
X66732D02*
X67519Y207603D01*
X65157Y209178D02*
X66732D01*
X64370Y207603D02*
X65157Y209178D01*
X63582D02*
X64370Y207603D01*
X62008Y209178D02*
X63582D01*
X61220Y207603D02*
X62008Y209178D01*
X60433D02*
X61220Y207603D01*
X58858Y209178D02*
X60433D01*
X58071Y207603D02*
X58858Y209178D01*
X57283D02*
X58071Y207603D01*
X55708Y209178D02*
X57283D01*
X54921Y207603D02*
X55708Y209178D01*
X54134D02*
X54921Y207603D01*
X53740Y209178D02*
X54134D01*
X53740D02*
Y254650D01*
X88779Y222106D02*
X89567Y218865D01*
X87204Y222106D02*
X88779D01*
X86417Y218865D02*
X87204Y222106D01*
X85630D02*
X86417Y218865D01*
X84055Y222106D02*
X85630D01*
X83267Y218865D02*
X84055Y222106D01*
X82480D02*
X83267Y218865D01*
X80905Y222106D02*
X82480D01*
X80118Y218865D02*
X80905Y222106D01*
X79330D02*
X80118Y218865D01*
X77756Y222106D02*
X79330D01*
X76968Y218865D02*
X77756Y222106D01*
X76181D02*
X76968Y218865D01*
X74606Y222106D02*
X76181D01*
X73819Y218865D02*
X74606Y222106D01*
X73031D02*
X73819Y218865D01*
X71456Y222106D02*
X73031D01*
X70669Y218865D02*
X71456Y222106D01*
X69882D02*
X70669Y218865D01*
X68307Y222106D02*
X69882D01*
X67519Y218865D02*
X68307Y222106D01*
X66732D02*
X67519Y218865D01*
X65157Y222106D02*
X66732D01*
X64370Y218865D02*
X65157Y222106D01*
X63582D02*
X64370Y218865D01*
X62008Y222106D02*
X63582D01*
X61220Y218865D02*
X62008Y222106D01*
X60433D02*
X61220Y218865D01*
X58858Y222106D02*
X60433D01*
X58071Y218865D02*
X58858Y222106D01*
X57283D02*
X58071Y218865D01*
X55708Y222106D02*
X57283D01*
X54921Y218865D02*
X55708Y222106D01*
X54134D02*
X54921Y218865D01*
X53740Y222106D02*
X54134D01*
X54921Y207603D02*
X58071Y218865D01*
Y207603D02*
X61220Y218865D01*
Y207603D02*
X64370Y218865D01*
Y207603D02*
X67519Y218865D01*
Y207603D02*
X70669Y218865D01*
Y207603D02*
X73819Y218865D01*
Y207603D02*
X76968Y218865D01*
Y207603D02*
X80118Y218865D01*
Y207603D02*
X83267Y218865D01*
Y207603D02*
X86417Y218865D01*
Y207603D02*
X89567Y218865D01*
X53740Y214642D02*
X54921Y218865D01*
X88779Y254650D02*
X89567Y256225D01*
X87204Y254650D02*
X88779D01*
X86417Y256225D02*
X87204Y254650D01*
X85630D02*
X86417Y256225D01*
X84055Y254650D02*
X85630D01*
X83267Y256225D02*
X84055Y254650D01*
X82480D02*
X83267Y256225D01*
X80905Y254650D02*
X82480D01*
X80118Y256225D02*
X80905Y254650D01*
X79330D02*
X80118Y256225D01*
X77756Y254650D02*
X79330D01*
X76968Y256225D02*
X77756Y254650D01*
X76181D02*
X76968Y256225D01*
X74606Y254650D02*
X76181D01*
X73819Y256225D02*
X74606Y254650D01*
X73031D02*
X73819Y256225D01*
X71456Y254650D02*
X73031D01*
X70669Y256225D02*
X71456Y254650D01*
X69882D02*
X70669Y256225D01*
X68307Y254650D02*
X69882D01*
X67519Y256225D02*
X68307Y254650D01*
X66732D02*
X67519Y256225D01*
X65157Y254650D02*
X66732D01*
X64370Y256225D02*
X65157Y254650D01*
X63582D02*
X64370Y256225D01*
X62008Y254650D02*
X63582D01*
X61220Y256225D02*
X62008Y254650D01*
X60433D02*
X61220Y256225D01*
X58858Y254650D02*
X60433D01*
X58071Y256225D02*
X58858Y254650D01*
X57283D02*
X58071Y256225D01*
X55708Y254650D02*
X57283D01*
X54921Y256225D02*
X55708Y254650D01*
X54134D02*
X54921Y256225D01*
X53740Y254650D02*
X54134D01*
X88779Y241722D02*
X89567Y244964D01*
X87204Y241722D02*
X88779D01*
X86417Y244964D02*
X87204Y241722D01*
X85630D02*
X86417Y244964D01*
X84055Y241722D02*
X85630D01*
X83267Y244964D02*
X84055Y241722D01*
X82480D02*
X83267Y244964D01*
X80905Y241722D02*
X82480D01*
X80118Y244964D02*
X80905Y241722D01*
X79330D02*
X80118Y244964D01*
X77756Y241722D02*
X79330D01*
X76968Y244964D02*
X77756Y241722D01*
X76181D02*
X76968Y244964D01*
X74606Y241722D02*
X76181D01*
X73819Y244964D02*
X74606Y241722D01*
X73031D02*
X73819Y244964D01*
X71456Y241722D02*
X73031D01*
X70669Y244964D02*
X71456Y241722D01*
X69882D02*
X70669Y244964D01*
X68307Y241722D02*
X69882D01*
X67519Y244964D02*
X68307Y241722D01*
X66732D02*
X67519Y244964D01*
X65157Y241722D02*
X66732D01*
X64370Y244964D02*
X65157Y241722D01*
X63582D02*
X64370Y244964D01*
X62008Y241722D02*
X63582D01*
X61220Y244964D02*
X62008Y241722D01*
X60433D02*
X61220Y244964D01*
X58858Y241722D02*
X60433D01*
X58071Y244964D02*
X58858Y241722D01*
X57283D02*
X58071Y244964D01*
X55708Y241722D02*
X57283D01*
X54921Y244964D02*
X55708Y241722D01*
X54134D02*
X54921Y244964D01*
X53740Y241722D02*
X54134D01*
X6889Y213007D02*
X53740D01*
X6889D02*
Y250821D01*
X53740D01*
X54921Y244964D02*
X58071Y256225D01*
Y244964D02*
X61220Y256225D01*
Y244964D02*
X64370Y256225D01*
Y244964D02*
X67519Y256225D01*
Y244964D02*
X70669Y256225D01*
Y244964D02*
X73819Y256225D01*
Y244964D02*
X76968Y256225D01*
Y244964D02*
X80118Y256225D01*
Y244964D02*
X83267Y256225D01*
Y244964D02*
X86417Y256225D01*
Y244964D02*
X89567Y256225D01*
X53740Y252002D02*
X54921Y256225D01*
X89567Y202387D02*
Y261442D01*
Y202387D02*
X160827D01*
Y206717D01*
X157677D02*
X160827D01*
X157677Y202387D02*
Y261442D01*
Y257111D02*
X160827D01*
X160825D02*
X160827Y261442D01*
X89567D02*
X160827D01*
X26575Y210261D02*
Y213007D01*
X18701Y210261D02*
X26575D01*
X18701D02*
Y213007D01*
X26575Y250821D02*
Y253568D01*
X18701D02*
X26575D01*
X18701Y250821D02*
Y253568D01*
X189173Y294488D02*
X201378D01*
X189173Y329134D02*
X201378D01*
Y294488D02*
Y329134D01*
X189173Y294488D02*
Y329134D01*
X167126Y405905D02*
Y423228D01*
X180118Y405905D02*
Y423228D01*
X304921Y419685D02*
Y437008D01*
X317913Y419685D02*
Y437008D01*
X300197Y287795D02*
Y305118D01*
X313189Y287795D02*
Y305118D01*
X164287Y306693D02*
Y324016D01*
X177279Y306693D02*
Y324016D01*
X161614Y198425D02*
Y215748D01*
X174606Y198425D02*
Y215748D01*
X296260Y203150D02*
Y220472D01*
X309252Y203150D02*
Y220472D01*
X456496Y293785D02*
Y311108D01*
X443504Y293785D02*
Y311108D01*
X436417Y209839D02*
Y227161D01*
X449409Y209839D02*
Y227161D01*
X293110Y399213D02*
Y433858D01*
X280906Y399213D02*
Y433858D01*
Y399213D02*
X293110D01*
X280906Y433858D02*
X293110D01*
X428937Y302756D02*
Y337402D01*
X416732Y302756D02*
Y337402D01*
Y302756D02*
X428937D01*
X416732Y337402D02*
X428937D01*
X285630Y196063D02*
Y230709D01*
X273425Y196063D02*
Y230709D01*
Y196063D02*
X285630D01*
X273425Y230709D02*
X285630D01*
X312795Y186653D02*
Y189016D01*
X301378D02*
X312795D01*
X301378Y186653D02*
Y189016D01*
Y186653D02*
X312795D01*
X426181Y198031D02*
Y232677D01*
X413976Y198031D02*
Y232677D01*
Y198031D02*
X426181D01*
X413976Y232677D02*
X426181D01*
X449409Y189016D02*
Y191378D01*
X437992D02*
X449409D01*
X437992Y189016D02*
Y191378D01*
Y189016D02*
X449409D01*
X660728Y265354D02*
X665256D01*
X618996Y264173D02*
X623524D01*
X659055Y446850D02*
Y451575D01*
X655118Y480709D02*
Y482677D01*
X653150D02*
X655118D01*
Y462992D02*
Y464961D01*
X653150Y462992D02*
X655118D01*
X635433Y480709D02*
Y482677D01*
X637402D01*
X635433Y464567D02*
Y464961D01*
Y464567D02*
X637008Y462992D01*
X637402D01*
X610433Y310354D02*
Y314291D01*
Y310354D02*
X636024D01*
Y314291D01*
X674142Y295654D02*
X678079Y299591D01*
Y312583D01*
X661150Y299591D02*
Y312583D01*
X674142D02*
X678079D01*
X661150D02*
X665087D01*
X661150Y299591D02*
X665087Y295654D01*
X626870Y264173D02*
X631398D01*
X719685Y480984D02*
X728150D01*
X690945Y447362D02*
Y451496D01*
X719685Y447362D02*
X728150D01*
X700984D02*
X711024D01*
X690945D02*
X692520D01*
X690945Y481654D02*
X692520D01*
X700984D02*
X711024D01*
X690945Y477520D02*
Y481654D01*
X278150Y444882D02*
X289567D01*
X278150D02*
Y447244D01*
X289567D01*
Y444882D02*
Y447244D01*
X441535Y405512D02*
X452953D01*
X441535D02*
Y407874D01*
X452953D01*
Y405512D02*
Y407874D01*
X417007Y358268D02*
Y369685D01*
X419369D01*
Y358268D02*
Y369685D01*
X417007Y358268D02*
X419369D01*
X257362Y338386D02*
Y349803D01*
X259724D01*
Y338386D02*
Y349803D01*
X257362Y338386D02*
X259724D01*
X524682Y349819D02*
X536099D01*
X524682D02*
Y352181D01*
X536099D01*
Y349819D02*
Y352181D01*
X577362Y233465D02*
X588779D01*
Y231102D02*
Y233465D01*
X577362Y231102D02*
X588779D01*
X577362D02*
Y233465D01*
X590748Y302953D02*
X594685Y306890D01*
X590748Y289961D02*
Y302953D01*
X607677Y289961D02*
Y302953D01*
X590748Y289961D02*
X594685D01*
X603740D02*
X607677D01*
X603740Y306890D02*
X607677Y302953D01*
X516874Y406374D02*
X551126D01*
X516874Y440626D02*
X551126D01*
X516874Y406374D02*
Y440626D01*
X551126Y406374D02*
Y440626D01*
X327756Y397244D02*
Y431890D01*
X339961Y397244D02*
Y431890D01*
X327756D02*
X339961D01*
X327756Y397244D02*
X339961D01*
X513500Y459000D02*
Y479000D01*
X483500Y459000D02*
Y479000D01*
X513500D01*
X483500Y459000D02*
X513500D01*
X494333D02*
X513500D01*
X414764Y441339D02*
X426968D01*
X414764Y406693D02*
X426968D01*
X414764D02*
Y441339D01*
X426968Y406693D02*
Y441339D01*
X538035Y381472D02*
X541972Y377535D01*
X554965D01*
X541972Y394465D02*
X554965D01*
Y377535D02*
Y381472D01*
Y390528D02*
Y394465D01*
X538035Y390528D02*
X541972Y394465D01*
X539764Y209055D02*
Y216929D01*
X505118Y209055D02*
Y216929D01*
X539764D01*
X505118Y209055D02*
X539764D01*
X505276Y184291D02*
X509213Y188228D01*
X505276Y171299D02*
Y184291D01*
X522205Y171299D02*
Y184291D01*
X505276Y171299D02*
X509213D01*
X518268D02*
X522205D01*
X518268Y188228D02*
X522205Y184291D01*
X475394Y183661D02*
X479331Y179724D01*
X475394Y166732D02*
X479331D01*
X462402D02*
X466339D01*
X479331D02*
Y179724D01*
X462402Y166732D02*
Y179724D01*
X466339Y183661D01*
X549803Y235039D02*
X562008D01*
X549803Y200394D02*
X562008D01*
X549803D02*
Y235039D01*
X562008Y200394D02*
Y235039D01*
X570118Y175945D02*
Y195945D01*
X540118Y175945D02*
Y195945D01*
X570118D01*
X540118Y175945D02*
X570118D01*
X550951D02*
X570118D01*
X403937Y206693D02*
Y214567D01*
X369291Y206693D02*
Y214567D01*
X403937D01*
X369291Y206693D02*
X403937D01*
X434291Y173583D02*
Y193583D01*
X404291Y173583D02*
Y193583D01*
X434291D01*
X404291Y173583D02*
X434291D01*
X415125D02*
X434291D01*
X339567Y181299D02*
X343504Y177362D01*
X339567Y164370D02*
X343504D01*
X326575D02*
X330512D01*
X343504D02*
Y177362D01*
X326575Y164370D02*
Y177362D01*
X330512Y181299D01*
X369882Y180905D02*
X373819Y184843D01*
X369882Y167913D02*
Y180905D01*
X386811Y167913D02*
Y180905D01*
X369882Y167913D02*
X373819D01*
X382874D02*
X386811D01*
X382874Y184843D02*
X386811Y180905D01*
X544488Y315748D02*
Y323622D01*
X509842Y315748D02*
Y323622D01*
X544488D01*
X509842Y315748D02*
X544488D01*
X574843Y282638D02*
Y302638D01*
X544842Y282638D02*
Y302638D01*
X574843D01*
X544842Y282638D02*
X574843D01*
X555676D02*
X574843D01*
X554528Y341732D02*
X566732D01*
X554528Y307087D02*
X566732D01*
X554528D02*
Y341732D01*
X566732Y307087D02*
Y341732D01*
X460433Y286882D02*
X464370Y290819D01*
X477362Y286882D02*
Y290819D01*
Y273890D02*
Y277827D01*
X464370Y290819D02*
X477362D01*
X464370Y273890D02*
X477362D01*
X460433Y277827D02*
X464370Y273890D01*
X510433Y290158D02*
X514370Y294094D01*
X510433Y277165D02*
Y290158D01*
X527362Y277165D02*
Y290158D01*
X510433Y277165D02*
X514370D01*
X523425D02*
X527362D01*
X523425Y294094D02*
X527362Y290158D01*
X232087Y287992D02*
X236024Y291929D01*
X232087Y275000D02*
Y287992D01*
X249016Y275000D02*
Y287992D01*
X232087Y275000D02*
X236024D01*
X245079D02*
X249016D01*
X245079Y291929D02*
X249016Y287992D01*
X201772Y287205D02*
X205709Y283268D01*
X201772Y270276D02*
X205709D01*
X188779D02*
X192717D01*
X205709D02*
Y283268D01*
X188779Y270276D02*
Y283268D01*
X192717Y287205D01*
X276181Y338583D02*
X288386D01*
X276181Y303937D02*
X288386D01*
X276181D02*
Y338583D01*
X288386Y303937D02*
Y338583D01*
X296500Y279500D02*
Y299500D01*
X266500Y279500D02*
Y299500D01*
X296500D01*
X266500Y279500D02*
X296500D01*
X277333D02*
X296500D01*
X266142Y312598D02*
Y320472D01*
X231496Y312598D02*
Y320472D01*
X266142D01*
X231496Y312598D02*
X266142D01*
X263386Y204724D02*
Y212598D01*
X228740Y204724D02*
Y212598D01*
X263386D01*
X228740Y204724D02*
X263386D01*
X199016Y179331D02*
X202953Y175394D01*
X199016Y162402D02*
X202953D01*
X186024D02*
X189961D01*
X202953D02*
Y175394D01*
X186024Y162402D02*
Y175394D01*
X189961Y179331D01*
X228937Y180118D02*
X232874Y184055D01*
X228937Y167126D02*
Y180118D01*
X245866Y167126D02*
Y180118D01*
X228937Y167126D02*
X232874D01*
X241929D02*
X245866D01*
X241929Y184055D02*
X245866Y180118D01*
X293740Y171614D02*
Y191614D01*
X263740Y171614D02*
Y191614D01*
X293740D01*
X263740Y171614D02*
X293740D01*
X274573D02*
X293740D01*
X406693Y311417D02*
Y319291D01*
X372047Y311417D02*
Y319291D01*
X406693D01*
X372047Y311417D02*
X406693D01*
X437047Y278307D02*
Y298307D01*
X407047Y278307D02*
Y298307D01*
X437047D01*
X407047Y278307D02*
X437047D01*
X417881D02*
X437047D01*
X342323Y286024D02*
X346260Y282087D01*
X342323Y269094D02*
X346260D01*
X329331D02*
X333268D01*
X346260D02*
Y282087D01*
X329331Y269094D02*
Y282087D01*
X333268Y286024D01*
X373150Y286024D02*
X377087Y289961D01*
X373150Y273031D02*
Y286024D01*
X390079Y273031D02*
Y286024D01*
X373150Y273031D02*
X377087D01*
X386142D02*
X390079D01*
X386142Y289961D02*
X390079Y286024D01*
X372205Y389638D02*
X376142Y393575D01*
X372205Y376646D02*
Y389638D01*
X389134Y376646D02*
Y389638D01*
X372205Y376646D02*
X376142D01*
X385197D02*
X389134D01*
X385197Y393575D02*
X389134Y389638D01*
X340354Y389961D02*
X344291Y386024D01*
X340354Y373031D02*
X344291D01*
X327362D02*
X331299D01*
X344291D02*
Y386024D01*
X327362Y373031D02*
Y386024D01*
X331299Y389961D01*
X435079Y382244D02*
Y402244D01*
X405079Y382244D02*
Y402244D01*
X435079D01*
X405079Y382244D02*
X435079D01*
X415912D02*
X435079D01*
X404724Y415354D02*
Y423228D01*
X370079Y415354D02*
Y423228D01*
X404724D01*
X370079Y415354D02*
X404724D01*
X237598Y382157D02*
X241535Y386094D01*
X237598Y369165D02*
Y382157D01*
X254528Y369165D02*
Y382157D01*
X237598Y369165D02*
X241535D01*
X250590D02*
X254528D01*
X250590Y386094D02*
X254528Y382157D01*
X206496Y382480D02*
X210433Y378543D01*
X206496Y365551D02*
X210433D01*
X193504D02*
X197441D01*
X210433D02*
Y378543D01*
X193504Y365551D02*
Y378543D01*
X197441Y382480D01*
X301220Y374764D02*
Y394764D01*
X271220Y374764D02*
Y394764D01*
X301220D01*
X271220Y374764D02*
X301220D01*
X282054D02*
X301220D01*
X270866Y407874D02*
Y415748D01*
X236221Y407874D02*
Y415748D01*
X270866D01*
X236221Y407874D02*
X270866D01*
X462795Y190945D02*
Y225590D01*
X475000Y190945D02*
Y225590D01*
X462795D02*
X475000D01*
X462795Y190945D02*
X475000D01*
X186417Y186614D02*
Y221260D01*
X198622Y186614D02*
Y221260D01*
X186417D02*
X198622D01*
X186417Y186614D02*
X198622D01*
X329724Y293307D02*
Y327953D01*
X341929Y293307D02*
Y327953D01*
X329724D02*
X341929D01*
X329724Y293307D02*
X341929D01*
X326969Y188583D02*
Y223228D01*
X339173Y188583D02*
Y223228D01*
X326969D02*
X339173D01*
X326969Y188583D02*
X339173D01*
X467520Y297638D02*
Y332283D01*
X479724Y297638D02*
Y332283D01*
X467520D02*
X479724D01*
X467520Y297638D02*
X479724D01*
X650098Y329035D02*
X654035Y332972D01*
Y345965D01*
X637106Y332972D02*
Y345965D01*
X650098D02*
X654035D01*
X637106D02*
X641043D01*
X637106Y332972D02*
X641043Y329035D01*
X603346Y390748D02*
X607283Y394685D01*
Y407677D01*
X590354Y394685D02*
Y407677D01*
X603346D02*
X607283D01*
X590354D02*
X594291D01*
X590354Y394685D02*
X594291Y390748D01*
X688189Y371807D02*
Y375350D01*
Y361807D02*
Y365350D01*
X688189Y349208D02*
Y353933D01*
X712441Y368795D02*
Y371158D01*
Y374012D02*
Y376374D01*
Y364661D02*
Y367024D01*
Y360626D02*
Y362496D01*
Y360626D02*
X714330D01*
X712441Y376374D02*
X714330D01*
X701811Y362693D02*
Y364268D01*
Y372732D02*
Y374209D01*
Y383067D02*
Y387791D01*
Y349208D02*
Y353933D01*
X711063Y349208D02*
X714330Y352476D01*
X713228Y349208D02*
X714330Y350310D01*
X712146Y349208D02*
X714330Y351393D01*
X688189Y349208D02*
X714330D01*
X688189Y383067D02*
Y387791D01*
X714330D01*
Y349208D02*
Y387791D01*
X654134Y296654D02*
X658071Y300591D01*
Y313583D01*
X641142Y300591D02*
Y313583D01*
X654134D02*
X658071D01*
X641142D02*
X645079D01*
X641142Y300591D02*
X645079Y296654D01*
X669095Y465059D02*
X680512D01*
Y462500D02*
Y465059D01*
X669095Y462500D02*
X680512D01*
X669095D02*
Y465059D01*
X487512Y412705D02*
Y438295D01*
X468614Y412705D02*
Y438295D01*
X470583Y412858D02*
Y438295D01*
X485543D02*
X485543Y412705D01*
X468417Y402665D02*
Y448335D01*
X487709Y402665D02*
Y448335D01*
X483968D02*
X487709D01*
X468417D02*
X472157D01*
X468417Y402665D02*
X472157D01*
X483968D02*
X487709D01*
X512591Y236647D02*
Y237435D01*
X499992Y236647D02*
X512591D01*
X499992D02*
Y237435D01*
X512591Y255545D02*
Y256332D01*
X499992D02*
X512591D01*
X499992Y255545D02*
Y256332D01*
X512591Y245702D02*
Y247277D01*
X499992Y245702D02*
Y247277D01*
X610039Y259988D02*
X613976Y256051D01*
X610039Y243059D02*
X613976D01*
X597047D02*
X600984D01*
X613976D02*
Y256051D01*
X597047Y243059D02*
Y256051D01*
X600984Y259988D01*
X147073Y187843D02*
X146417Y188499D01*
X145105D01*
X144449Y187843D01*
Y185219D01*
X145105Y184563D01*
X146417D01*
X147073Y185219D01*
X144449Y194563D02*
Y197187D01*
X145761Y198499D01*
X147073Y197187D01*
Y194563D01*
Y196531D01*
X144449D01*
X106374Y189760D02*
X103750D01*
X102438Y191072D01*
X103750Y192384D01*
X106374D01*
X104406D01*
Y189760D01*
X112438D02*
X116374D01*
Y191728D01*
X115718Y192384D01*
X115062D01*
X114406Y191728D01*
Y189760D01*
Y191728D01*
X113750Y192384D01*
X113094D01*
X112438Y191728D01*
Y189760D01*
X123094Y192384D02*
X122438Y191728D01*
Y190416D01*
X123094Y189760D01*
X125718D01*
X126374Y190416D01*
Y191728D01*
X125718Y192384D01*
X132438Y189760D02*
X136374D01*
Y191728D01*
X135718Y192384D01*
X133094D01*
X132438Y191728D01*
Y189760D01*
X147033Y483000D02*
X146377Y483656D01*
X145065D01*
X144409Y483000D01*
Y480376D01*
X145065Y479720D01*
X146377D01*
X147033Y480376D01*
X144409Y489720D02*
Y492344D01*
X145721Y493656D01*
X147033Y492344D01*
Y489720D01*
Y491688D01*
X144409D01*
X106335Y484917D02*
X103711D01*
X102399Y486229D01*
X103711Y487541D01*
X106335D01*
X104367D01*
Y484917D01*
X112399D02*
X116335D01*
Y486885D01*
X115679Y487541D01*
X115023D01*
X114367Y486885D01*
Y484917D01*
Y486885D01*
X113711Y487541D01*
X113055D01*
X112399Y486885D01*
Y484917D01*
X123055Y487541D02*
X122399Y486885D01*
Y485573D01*
X123055Y484917D01*
X125679D01*
X126335Y485573D01*
Y486885D01*
X125679Y487541D01*
X132399Y484917D02*
X136335D01*
Y486885D01*
X135679Y487541D01*
X133055D01*
X132399Y486885D01*
Y484917D01*
X611417Y179133D02*
X613385Y175197D01*
X615353Y179133D01*
X621257Y175197D02*
X617321D01*
X621257Y179133D01*
Y180116D01*
X620273Y181100D01*
X618305D01*
X617321Y180116D01*
X623224Y175197D02*
Y176181D01*
X624208D01*
Y175197D01*
X623224D01*
X628144Y180116D02*
X629128Y181100D01*
X631096D01*
X632080Y180116D01*
Y176181D01*
X631096Y175197D01*
X629128D01*
X628144Y176181D01*
Y180116D01*
X639951Y181100D02*
Y175197D01*
X641919Y177165D01*
X643887Y175197D01*
Y181100D01*
X645855D02*
Y176181D01*
X646839Y175197D01*
X648807D01*
X649791Y176181D01*
Y181100D01*
X651759D02*
X655694D01*
X653726D01*
Y175197D01*
X667501D02*
X663566D01*
X667501Y179133D01*
Y180116D01*
X666518Y181100D01*
X664550D01*
X663566Y180116D01*
X669469D02*
X670453Y181100D01*
X672421D01*
X673405Y180116D01*
Y176181D01*
X672421Y175197D01*
X670453D01*
X669469Y176181D01*
Y180116D01*
X675373Y175197D02*
X677341D01*
X676357D01*
Y181100D01*
X675373Y180116D01*
X680293Y176181D02*
X681277Y175197D01*
X683245D01*
X684228Y176181D01*
Y180116D01*
X683245Y181100D01*
X681277D01*
X680293Y180116D01*
Y179133D01*
X681277Y178149D01*
X684228D01*
X584290Y192754D02*
X585274Y193738D01*
X587242D01*
X588226Y192754D01*
Y191770D01*
X587242Y190786D01*
X588226Y189803D01*
Y188819D01*
X587242Y187835D01*
X585274D01*
X584290Y188819D01*
Y189803D01*
X585274Y190786D01*
X584290Y191770D01*
Y192754D01*
X585274Y190786D02*
X587242D01*
X600033Y191770D02*
X597081D01*
X596097Y190786D01*
Y188819D01*
X597081Y187835D01*
X600033D01*
X602001Y193738D02*
Y187835D01*
Y190786D01*
X602985Y191770D01*
X604952D01*
X605936Y190786D01*
Y187835D01*
X608888Y191770D02*
X610856D01*
X611840Y190786D01*
Y187835D01*
X608888D01*
X607904Y188819D01*
X608888Y189803D01*
X611840D01*
X613808Y187835D02*
Y191770D01*
X616760D01*
X617743Y190786D01*
Y187835D01*
X619711D02*
Y191770D01*
X622663D01*
X623647Y190786D01*
Y187835D01*
X628567D02*
X626599D01*
X625615Y188819D01*
Y190786D01*
X626599Y191770D01*
X628567D01*
X629551Y190786D01*
Y189803D01*
X625615D01*
X631519Y187835D02*
X633486D01*
X632503D01*
Y193738D01*
X631519D01*
X642342Y187835D02*
Y193738D01*
X645294D01*
X646278Y192754D01*
Y190786D01*
X645294Y189803D01*
X642342D01*
X644310D02*
X646278Y187835D01*
X652181Y193738D02*
X648245D01*
Y190786D01*
X650213D01*
X648245D01*
Y187835D01*
X654149Y193738D02*
X656117D01*
X655133D01*
Y187835D01*
X654149D01*
X656117D01*
X659069Y193738D02*
Y187835D01*
X662020D01*
X663004Y188819D01*
Y192754D01*
X662020Y193738D01*
X659069D01*
X674812Y191770D02*
X671860D01*
X670876Y190786D01*
Y188819D01*
X671860Y187835D01*
X674812D01*
X677763D02*
X679731D01*
X680715Y188819D01*
Y190786D01*
X679731Y191770D01*
X677763D01*
X676780Y190786D01*
Y188819D01*
X677763Y187835D01*
X682683D02*
Y191770D01*
X685635D01*
X686619Y190786D01*
Y187835D01*
X689571Y192754D02*
Y191770D01*
X688587D01*
X690555D01*
X689571D01*
Y188819D01*
X690555Y187835D01*
X693506Y191770D02*
Y187835D01*
Y189803D01*
X694490Y190786D01*
X695474Y191770D01*
X696458D01*
X700394Y187835D02*
X702362D01*
X703346Y188819D01*
Y190786D01*
X702362Y191770D01*
X700394D01*
X699410Y190786D01*
Y188819D01*
X700394Y187835D01*
X705314D02*
X707281D01*
X706297D01*
Y193738D01*
X705314D01*
X710233Y187835D02*
X712201D01*
X711217D01*
Y193738D01*
X710233D01*
X718105Y187835D02*
X716137D01*
X715153Y188819D01*
Y190786D01*
X716137Y191770D01*
X718105D01*
X719089Y190786D01*
Y189803D01*
X715153D01*
X721057Y191770D02*
Y187835D01*
Y189803D01*
X722040Y190786D01*
X723024Y191770D01*
X724008D01*
D13*
X654276Y269417D02*
G03*
X654276Y269417I-500J0D01*
G01*
D14*
X521992Y410311D02*
G03*
X521992Y410311I-1181J0D01*
G01*
D15*
X653543Y267520D02*
X655512D01*
X653776Y255315D02*
X655512D01*
X635827Y267520D02*
X637512D01*
X635827Y255315D02*
X637512D01*
D16*
X741535Y241339D02*
Y253543D01*
Y267717D01*
Y235827D02*
Y253543D01*
X682874Y235827D02*
X741535D01*
X682874D02*
Y271260D01*
X690748D01*
X708071D02*
X741535D01*
Y266929D02*
Y271260D01*
X727756D02*
X741535D01*
X727756Y235827D02*
Y271260D01*
X185827Y430314D02*
Y428018D01*
X186286Y427559D01*
X187204D01*
X187663Y428018D01*
Y430314D01*
X188582Y429855D02*
X189041Y430314D01*
X189959D01*
X190419Y429855D01*
Y429396D01*
X189959Y428937D01*
X189500D01*
X189959D01*
X190419Y428477D01*
Y428018D01*
X189959Y427559D01*
X189041D01*
X188582Y428018D01*
X191337Y430314D02*
Y427559D01*
Y428937D01*
X193174D01*
Y430314D01*
Y427559D01*
X516337Y474755D02*
X515418Y474296D01*
X514500Y473378D01*
Y472459D01*
X514959Y472000D01*
X515877D01*
X516337Y472459D01*
Y472918D01*
X515877Y473378D01*
X514500D01*
X516337Y464755D02*
X514500D01*
Y463378D01*
X515418Y463837D01*
X515877D01*
X516337Y463378D01*
Y462459D01*
X515877Y462000D01*
X514959D01*
X514500Y462459D01*
X480337Y472000D02*
X478500D01*
X480337Y473837D01*
Y474296D01*
X479878Y474755D01*
X478959D01*
X478500Y474296D01*
X480500Y462000D02*
X481418D01*
X480959D01*
Y464755D01*
X480500Y464296D01*
X572955Y191700D02*
X572036Y191241D01*
X571118Y190322D01*
Y189404D01*
X571577Y188945D01*
X572496D01*
X572955Y189404D01*
Y189863D01*
X572496Y190322D01*
X571118D01*
X572955Y181700D02*
X571118D01*
Y180322D01*
X572036Y180782D01*
X572496D01*
X572955Y180322D01*
Y179404D01*
X572496Y178945D01*
X571577D01*
X571118Y179404D01*
X538293Y188976D02*
X536457D01*
X538293Y190813D01*
Y191272D01*
X537834Y191731D01*
X536916D01*
X536457Y191272D01*
X537118Y178945D02*
X538036D01*
X537577D01*
Y181700D01*
X537118Y181241D01*
X437128Y189338D02*
X436210Y188879D01*
X435291Y187960D01*
Y187042D01*
X435750Y186583D01*
X436669D01*
X437128Y187042D01*
Y187501D01*
X436669Y187960D01*
X435291D01*
X437128Y179338D02*
X435291D01*
Y177960D01*
X436210Y178419D01*
X436669D01*
X437128Y177960D01*
Y177042D01*
X436669Y176583D01*
X435750D01*
X435291Y177042D01*
X402467Y186614D02*
X400630D01*
X402467Y188451D01*
Y188910D01*
X402007Y189369D01*
X401089D01*
X400630Y188910D01*
X401291Y176583D02*
X402210D01*
X401751D01*
Y179338D01*
X401291Y178878D01*
X577679Y298393D02*
X576761Y297934D01*
X575843Y297015D01*
Y296097D01*
X576302Y295638D01*
X577220D01*
X577679Y296097D01*
Y296556D01*
X577220Y297015D01*
X575843D01*
X577679Y288393D02*
X575843D01*
Y287015D01*
X576761Y287474D01*
X577220D01*
X577679Y287015D01*
Y286097D01*
X577220Y285638D01*
X576302D01*
X575843Y286097D01*
X543018Y295669D02*
X541181D01*
X543018Y297506D01*
Y297965D01*
X542559Y298424D01*
X541640D01*
X541181Y297965D01*
X541843Y285638D02*
X542761D01*
X542302D01*
Y288393D01*
X541843Y287934D01*
X299337Y295255D02*
X298418Y294796D01*
X297500Y293878D01*
Y292959D01*
X297959Y292500D01*
X298878D01*
X299337Y292959D01*
Y293418D01*
X298878Y293878D01*
X297500D01*
X299337Y285255D02*
X297500D01*
Y283877D01*
X298418Y284337D01*
X298878D01*
X299337Y283877D01*
Y282959D01*
X298878Y282500D01*
X297959D01*
X297500Y282959D01*
X264675Y292531D02*
X262839D01*
X264675Y294368D01*
Y294827D01*
X264216Y295286D01*
X263298D01*
X262839Y294827D01*
X263500Y282500D02*
X264418D01*
X263959D01*
Y285255D01*
X263500Y284796D01*
X296577Y187369D02*
X295658Y186910D01*
X294740Y185992D01*
Y185073D01*
X295199Y184614D01*
X296118D01*
X296577Y185073D01*
Y185532D01*
X296118Y185992D01*
X294740D01*
X296577Y177369D02*
X294740D01*
Y175992D01*
X295658Y176451D01*
X296118D01*
X296577Y175992D01*
Y175073D01*
X296118Y174614D01*
X295199D01*
X294740Y175073D01*
X261915Y184646D02*
X260079D01*
X261915Y186482D01*
Y186942D01*
X261456Y187401D01*
X260538D01*
X260079Y186942D01*
X260740Y174614D02*
X261659D01*
X261199D01*
Y177369D01*
X260740Y176910D01*
X439884Y294062D02*
X438966Y293603D01*
X438047Y292685D01*
Y291766D01*
X438506Y291307D01*
X439425D01*
X439884Y291766D01*
Y292225D01*
X439425Y292685D01*
X438047D01*
X439884Y284062D02*
X438047D01*
Y282685D01*
X438966Y283144D01*
X439425D01*
X439884Y282685D01*
Y281766D01*
X439425Y281307D01*
X438506D01*
X438047Y281766D01*
X405223Y291339D02*
X403386D01*
X405223Y293175D01*
Y293634D01*
X404763Y294094D01*
X403845D01*
X403386Y293634D01*
X404047Y281307D02*
X404966D01*
X404506D01*
Y284062D01*
X404047Y283603D01*
X437915Y397999D02*
X436997Y397540D01*
X436079Y396622D01*
Y395703D01*
X436538Y395244D01*
X437456D01*
X437915Y395703D01*
Y396162D01*
X437456Y396622D01*
X436079D01*
X437915Y387999D02*
X436079D01*
Y386622D01*
X436997Y387081D01*
X437456D01*
X437915Y386622D01*
Y385703D01*
X437456Y385244D01*
X436538D01*
X436079Y385703D01*
X403254Y395276D02*
X401417D01*
X403254Y397112D01*
Y397571D01*
X402795Y398031D01*
X401876D01*
X401417Y397571D01*
X402079Y385244D02*
X402997D01*
X402538D01*
Y387999D01*
X402079Y387540D01*
X304057Y390519D02*
X303139Y390060D01*
X302221Y389141D01*
Y388223D01*
X302680Y387764D01*
X303598D01*
X304057Y388223D01*
Y388682D01*
X303598Y389141D01*
X302221D01*
X304057Y380519D02*
X302221D01*
Y379141D01*
X303139Y379601D01*
X303598D01*
X304057Y379141D01*
Y378223D01*
X303598Y377764D01*
X302680D01*
X302221Y378223D01*
X269396Y387795D02*
X267559D01*
X269396Y389632D01*
Y390091D01*
X268937Y390550D01*
X268018D01*
X267559Y390091D01*
X268220Y377764D02*
X269139D01*
X268680D01*
Y380519D01*
X268220Y380060D01*
X126091Y178051D02*
Y175296D01*
X127927D01*
X128846Y178051D02*
Y175296D01*
X130223D01*
X130682Y175755D01*
Y177592D01*
X130223Y178051D01*
X128846D01*
X131601Y175296D02*
X132519D01*
X132060D01*
Y178051D01*
X131601Y177592D01*
X126929Y503358D02*
Y500603D01*
X128766D01*
X129684Y503358D02*
Y500603D01*
X131062D01*
X131521Y501062D01*
Y502899D01*
X131062Y503358D01*
X129684D01*
X134276Y500603D02*
X132439D01*
X134276Y502440D01*
Y502899D01*
X133817Y503358D01*
X132898D01*
X132439Y502899D01*
X276400Y459155D02*
X278237D01*
X277318D01*
Y456400D01*
X279155D02*
X280073D01*
X279614D01*
Y459155D01*
X279155Y458696D01*
X281451Y459155D02*
Y456400D01*
Y457778D01*
X283288D01*
Y459155D01*
Y456400D01*
X439800Y419855D02*
X441637D01*
X440718D01*
Y417100D01*
X442555D02*
X443473D01*
X443014D01*
Y419855D01*
X442555Y419396D01*
X446688D02*
X446228Y419855D01*
X445310D01*
X444851Y419396D01*
Y417559D01*
X445310Y417100D01*
X446228D01*
X446688Y417559D01*
Y418477D01*
X445769D01*
X411000Y377355D02*
X412837D01*
X411918D01*
Y374600D01*
X413755D02*
X414673D01*
X414214D01*
Y377355D01*
X413755Y376896D01*
X417888Y377355D02*
X416051D01*
Y375977D01*
X416969D01*
X416051D01*
Y374600D01*
X251400Y357555D02*
X253237D01*
X252318D01*
Y354800D01*
X254155D02*
X255073D01*
X254614D01*
Y357555D01*
X254155Y357096D01*
X258288Y357555D02*
X256451D01*
Y354800D01*
X258288D01*
X256451Y356177D02*
X257369D01*
X296851Y188000D02*
Y189837D01*
Y188918D01*
X299606D01*
Y190755D02*
Y191673D01*
Y191214D01*
X296851D01*
X297310Y190755D01*
X296851Y193051D02*
X299606D01*
Y194428D01*
X299147Y194888D01*
X297310D01*
X296851Y194428D01*
Y193051D01*
X439961Y179133D02*
X441797D01*
X440879D01*
Y176378D01*
X442716D02*
X443634D01*
X443175D01*
Y179133D01*
X442716Y178674D01*
X446848D02*
X446389Y179133D01*
X445471D01*
X445012Y178674D01*
Y176837D01*
X445471Y176378D01*
X446389D01*
X446848Y176837D01*
X522900Y364155D02*
X524737D01*
X523818D01*
Y361400D01*
X525655D02*
X526573D01*
X526114D01*
Y364155D01*
X525655Y363696D01*
X527951Y364155D02*
Y361400D01*
X529328D01*
X529788Y361859D01*
Y362318D01*
X529328Y362777D01*
X527951D01*
X529328D01*
X529788Y363237D01*
Y363696D01*
X529328Y364155D01*
X527951D01*
X576700Y245355D02*
X578537D01*
X577618D01*
Y242600D01*
X579455D02*
X580373D01*
X579914D01*
Y245355D01*
X579455Y244896D01*
X581751Y242600D02*
Y244437D01*
X582669Y245355D01*
X583588Y244437D01*
Y242600D01*
Y243977D01*
X581751D01*
X209842Y433071D02*
Y435826D01*
X211220D01*
X211679Y435367D01*
Y434448D01*
X211220Y433989D01*
X209842D01*
X210761D02*
X211679Y433071D01*
X214434D02*
X212597D01*
X214434Y434907D01*
Y435367D01*
X213975Y435826D01*
X213057D01*
X212597Y435367D01*
X216730Y433071D02*
Y435826D01*
X215353Y434448D01*
X217189D01*
X218108Y435826D02*
Y433071D01*
Y434448D01*
X219944D01*
Y435826D01*
Y433071D01*
X342600Y442500D02*
Y445255D01*
X343977D01*
X344437Y444796D01*
Y443878D01*
X343977Y443418D01*
X342600D01*
X343518D02*
X344437Y442500D01*
X347192D02*
X345355D01*
X347192Y444337D01*
Y444796D01*
X346732Y445255D01*
X345814D01*
X345355Y444796D01*
X349488Y442500D02*
Y445255D01*
X348110Y443878D01*
X349947D01*
X352702Y444796D02*
X352243Y445255D01*
X351324D01*
X350865Y444796D01*
Y442959D01*
X351324Y442500D01*
X352243D01*
X352702Y442959D01*
Y443878D01*
X351783D01*
X350972Y332677D02*
Y335432D01*
X352350D01*
X352809Y334973D01*
Y334055D01*
X352350Y333595D01*
X350972D01*
X351891D02*
X352809Y332677D01*
X355564D02*
X353728D01*
X355564Y334514D01*
Y334973D01*
X355105Y335432D01*
X354187D01*
X353728Y334973D01*
X357860Y332677D02*
Y335432D01*
X356483Y334055D01*
X358319D01*
X361074Y335432D02*
X359238D01*
Y334055D01*
X360156D01*
X359238D01*
Y332677D01*
X203937Y338386D02*
Y341141D01*
X205314D01*
X205774Y340682D01*
Y339763D01*
X205314Y339304D01*
X203937D01*
X204855D02*
X205774Y338386D01*
X208529D02*
X206692D01*
X208529Y340223D01*
Y340682D01*
X208069Y341141D01*
X207151D01*
X206692Y340682D01*
X210825Y338386D02*
Y341141D01*
X209447Y339763D01*
X211284D01*
X214039Y341141D02*
X212202D01*
Y338386D01*
X214039D01*
X212202Y339763D02*
X213120D01*
X202362Y230315D02*
Y233070D01*
X203740D01*
X204199Y232611D01*
Y231693D01*
X203740Y231233D01*
X202362D01*
X203280D02*
X204199Y230315D01*
X206954D02*
X205117D01*
X206954Y232152D01*
Y232611D01*
X206495Y233070D01*
X205576D01*
X205117Y232611D01*
X209250Y230315D02*
Y233070D01*
X207872Y231693D01*
X209709D01*
X210627Y233070D02*
Y230315D01*
X212005D01*
X212464Y230774D01*
Y232611D01*
X212005Y233070D01*
X210627D01*
X341929Y232716D02*
Y235472D01*
X343307D01*
X343766Y235012D01*
Y234094D01*
X343307Y233635D01*
X341929D01*
X342847D02*
X343766Y232716D01*
X346521D02*
X344684D01*
X346521Y234553D01*
Y235012D01*
X346062Y235472D01*
X345143D01*
X344684Y235012D01*
X348817Y232716D02*
Y235472D01*
X347439Y234094D01*
X349276D01*
X352031Y235012D02*
X351572Y235472D01*
X350653D01*
X350194Y235012D01*
Y233176D01*
X350653Y232716D01*
X351572D01*
X352031Y233176D01*
X481600Y342800D02*
Y345555D01*
X482977D01*
X483437Y345096D01*
Y344178D01*
X482977Y343718D01*
X481600D01*
X482518D02*
X483437Y342800D01*
X486192D02*
X484355D01*
X486192Y344637D01*
Y345096D01*
X485733Y345555D01*
X484814D01*
X484355Y345096D01*
X488488Y342800D02*
Y345555D01*
X487110Y344178D01*
X488947D01*
X489865Y345555D02*
Y342800D01*
X491243D01*
X491702Y343259D01*
Y343718D01*
X491243Y344178D01*
X489865D01*
X491243D01*
X491702Y344637D01*
Y345096D01*
X491243Y345555D01*
X489865D01*
X477362Y234252D02*
Y237007D01*
X478740D01*
X479199Y236548D01*
Y235630D01*
X478740Y235170D01*
X477362D01*
X478281D02*
X479199Y234252D01*
X481954D02*
X480117D01*
X481954Y236089D01*
Y236548D01*
X481495Y237007D01*
X480576D01*
X480117Y236548D01*
X484250Y234252D02*
Y237007D01*
X482872Y235630D01*
X484709D01*
X485627Y234252D02*
Y236089D01*
X486546Y237007D01*
X487464Y236089D01*
Y234252D01*
Y235630D01*
X485627D01*
X168898Y431890D02*
Y434645D01*
X170275D01*
X170734Y434186D01*
Y433267D01*
X170275Y432808D01*
X168898D01*
X169816D02*
X170734Y431890D01*
X173489D02*
X171653D01*
X173489Y433726D01*
Y434186D01*
X173030Y434645D01*
X172112D01*
X171653Y434186D01*
X174408D02*
X174867Y434645D01*
X175785D01*
X176244Y434186D01*
Y433726D01*
X175785Y433267D01*
X175326D01*
X175785D01*
X176244Y432808D01*
Y432349D01*
X175785Y431890D01*
X174867D01*
X174408Y432349D01*
X177163Y434645D02*
Y431890D01*
Y433267D01*
X178999D01*
Y434645D01*
Y431890D01*
X313011Y444882D02*
Y447637D01*
X314389D01*
X314848Y447178D01*
Y446259D01*
X314389Y445800D01*
X313011D01*
X313930D02*
X314848Y444882D01*
X317603D02*
X315766D01*
X317603Y446719D01*
Y447178D01*
X317144Y447637D01*
X316225D01*
X315766Y447178D01*
X318521D02*
X318980Y447637D01*
X319899D01*
X320358Y447178D01*
Y446719D01*
X319899Y446259D01*
X319440D01*
X319899D01*
X320358Y445800D01*
Y445341D01*
X319899Y444882D01*
X318980D01*
X318521Y445341D01*
X323113Y447178D02*
X322654Y447637D01*
X321735D01*
X321276Y447178D01*
Y445341D01*
X321735Y444882D01*
X322654D01*
X323113Y445341D01*
Y446259D01*
X322195D01*
X303150Y277165D02*
Y279920D01*
X304527D01*
X304986Y279461D01*
Y278543D01*
X304527Y278084D01*
X303150D01*
X304068D02*
X304986Y277165D01*
X307741D02*
X305905D01*
X307741Y279002D01*
Y279461D01*
X307282Y279920D01*
X306364D01*
X305905Y279461D01*
X308660D02*
X309119Y279920D01*
X310037D01*
X310496Y279461D01*
Y279002D01*
X310037Y278543D01*
X309578D01*
X310037D01*
X310496Y278084D01*
Y277625D01*
X310037Y277165D01*
X309119D01*
X308660Y277625D01*
X313251Y279920D02*
X311415D01*
Y278543D01*
X312333D01*
X311415D01*
Y277165D01*
X165748Y331102D02*
Y333857D01*
X167125D01*
X167585Y333398D01*
Y332480D01*
X167125Y332021D01*
X165748D01*
X166666D02*
X167585Y331102D01*
X170340D02*
X168503D01*
X170340Y332939D01*
Y333398D01*
X169881Y333857D01*
X168962D01*
X168503Y333398D01*
X171258D02*
X171717Y333857D01*
X172636D01*
X173095Y333398D01*
Y332939D01*
X172636Y332480D01*
X172176D01*
X172636D01*
X173095Y332021D01*
Y331561D01*
X172636Y331102D01*
X171717D01*
X171258Y331561D01*
X175850Y333857D02*
X174013D01*
Y331102D01*
X175850D01*
X174013Y332480D02*
X174931D01*
X164173Y186221D02*
Y188976D01*
X165551D01*
X166010Y188516D01*
Y187598D01*
X165551Y187139D01*
X164173D01*
X165092D02*
X166010Y186221D01*
X168765D02*
X166928D01*
X168765Y188057D01*
Y188516D01*
X168306Y188976D01*
X167387D01*
X166928Y188516D01*
X169683D02*
X170142Y188976D01*
X171061D01*
X171520Y188516D01*
Y188057D01*
X171061Y187598D01*
X170602D01*
X171061D01*
X171520Y187139D01*
Y186680D01*
X171061Y186221D01*
X170142D01*
X169683Y186680D01*
X172438Y188976D02*
Y186221D01*
X173816D01*
X174275Y186680D01*
Y188516D01*
X173816Y188976D01*
X172438D01*
X296850Y228465D02*
Y231220D01*
X298228D01*
X298687Y230760D01*
Y229842D01*
X298228Y229383D01*
X296850D01*
X297769D02*
X298687Y228465D01*
X301442D02*
X299605D01*
X301442Y230301D01*
Y230760D01*
X300983Y231220D01*
X300065D01*
X299605Y230760D01*
X302360D02*
X302820Y231220D01*
X303738D01*
X304197Y230760D01*
Y230301D01*
X303738Y229842D01*
X303279D01*
X303738D01*
X304197Y229383D01*
Y228924D01*
X303738Y228465D01*
X302820D01*
X302360Y228924D01*
X306952Y230760D02*
X306493Y231220D01*
X305575D01*
X305116Y230760D01*
Y228924D01*
X305575Y228465D01*
X306493D01*
X306952Y228924D01*
X444095Y281890D02*
Y284645D01*
X445472D01*
X445931Y284186D01*
Y283267D01*
X445472Y282808D01*
X444095D01*
X445013D02*
X445931Y281890D01*
X448686D02*
X446849D01*
X448686Y283726D01*
Y284186D01*
X448227Y284645D01*
X447309D01*
X446849Y284186D01*
X449605D02*
X450064Y284645D01*
X450982D01*
X451441Y284186D01*
Y283726D01*
X450982Y283267D01*
X450523D01*
X450982D01*
X451441Y282808D01*
Y282349D01*
X450982Y281890D01*
X450064D01*
X449605Y282349D01*
X452360Y284645D02*
Y281890D01*
X453737D01*
X454196Y282349D01*
Y282808D01*
X453737Y283267D01*
X452360D01*
X453737D01*
X454196Y283726D01*
Y284186D01*
X453737Y284645D01*
X452360D01*
X438583Y199213D02*
Y201968D01*
X439960D01*
X440419Y201508D01*
Y200590D01*
X439960Y200131D01*
X438583D01*
X439501D02*
X440419Y199213D01*
X443174D02*
X441338D01*
X443174Y201049D01*
Y201508D01*
X442715Y201968D01*
X441797D01*
X441338Y201508D01*
X444093D02*
X444552Y201968D01*
X445470D01*
X445929Y201508D01*
Y201049D01*
X445470Y200590D01*
X445011D01*
X445470D01*
X445929Y200131D01*
Y199672D01*
X445470Y199213D01*
X444552D01*
X444093Y199672D01*
X446848Y199213D02*
Y201049D01*
X447766Y201968D01*
X448684Y201049D01*
Y199213D01*
Y200590D01*
X446848D01*
X292000Y456200D02*
Y458955D01*
X293377D01*
X293837Y458496D01*
Y457578D01*
X293377Y457118D01*
X292000D01*
X292918D02*
X293837Y456200D01*
X296592D02*
X294755D01*
X296592Y458037D01*
Y458496D01*
X296132Y458955D01*
X295214D01*
X294755Y458496D01*
X297510Y456200D02*
X298428D01*
X297969D01*
Y458955D01*
X297510Y458496D01*
X299806Y458955D02*
Y456200D01*
Y457578D01*
X301643D01*
Y458955D01*
Y456200D01*
X455000Y417000D02*
Y419755D01*
X456378D01*
X456837Y419296D01*
Y418377D01*
X456378Y417918D01*
X455000D01*
X455918D02*
X456837Y417000D01*
X459592D02*
X457755D01*
X459592Y418837D01*
Y419296D01*
X459132Y419755D01*
X458214D01*
X457755Y419296D01*
X460510Y417000D02*
X461428D01*
X460969D01*
Y419755D01*
X460510Y419296D01*
X464643D02*
X464183Y419755D01*
X463265D01*
X462806Y419296D01*
Y417459D01*
X463265Y417000D01*
X464183D01*
X464643Y417459D01*
Y418377D01*
X463724D01*
X427500Y364500D02*
Y367255D01*
X428877D01*
X429337Y366796D01*
Y365878D01*
X428877Y365418D01*
X427500D01*
X428418D02*
X429337Y364500D01*
X432092D02*
X430255D01*
X432092Y366337D01*
Y366796D01*
X431633Y367255D01*
X430714D01*
X430255Y366796D01*
X433010Y364500D02*
X433928D01*
X433469D01*
Y367255D01*
X433010Y366796D01*
X437143Y367255D02*
X435306D01*
Y365878D01*
X436224D01*
X435306D01*
Y364500D01*
X308268Y314173D02*
X305513D01*
Y315551D01*
X305972Y316010D01*
X306890D01*
X307349Y315551D01*
Y314173D01*
Y315092D02*
X308268Y316010D01*
Y318765D02*
Y316928D01*
X306431Y318765D01*
X305972D01*
X305513Y318306D01*
Y317387D01*
X305972Y316928D01*
X308268Y319683D02*
Y320602D01*
Y320142D01*
X305513D01*
X305972Y319683D01*
X305513Y323816D02*
Y321979D01*
X308268D01*
Y323816D01*
X306890Y321979D02*
Y322898D01*
X306200Y168800D02*
Y171555D01*
X307577D01*
X308037Y171096D01*
Y170177D01*
X307577Y169718D01*
X306200D01*
X307118D02*
X308037Y168800D01*
X310792D02*
X308955D01*
X310792Y170637D01*
Y171096D01*
X310332Y171555D01*
X309414D01*
X308955Y171096D01*
X311710Y168800D02*
X312628D01*
X312169D01*
Y171555D01*
X311710Y171096D01*
X314006Y171555D02*
Y168800D01*
X315383D01*
X315843Y169259D01*
Y171096D01*
X315383Y171555D01*
X314006D01*
X437900Y168800D02*
Y171555D01*
X439278D01*
X439737Y171096D01*
Y170177D01*
X439278Y169718D01*
X437900D01*
X438818D02*
X439737Y168800D01*
X442492D02*
X440655D01*
X442492Y170637D01*
Y171096D01*
X442032Y171555D01*
X441114D01*
X440655Y171096D01*
X443410Y168800D02*
X444328D01*
X443869D01*
Y171555D01*
X443410Y171096D01*
X447543D02*
X447083Y171555D01*
X446165D01*
X445706Y171096D01*
Y169259D01*
X446165Y168800D01*
X447083D01*
X447543Y169259D01*
X539900Y360800D02*
Y363555D01*
X541278D01*
X541737Y363096D01*
Y362177D01*
X541278Y361718D01*
X539900D01*
X540818D02*
X541737Y360800D01*
X544492D02*
X542655D01*
X544492Y362637D01*
Y363096D01*
X544032Y363555D01*
X543114D01*
X542655Y363096D01*
X545410Y360800D02*
X546328D01*
X545869D01*
Y363555D01*
X545410Y363096D01*
X547706Y363555D02*
Y360800D01*
X549083D01*
X549543Y361259D01*
Y361718D01*
X549083Y362177D01*
X547706D01*
X549083D01*
X549543Y362637D01*
Y363096D01*
X549083Y363555D01*
X547706D01*
X581000Y222400D02*
Y225155D01*
X582377D01*
X582837Y224696D01*
Y223778D01*
X582377Y223318D01*
X581000D01*
X581918D02*
X582837Y222400D01*
X585592D02*
X583755D01*
X585592Y224237D01*
Y224696D01*
X585133Y225155D01*
X584214D01*
X583755Y224696D01*
X586510Y222400D02*
X587428D01*
X586969D01*
Y225155D01*
X586510Y224696D01*
X588806Y222400D02*
Y224237D01*
X589724Y225155D01*
X590643Y224237D01*
Y222400D01*
Y223778D01*
X588806D01*
X601837Y326705D02*
X601377Y327165D01*
X600459D01*
X600000Y326705D01*
Y324869D01*
X600459Y324410D01*
X601377D01*
X601837Y324869D01*
X604592Y324410D02*
X602755D01*
X604592Y326246D01*
Y326705D01*
X604133Y327165D01*
X603214D01*
X602755Y326705D01*
X605510D02*
X605969Y327165D01*
X606888D01*
X607347Y326705D01*
Y324869D01*
X606888Y324410D01*
X605969D01*
X605510Y324869D01*
Y326705D01*
X625065Y290484D02*
X624606Y290943D01*
X623688D01*
X623228Y290484D01*
Y288648D01*
X623688Y288188D01*
X624606D01*
X625065Y288648D01*
X625983Y288188D02*
X626902D01*
X626442D01*
Y290943D01*
X625983Y290484D01*
X628279Y288648D02*
X628738Y288188D01*
X629657D01*
X630116Y288648D01*
Y290484D01*
X629657Y290943D01*
X628738D01*
X628279Y290484D01*
Y290025D01*
X628738Y289566D01*
X630116D01*
X645538Y289304D02*
X645078Y289763D01*
X644160D01*
X643701Y289304D01*
Y287467D01*
X644160Y287008D01*
X645078D01*
X645538Y287467D01*
X646456Y287008D02*
X647374D01*
X646915D01*
Y289763D01*
X646456Y289304D01*
X648752D02*
X649211Y289763D01*
X650129D01*
X650588Y289304D01*
Y288844D01*
X650129Y288385D01*
X650588Y287926D01*
Y287467D01*
X650129Y287008D01*
X649211D01*
X648752Y287467D01*
Y287926D01*
X649211Y288385D01*
X648752Y288844D01*
Y289304D01*
X649211Y288385D02*
X650129D01*
X646719Y320406D02*
X646259Y320865D01*
X645341D01*
X644882Y320406D01*
Y318569D01*
X645341Y318110D01*
X646259D01*
X646719Y318569D01*
X647637Y318110D02*
X648555D01*
X648096D01*
Y320865D01*
X647637Y320406D01*
X649933Y320865D02*
X651769D01*
Y320406D01*
X649933Y318569D01*
Y318110D01*
X652002Y351344D02*
X651543Y350885D01*
Y349967D01*
X652002Y349508D01*
X653839D01*
X654298Y349967D01*
Y350885D01*
X653839Y351344D01*
X654298Y354099D02*
Y352263D01*
X652461Y354099D01*
X652002D01*
X651543Y353640D01*
Y352722D01*
X652002Y352263D01*
X654298Y355018D02*
Y355936D01*
Y355477D01*
X651543D01*
X652002Y355018D01*
X595734Y416797D02*
X595275Y417256D01*
X594357D01*
X593898Y416797D01*
Y414960D01*
X594357Y414501D01*
X595275D01*
X595734Y414960D01*
X598489Y414501D02*
X596653D01*
X598489Y416338D01*
Y416797D01*
X598030Y417256D01*
X597112D01*
X596653Y416797D01*
X601244Y414501D02*
X599408D01*
X601244Y416338D01*
Y416797D01*
X600785Y417256D01*
X599867D01*
X599408Y416797D01*
X516535Y455511D02*
Y453215D01*
X516995Y452756D01*
X517913D01*
X518372Y453215D01*
Y455511D01*
X519290Y452756D02*
X520209D01*
X519750D01*
Y455511D01*
X519290Y455052D01*
X367545Y397446D02*
X367086Y397905D01*
X366168D01*
X365709Y397446D01*
Y395609D01*
X366168Y395150D01*
X367086D01*
X367545Y395609D01*
X368464Y397446D02*
X368923Y397905D01*
X369841D01*
X370300Y397446D01*
Y396986D01*
X369841Y396527D01*
X369382D01*
X369841D01*
X370300Y396068D01*
Y395609D01*
X369841Y395150D01*
X368923D01*
X368464Y395609D01*
X373055Y397446D02*
X372596Y397905D01*
X371678D01*
X371219Y397446D01*
Y395609D01*
X371678Y395150D01*
X372596D01*
X373055Y395609D01*
Y396527D01*
X372137D01*
X398359Y386746D02*
X398818Y387205D01*
Y388123D01*
X398359Y388583D01*
X396522D01*
X396063Y388123D01*
Y387205D01*
X396522Y386746D01*
X396063Y383991D02*
Y385828D01*
X397900Y383991D01*
X398359D01*
X398818Y384450D01*
Y385368D01*
X398359Y385828D01*
Y381236D02*
X398818Y381695D01*
Y382613D01*
X398359Y383073D01*
X396522D01*
X396063Y382613D01*
Y381695D01*
X396522Y381236D01*
X397441D01*
Y382154D01*
X321720Y369947D02*
X321261Y369488D01*
Y368569D01*
X321720Y368110D01*
X323557D01*
X324016Y368569D01*
Y369488D01*
X323557Y369947D01*
X324016Y370865D02*
Y371784D01*
Y371324D01*
X321261D01*
X321720Y370865D01*
Y373161D02*
X321261Y373620D01*
Y374539D01*
X321720Y374998D01*
X322179D01*
X322638Y374539D01*
Y374079D01*
Y374539D01*
X323097Y374998D01*
X323557D01*
X324016Y374539D01*
Y373620D01*
X323557Y373161D01*
X321720Y377753D02*
X321261Y377294D01*
Y376375D01*
X321720Y375916D01*
X323557D01*
X324016Y376375D01*
Y377294D01*
X323557Y377753D01*
X322638D01*
Y376835D01*
X316208Y387270D02*
X315749Y386811D01*
Y385892D01*
X316208Y385433D01*
X318045D01*
X318504Y385892D01*
Y386811D01*
X318045Y387270D01*
X318504Y388188D02*
Y389106D01*
Y388647D01*
X315749D01*
X316208Y388188D01*
X318504Y390484D02*
Y391402D01*
Y390943D01*
X315749D01*
X316208Y390484D01*
Y394617D02*
X315749Y394157D01*
Y393239D01*
X316208Y392780D01*
X318045D01*
X318504Y393239D01*
Y394157D01*
X318045Y394617D01*
X317126D01*
Y393698D01*
X325065Y441868D02*
X324606Y442327D01*
X323688D01*
X323228Y441868D01*
Y440031D01*
X323688Y439572D01*
X324606D01*
X325065Y440031D01*
X327361Y439572D02*
Y442327D01*
X325983Y440950D01*
X327820D01*
X330575Y441868D02*
X330116Y442327D01*
X329198D01*
X328738Y441868D01*
Y440031D01*
X329198Y439572D01*
X330116D01*
X330575Y440031D01*
Y440950D01*
X329657D01*
X346457Y372046D02*
Y369291D01*
X347834D01*
X348293Y369750D01*
Y371587D01*
X347834Y372046D01*
X346457D01*
X349212D02*
Y369291D01*
X351048D01*
X351967D02*
X352885D01*
X352426D01*
Y372046D01*
X351967Y371587D01*
X356099D02*
X355640Y372046D01*
X354722D01*
X354263Y371587D01*
Y369750D01*
X354722Y369291D01*
X355640D01*
X356099Y369750D01*
Y370669D01*
X355181D01*
X358268Y372046D02*
Y369291D01*
X359645D01*
X360104Y369750D01*
Y371587D01*
X359645Y372046D01*
X358268D01*
X361023D02*
Y369291D01*
X362859D01*
X365614D02*
X363778D01*
X365614Y371128D01*
Y371587D01*
X365155Y372046D01*
X364237D01*
X363778Y371587D01*
X368370D02*
X367910Y372046D01*
X366992D01*
X366533Y371587D01*
Y369750D01*
X366992Y369291D01*
X367910D01*
X368370Y369750D01*
Y370669D01*
X367451D01*
X408661Y446849D02*
X409580D01*
X409121D01*
Y444095D01*
X408661D01*
X409580D01*
X412794Y446390D02*
X412335Y446849D01*
X411416D01*
X410957Y446390D01*
Y444554D01*
X411416Y444095D01*
X412335D01*
X412794Y444554D01*
X415549Y444095D02*
X413712D01*
X415549Y445931D01*
Y446390D01*
X415090Y446849D01*
X414172D01*
X413712Y446390D01*
X418304D02*
X417845Y446849D01*
X416926D01*
X416467Y446390D01*
Y444554D01*
X416926Y444095D01*
X417845D01*
X418304Y444554D01*
Y445472D01*
X417386D01*
X406167Y380314D02*
X405249D01*
X405708D01*
Y378018D01*
X405249Y377559D01*
X404790D01*
X404331Y378018D01*
X407086Y377100D02*
X408922D01*
X409841Y377559D02*
Y380314D01*
X411218D01*
X411677Y379855D01*
Y378937D01*
X411218Y378477D01*
X409841D01*
X412596Y379396D02*
Y377559D01*
Y378477D01*
X413055Y378937D01*
X413514Y379396D01*
X413973D01*
X415810Y377559D02*
X416728D01*
X417188Y378018D01*
Y378937D01*
X416728Y379396D01*
X415810D01*
X415351Y378937D01*
Y378018D01*
X415810Y377559D01*
X419024Y376641D02*
X419483D01*
X419943Y377100D01*
Y379396D01*
X418565D01*
X418106Y378937D01*
Y378018D01*
X418565Y377559D01*
X419943D01*
X420861D02*
X421779D01*
X421320D01*
Y380314D01*
X420861Y379855D01*
X424993D02*
X424534Y380314D01*
X423616D01*
X423157Y379855D01*
Y378018D01*
X423616Y377559D01*
X424534D01*
X424993Y378018D01*
Y378937D01*
X424075D01*
X443307Y440158D02*
X446062D01*
Y438780D01*
X445603Y438321D01*
X444685D01*
X444225Y438780D01*
Y440158D01*
Y439239D02*
X443307Y438321D01*
Y437402D02*
Y436484D01*
Y436943D01*
X446062D01*
X445603Y437402D01*
Y435107D02*
X446062Y434647D01*
Y433729D01*
X445603Y433270D01*
X445144D01*
X444685Y433729D01*
X444225Y433270D01*
X443766D01*
X443307Y433729D01*
Y434647D01*
X443766Y435107D01*
X444225D01*
X444685Y434647D01*
X445144Y435107D01*
X445603D01*
X444685Y434647D02*
Y433729D01*
X445603Y430515D02*
X446062Y430974D01*
Y431892D01*
X445603Y432352D01*
X443766D01*
X443307Y431892D01*
Y430974D01*
X443766Y430515D01*
X444685D01*
Y431433D01*
X349213Y395669D02*
Y398424D01*
X350590D01*
X351049Y397965D01*
Y397047D01*
X350590Y396588D01*
X349213D01*
X350131D02*
X351049Y395669D01*
X351968D02*
X352886D01*
X352427D01*
Y398424D01*
X351968Y397965D01*
X356100Y398424D02*
X354263D01*
Y397047D01*
X355182Y397506D01*
X355641D01*
X356100Y397047D01*
Y396129D01*
X355641Y395669D01*
X354723D01*
X354263Y396129D01*
X358855Y397965D02*
X358396Y398424D01*
X357478D01*
X357018Y397965D01*
Y396129D01*
X357478Y395669D01*
X358396D01*
X358855Y396129D01*
Y397047D01*
X357937D01*
X359842Y395669D02*
Y398424D01*
X361220D01*
X361679Y397965D01*
Y397047D01*
X361220Y396588D01*
X359842D01*
X360761D02*
X361679Y395669D01*
X362597D02*
X363516D01*
X363057D01*
Y398424D01*
X362597Y397965D01*
X364893Y398424D02*
X366730D01*
Y397965D01*
X364893Y396129D01*
Y395669D01*
X369485Y397965D02*
X369026Y398424D01*
X368108D01*
X367648Y397965D01*
Y396129D01*
X368108Y395669D01*
X369026D01*
X369485Y396129D01*
Y397047D01*
X368567D01*
X380709Y438582D02*
Y436286D01*
X381168Y435827D01*
X382086D01*
X382545Y436286D01*
Y438582D01*
X385300Y435827D02*
X383464D01*
X385300Y437664D01*
Y438123D01*
X384841Y438582D01*
X383923D01*
X383464Y438123D01*
X388055D02*
X387596Y438582D01*
X386678D01*
X386219Y438123D01*
Y436286D01*
X386678Y435827D01*
X387596D01*
X388055Y436286D01*
Y437204D01*
X387137D01*
X320866Y437401D02*
Y435105D01*
X321325Y434646D01*
X322244D01*
X322703Y435105D01*
Y437401D01*
X323621Y436941D02*
X324080Y437401D01*
X324999D01*
X325458Y436941D01*
Y436482D01*
X324999Y436023D01*
X324539D01*
X324999D01*
X325458Y435564D01*
Y435105D01*
X324999Y434646D01*
X324080D01*
X323621Y435105D01*
X328213Y436941D02*
X327754Y437401D01*
X326835D01*
X326376Y436941D01*
Y435105D01*
X326835Y434646D01*
X327754D01*
X328213Y435105D01*
Y436023D01*
X327294D01*
X395276Y401968D02*
X398031D01*
Y400591D01*
X397571Y400132D01*
X396653D01*
X396194Y400591D01*
Y401968D01*
Y401050D02*
X395276Y400132D01*
Y399214D02*
Y398295D01*
Y398754D01*
X398031D01*
X397571Y399214D01*
X398031Y395081D02*
X397571Y395999D01*
X396653Y396918D01*
X395735D01*
X395276Y396459D01*
Y395540D01*
X395735Y395081D01*
X396194D01*
X396653Y395540D01*
Y396918D01*
X397571Y392326D02*
X398031Y392785D01*
Y393704D01*
X397571Y394163D01*
X395735D01*
X395276Y393704D01*
Y392785D01*
X395735Y392326D01*
X396653D01*
Y393244D01*
X359842Y414567D02*
Y417322D01*
X361220D01*
X361679Y416863D01*
Y415944D01*
X361220Y415485D01*
X359842D01*
X360761D02*
X361679Y414567D01*
X364434D02*
X362597D01*
X364434Y416404D01*
Y416863D01*
X363975Y417322D01*
X363057D01*
X362597Y416863D01*
X365353D02*
X365812Y417322D01*
X366730D01*
X367189Y416863D01*
Y415026D01*
X366730Y414567D01*
X365812D01*
X365353Y415026D01*
Y416863D01*
X369944D02*
X369485Y417322D01*
X368567D01*
X368108Y416863D01*
Y415026D01*
X368567Y414567D01*
X369485D01*
X369944Y415026D01*
Y415944D01*
X369026D01*
X358268Y408661D02*
Y411416D01*
X359645D01*
X360104Y410957D01*
Y410039D01*
X359645Y409580D01*
X358268D01*
X359186D02*
X360104Y408661D01*
X361023D02*
X361941D01*
X361482D01*
Y411416D01*
X361023Y410957D01*
X363319Y409121D02*
X363778Y408661D01*
X364696D01*
X365155Y409121D01*
Y410957D01*
X364696Y411416D01*
X363778D01*
X363319Y410957D01*
Y410498D01*
X363778Y410039D01*
X365155D01*
X367910Y410957D02*
X367451Y411416D01*
X366533D01*
X366074Y410957D01*
Y409121D01*
X366533Y408661D01*
X367451D01*
X367910Y409121D01*
Y410039D01*
X366992D01*
X363648Y431823D02*
X363189Y432283D01*
X362270D01*
X361811Y431823D01*
Y429987D01*
X362270Y429528D01*
X363189D01*
X363648Y429987D01*
X364566Y429528D02*
X365484D01*
X365025D01*
Y432283D01*
X364566Y431823D01*
X368239Y429528D02*
Y432283D01*
X366862Y430905D01*
X368699D01*
X371454Y431823D02*
X370994Y432283D01*
X370076D01*
X369617Y431823D01*
Y429987D01*
X370076Y429528D01*
X370994D01*
X371454Y429987D01*
Y430905D01*
X370535D01*
X363648Y425524D02*
X363189Y425983D01*
X362270D01*
X361811Y425524D01*
Y423688D01*
X362270Y423228D01*
X363189D01*
X363648Y423688D01*
X364566Y423228D02*
X365484D01*
X365025D01*
Y425983D01*
X364566Y425524D01*
X368699Y425983D02*
X366862D01*
Y424606D01*
X367780Y425065D01*
X368239D01*
X368699Y424606D01*
Y423688D01*
X368239Y423228D01*
X367321D01*
X366862Y423688D01*
X371454Y425524D02*
X370994Y425983D01*
X370076D01*
X369617Y425524D01*
Y423688D01*
X370076Y423228D01*
X370994D01*
X371454Y423688D01*
Y424606D01*
X370535D01*
X252624Y362926D02*
X252165Y363385D01*
X251247D01*
X250787Y362926D01*
Y361089D01*
X251247Y360630D01*
X252165D01*
X252624Y361089D01*
X253542Y362926D02*
X254002Y363385D01*
X254920D01*
X255379Y362926D01*
Y362467D01*
X254920Y362007D01*
X254461D01*
X254920D01*
X255379Y361548D01*
Y361089D01*
X254920Y360630D01*
X254002D01*
X253542Y361089D01*
X256297Y363385D02*
Y360630D01*
Y362007D01*
X258134D01*
Y363385D01*
Y360630D01*
X264894Y381234D02*
X265353Y381693D01*
Y382612D01*
X264894Y383071D01*
X263058D01*
X262598Y382612D01*
Y381693D01*
X263058Y381234D01*
X262598Y378479D02*
Y380316D01*
X264435Y378479D01*
X264894D01*
X265353Y378938D01*
Y379857D01*
X264894Y380316D01*
X265353Y377561D02*
X262598D01*
X263976D01*
Y375724D01*
X265353D01*
X262598D01*
X187862Y362467D02*
X187402Y362007D01*
Y361089D01*
X187862Y360630D01*
X189698D01*
X190157Y361089D01*
Y362007D01*
X189698Y362467D01*
X190157Y363385D02*
Y364303D01*
Y363844D01*
X187402D01*
X187862Y363385D01*
Y365681D02*
X187402Y366140D01*
Y367058D01*
X187862Y367517D01*
X188321D01*
X188780Y367058D01*
Y366599D01*
Y367058D01*
X189239Y367517D01*
X189698D01*
X190157Y367058D01*
Y366140D01*
X189698Y365681D01*
X187402Y368436D02*
X190157D01*
X188780D01*
Y370272D01*
X187402D01*
X190157D01*
X181562Y380183D02*
X181103Y379724D01*
Y378806D01*
X181562Y378346D01*
X183399D01*
X183858Y378806D01*
Y379724D01*
X183399Y380183D01*
X183858Y381101D02*
Y382020D01*
Y381561D01*
X181103D01*
X181562Y381101D01*
X183858Y383397D02*
Y384316D01*
Y383857D01*
X181103D01*
X181562Y383397D01*
X181103Y385693D02*
X183858D01*
X182481D01*
Y387530D01*
X181103D01*
X183858D01*
X190459Y435245D02*
X189999Y435704D01*
X189081D01*
X188622Y435245D01*
Y433408D01*
X189081Y432949D01*
X189999D01*
X190459Y433408D01*
X192755Y432949D02*
Y435704D01*
X191377Y434326D01*
X193214D01*
X194132Y435704D02*
Y432949D01*
Y434326D01*
X195969D01*
Y435704D01*
Y432949D01*
X212205Y364566D02*
Y361811D01*
X213582D01*
X214041Y362270D01*
Y364107D01*
X213582Y364566D01*
X212205D01*
X214960D02*
Y361811D01*
X216796D01*
X217715D02*
X218633D01*
X218174D01*
Y364566D01*
X217715Y364107D01*
X220011Y364566D02*
Y361811D01*
Y363189D01*
X221847D01*
Y364566D01*
Y361811D01*
X223622Y364566D02*
Y361811D01*
X225000D01*
X225459Y362270D01*
Y364107D01*
X225000Y364566D01*
X223622D01*
X226377D02*
Y361811D01*
X228214D01*
X230969D02*
X229132D01*
X230969Y363648D01*
Y364107D01*
X230510Y364566D01*
X229591D01*
X229132Y364107D01*
X231887Y364566D02*
Y361811D01*
Y363189D01*
X233724D01*
Y364566D01*
Y361811D01*
X269291Y438188D02*
X270210D01*
X269750D01*
Y435433D01*
X269291D01*
X270210D01*
X273424Y437729D02*
X272965Y438188D01*
X272046D01*
X271587Y437729D01*
Y435892D01*
X272046Y435433D01*
X272965D01*
X273424Y435892D01*
X276179Y435433D02*
X274342D01*
X276179Y437270D01*
Y437729D01*
X275720Y438188D01*
X274801D01*
X274342Y437729D01*
X277097Y438188D02*
Y435433D01*
Y436811D01*
X278934D01*
Y438188D01*
Y435433D01*
X272309Y372834D02*
X271391D01*
X271850D01*
Y370538D01*
X271391Y370079D01*
X270932D01*
X270472Y370538D01*
X273228Y369620D02*
X275064D01*
X275982Y370079D02*
Y372834D01*
X277360D01*
X277819Y372375D01*
Y371456D01*
X277360Y370997D01*
X275982D01*
X278737Y371915D02*
Y370079D01*
Y370997D01*
X279197Y371456D01*
X279656Y371915D01*
X280115D01*
X281952Y370079D02*
X282870D01*
X283329Y370538D01*
Y371456D01*
X282870Y371915D01*
X281952D01*
X281492Y371456D01*
Y370538D01*
X281952Y370079D01*
X285166Y369160D02*
X285625D01*
X286084Y369620D01*
Y371915D01*
X284707D01*
X284248Y371456D01*
Y370538D01*
X284707Y370079D01*
X286084D01*
X287003D02*
X287921D01*
X287462D01*
Y372834D01*
X287003Y372375D01*
X289298Y372834D02*
Y370079D01*
Y371456D01*
X291135D01*
Y372834D01*
Y370079D01*
X301181Y448819D02*
Y451574D01*
X302559D01*
X303018Y451115D01*
Y450196D01*
X302559Y449737D01*
X301181D01*
X302099D02*
X303018Y448819D01*
X303936D02*
X304854D01*
X304395D01*
Y451574D01*
X303936Y451115D01*
X306232D02*
X306691Y451574D01*
X307610D01*
X308069Y451115D01*
Y450656D01*
X307610Y450196D01*
X308069Y449737D01*
Y449278D01*
X307610Y448819D01*
X306691D01*
X306232Y449278D01*
Y449737D01*
X306691Y450196D01*
X306232Y450656D01*
Y451115D01*
X306691Y450196D02*
X307610D01*
X308987Y451574D02*
Y448819D01*
Y450196D01*
X310824D01*
Y451574D01*
Y448819D01*
X215354Y388583D02*
Y391338D01*
X216732D01*
X217191Y390879D01*
Y389960D01*
X216732Y389501D01*
X215354D01*
X216273D02*
X217191Y388583D01*
X218109D02*
X219028D01*
X218568D01*
Y391338D01*
X218109Y390879D01*
X222242Y391338D02*
X220405D01*
Y389960D01*
X221323Y390419D01*
X221783D01*
X222242Y389960D01*
Y389042D01*
X221783Y388583D01*
X220864D01*
X220405Y389042D01*
X223160Y391338D02*
Y388583D01*
Y389960D01*
X224997D01*
Y391338D01*
Y388583D01*
X224803Y388583D02*
Y391338D01*
X226181D01*
X226640Y390879D01*
Y389960D01*
X226181Y389501D01*
X224803D01*
X225722D02*
X226640Y388583D01*
X227558D02*
X228477D01*
X228017D01*
Y391338D01*
X227558Y390879D01*
X229854Y391338D02*
X231691D01*
Y390879D01*
X229854Y389042D01*
Y388583D01*
X232609Y391338D02*
Y388583D01*
Y389960D01*
X234446D01*
Y391338D01*
Y388583D01*
X242126Y430708D02*
Y428412D01*
X242585Y427953D01*
X243503D01*
X243963Y428412D01*
Y430708D01*
X246718Y427953D02*
X244881D01*
X246718Y429789D01*
Y430249D01*
X246258Y430708D01*
X245340D01*
X244881Y430249D01*
X247636Y430708D02*
Y427953D01*
Y429330D01*
X249473D01*
Y430708D01*
Y427953D01*
X261500Y394488D02*
X264255D01*
Y393111D01*
X263796Y392652D01*
X262877D01*
X262418Y393111D01*
Y394488D01*
Y393570D02*
X261500Y392652D01*
Y391733D02*
Y390815D01*
Y391274D01*
X264255D01*
X263796Y391733D01*
X264255Y387601D02*
X263796Y388519D01*
X262877Y389437D01*
X261959D01*
X261500Y388978D01*
Y388060D01*
X261959Y387601D01*
X262418D01*
X262877Y388060D01*
Y389437D01*
X264255Y386682D02*
X261500D01*
X262877D01*
Y384846D01*
X264255D01*
X261500D01*
X225590Y406299D02*
Y409054D01*
X226968D01*
X227427Y408595D01*
Y407677D01*
X226968Y407218D01*
X225590D01*
X226509D02*
X227427Y406299D01*
X230182D02*
X228346D01*
X230182Y408136D01*
Y408595D01*
X229723Y409054D01*
X228805D01*
X228346Y408595D01*
X231101D02*
X231560Y409054D01*
X232478D01*
X232937Y408595D01*
Y406758D01*
X232478Y406299D01*
X231560D01*
X231101Y406758D01*
Y408595D01*
X233856Y409054D02*
Y406299D01*
Y407677D01*
X235692D01*
Y409054D01*
Y406299D01*
X225590Y400787D02*
Y403542D01*
X226968D01*
X227427Y403083D01*
Y402165D01*
X226968Y401706D01*
X225590D01*
X226509D02*
X227427Y400787D01*
X228346D02*
X229264D01*
X228805D01*
Y403542D01*
X228346Y403083D01*
X230641Y401247D02*
X231101Y400787D01*
X232019D01*
X232478Y401247D01*
Y403083D01*
X232019Y403542D01*
X231101D01*
X230641Y403083D01*
Y402624D01*
X231101Y402165D01*
X232478D01*
X233396Y403542D02*
Y400787D01*
Y402165D01*
X235233D01*
Y403542D01*
Y400787D01*
X229789Y424343D02*
X229330Y424802D01*
X228412D01*
X227953Y424343D01*
Y422506D01*
X228412Y422047D01*
X229330D01*
X229789Y422506D01*
X230708Y422047D02*
X231626D01*
X231167D01*
Y424802D01*
X230708Y424343D01*
X234381Y422047D02*
Y424802D01*
X233004Y423425D01*
X234840D01*
X235759Y424802D02*
Y422047D01*
Y423425D01*
X237595D01*
Y424802D01*
Y422047D01*
X229789Y418044D02*
X229330Y418503D01*
X228412D01*
X227953Y418044D01*
Y416207D01*
X228412Y415748D01*
X229330D01*
X229789Y416207D01*
X230708Y415748D02*
X231626D01*
X231167D01*
Y418503D01*
X230708Y418044D01*
X234840Y418503D02*
X233004D01*
Y417126D01*
X233922Y417585D01*
X234381D01*
X234840Y417126D01*
Y416207D01*
X234381Y415748D01*
X233463D01*
X233004Y416207D01*
X235759Y418503D02*
Y415748D01*
Y417126D01*
X237595D01*
Y418503D01*
Y415748D01*
X253018Y273949D02*
X252559Y274409D01*
X251640D01*
X251181Y273949D01*
Y272113D01*
X251640Y271654D01*
X252559D01*
X253018Y272113D01*
X253936Y273949D02*
X254395Y274409D01*
X255314D01*
X255773Y273949D01*
Y273490D01*
X255314Y273031D01*
X254854D01*
X255314D01*
X255773Y272572D01*
Y272113D01*
X255314Y271654D01*
X254395D01*
X253936Y272113D01*
X258528Y274409D02*
X256691D01*
Y271654D01*
X258528D01*
X256691Y273031D02*
X257610D01*
X259776Y284777D02*
X260235Y285237D01*
Y286155D01*
X259776Y286614D01*
X257940D01*
X257480Y286155D01*
Y285237D01*
X257940Y284777D01*
X257480Y282023D02*
Y283859D01*
X259317Y282023D01*
X259776D01*
X260235Y282482D01*
Y283400D01*
X259776Y283859D01*
X260235Y279268D02*
Y281104D01*
X257480D01*
Y279268D01*
X258858Y281104D02*
Y280186D01*
X183137Y267191D02*
X182678Y266732D01*
Y265813D01*
X183137Y265354D01*
X184974D01*
X185433Y265813D01*
Y266732D01*
X184974Y267191D01*
X185433Y268109D02*
Y269028D01*
Y268568D01*
X182678D01*
X183137Y268109D01*
Y270405D02*
X182678Y270864D01*
Y271783D01*
X183137Y272242D01*
X183596D01*
X184056Y271783D01*
Y271323D01*
Y271783D01*
X184515Y272242D01*
X184974D01*
X185433Y271783D01*
Y270864D01*
X184974Y270405D01*
X182678Y274997D02*
Y273160D01*
X185433D01*
Y274997D01*
X184056Y273160D02*
Y274079D01*
X176838Y284908D02*
X176379Y284448D01*
Y283530D01*
X176838Y283071D01*
X178675D01*
X179134Y283530D01*
Y284448D01*
X178675Y284908D01*
X179134Y285826D02*
Y286744D01*
Y286285D01*
X176379D01*
X176838Y285826D01*
X179134Y288122D02*
Y289040D01*
Y288581D01*
X176379D01*
X176838Y288122D01*
X176379Y292254D02*
Y290418D01*
X179134D01*
Y292254D01*
X177756Y290418D02*
Y291336D01*
X195144Y343241D02*
X194685Y343700D01*
X193766D01*
X193307Y343241D01*
Y341404D01*
X193766Y340945D01*
X194685D01*
X195144Y341404D01*
X197440Y340945D02*
Y343700D01*
X196062Y342322D01*
X197899D01*
X200654Y343700D02*
X198817D01*
Y340945D01*
X200654D01*
X198817Y342322D02*
X199735D01*
X208268Y269290D02*
Y266535D01*
X209645D01*
X210104Y266995D01*
Y268831D01*
X209645Y269290D01*
X208268D01*
X211023D02*
Y266535D01*
X212859D01*
X213778D02*
X214696D01*
X214237D01*
Y269290D01*
X213778Y268831D01*
X217910Y269290D02*
X216074D01*
Y266535D01*
X217910D01*
X216074Y267913D02*
X216992D01*
X220079Y269290D02*
Y266535D01*
X221456D01*
X221915Y266995D01*
Y268831D01*
X221456Y269290D01*
X220079D01*
X222834D02*
Y266535D01*
X224670D01*
X227426D02*
X225589D01*
X227426Y268372D01*
Y268831D01*
X226966Y269290D01*
X226048D01*
X225589Y268831D01*
X230181Y269290D02*
X228344D01*
Y266535D01*
X230181D01*
X228344Y267913D02*
X229262D01*
X268000Y345055D02*
X268918D01*
X268459D01*
Y342300D01*
X268000D01*
X268918D01*
X272132Y344596D02*
X271673Y345055D01*
X270755D01*
X270296Y344596D01*
Y342759D01*
X270755Y342300D01*
X271673D01*
X272132Y342759D01*
X274888Y342300D02*
X273051D01*
X274888Y344137D01*
Y344596D01*
X274428Y345055D01*
X273510D01*
X273051Y344596D01*
X277643Y345055D02*
X275806D01*
Y342300D01*
X277643D01*
X275806Y343677D02*
X276724D01*
X267589Y277570D02*
X266670D01*
X267129D01*
Y275274D01*
X266670Y274815D01*
X266211D01*
X265752Y275274D01*
X268507Y274356D02*
X270344D01*
X271262Y274815D02*
Y277570D01*
X272639D01*
X273099Y277111D01*
Y276192D01*
X272639Y275733D01*
X271262D01*
X274017Y276652D02*
Y274815D01*
Y275733D01*
X274476Y276192D01*
X274935Y276652D01*
X275395D01*
X277231Y274815D02*
X278150D01*
X278609Y275274D01*
Y276192D01*
X278150Y276652D01*
X277231D01*
X276772Y276192D01*
Y275274D01*
X277231Y274815D01*
X280445Y273897D02*
X280905D01*
X281364Y274356D01*
Y276652D01*
X279986D01*
X279527Y276192D01*
Y275274D01*
X279986Y274815D01*
X281364D01*
X282282D02*
X283200D01*
X282741D01*
Y277570D01*
X282282Y277111D01*
X286415Y277570D02*
X284578D01*
Y274815D01*
X286415D01*
X284578Y276192D02*
X285496D01*
X303937Y337402D02*
X306692D01*
Y336024D01*
X306233Y335565D01*
X305314D01*
X304855Y336024D01*
Y337402D01*
Y336483D02*
X303937Y335565D01*
Y334647D02*
Y333728D01*
Y334187D01*
X306692D01*
X306233Y334647D01*
Y332351D02*
X306692Y331891D01*
Y330973D01*
X306233Y330514D01*
X305774D01*
X305314Y330973D01*
X304855Y330514D01*
X304396D01*
X303937Y330973D01*
Y331891D01*
X304396Y332351D01*
X304855D01*
X305314Y331891D01*
X305774Y332351D01*
X306233D01*
X305314Y331891D02*
Y330973D01*
X306692Y327759D02*
Y329596D01*
X303937D01*
Y327759D01*
X305314Y329596D02*
Y328677D01*
X209980Y293307D02*
Y296062D01*
X211357D01*
X211816Y295603D01*
Y294685D01*
X211357Y294225D01*
X209980D01*
X210898D02*
X211816Y293307D01*
X212735D02*
X213653D01*
X213194D01*
Y296062D01*
X212735Y295603D01*
X216867Y296062D02*
X215030D01*
Y294685D01*
X215949Y295144D01*
X216408D01*
X216867Y294685D01*
Y293766D01*
X216408Y293307D01*
X215490D01*
X215030Y293766D01*
X219622Y296062D02*
X217785D01*
Y293307D01*
X219622D01*
X217785Y294685D02*
X218704D01*
X220866Y293307D02*
Y296062D01*
X222244D01*
X222703Y295603D01*
Y294685D01*
X222244Y294225D01*
X220866D01*
X221784D02*
X222703Y293307D01*
X223621D02*
X224539D01*
X224080D01*
Y296062D01*
X223621Y295603D01*
X225917Y296062D02*
X227754D01*
Y295603D01*
X225917Y293766D01*
Y293307D01*
X230509Y296062D02*
X228672D01*
Y293307D01*
X230509D01*
X228672Y294685D02*
X229590D01*
X228051Y335826D02*
Y333530D01*
X228510Y333071D01*
X229429D01*
X229888Y333530D01*
Y335826D01*
X232643Y333071D02*
X230806D01*
X232643Y334908D01*
Y335367D01*
X232184Y335826D01*
X231265D01*
X230806Y335367D01*
X235398Y335826D02*
X233561D01*
Y333071D01*
X235398D01*
X233561Y334448D02*
X234480D01*
X178740Y334250D02*
Y331955D01*
X179199Y331495D01*
X180118D01*
X180577Y331955D01*
Y334250D01*
X181495Y333791D02*
X181954Y334250D01*
X182873D01*
X183332Y333791D01*
Y333332D01*
X182873Y332873D01*
X182413D01*
X182873D01*
X183332Y332414D01*
Y331955D01*
X182873Y331495D01*
X181954D01*
X181495Y331955D01*
X186087Y334250D02*
X184250D01*
Y331495D01*
X186087D01*
X184250Y332873D02*
X185169D01*
X256693Y299213D02*
X259448D01*
Y297835D01*
X258989Y297376D01*
X258070D01*
X257611Y297835D01*
Y299213D01*
Y298294D02*
X256693Y297376D01*
Y296458D02*
Y295539D01*
Y295998D01*
X259448D01*
X258989Y296458D01*
X259448Y292325D02*
X258989Y293243D01*
X258070Y294162D01*
X257152D01*
X256693Y293703D01*
Y292784D01*
X257152Y292325D01*
X257611D01*
X258070Y292784D01*
Y294162D01*
X259448Y289570D02*
Y291407D01*
X256693D01*
Y289570D01*
X258070Y291407D02*
Y290488D01*
X220866Y311295D02*
Y314050D01*
X222244D01*
X222703Y313591D01*
Y312673D01*
X222244Y312213D01*
X220866D01*
X221784D02*
X222703Y311295D01*
X225458D02*
X223621D01*
X225458Y313132D01*
Y313591D01*
X224999Y314050D01*
X224080D01*
X223621Y313591D01*
X226376D02*
X226835Y314050D01*
X227754D01*
X228213Y313591D01*
Y311754D01*
X227754Y311295D01*
X226835D01*
X226376Y311754D01*
Y313591D01*
X230968Y314050D02*
X229131D01*
Y311295D01*
X230968D01*
X229131Y312673D02*
X230049D01*
X220866Y305512D02*
Y308267D01*
X222244D01*
X222703Y307808D01*
Y306889D01*
X222244Y306430D01*
X220866D01*
X221784D02*
X222703Y305512D01*
X223621D02*
X224539D01*
X224080D01*
Y308267D01*
X223621Y307808D01*
X225917Y305971D02*
X226376Y305512D01*
X227294D01*
X227754Y305971D01*
Y307808D01*
X227294Y308267D01*
X226376D01*
X225917Y307808D01*
Y307348D01*
X226376Y306889D01*
X227754D01*
X230509Y308267D02*
X228672D01*
Y305512D01*
X230509D01*
X228672Y306889D02*
X229590D01*
X225065Y329067D02*
X224606Y329527D01*
X223688D01*
X223228Y329067D01*
Y327231D01*
X223688Y326772D01*
X224606D01*
X225065Y327231D01*
X225983Y326772D02*
X226902D01*
X226443D01*
Y329527D01*
X225983Y329067D01*
X229657Y326772D02*
Y329527D01*
X228279Y328149D01*
X230116D01*
X232871Y329527D02*
X231034D01*
Y326772D01*
X232871D01*
X231034Y328149D02*
X231953D01*
X225065Y322768D02*
X224606Y323228D01*
X223688D01*
X223228Y322768D01*
Y320932D01*
X223688Y320472D01*
X224606D01*
X225065Y320932D01*
X225983Y320472D02*
X226902D01*
X226443D01*
Y323228D01*
X225983Y322768D01*
X230116Y323228D02*
X228279D01*
Y321850D01*
X229198Y322309D01*
X229657D01*
X230116Y321850D01*
Y320932D01*
X229657Y320472D01*
X228738D01*
X228279Y320932D01*
X232871Y323228D02*
X231034D01*
Y320472D01*
X232871D01*
X231034Y321850D02*
X231953D01*
X388451Y265682D02*
X387992Y266141D01*
X387073D01*
X386614Y265682D01*
Y263845D01*
X387073Y263386D01*
X387992D01*
X388451Y263845D01*
X389369Y265682D02*
X389828Y266141D01*
X390747D01*
X391206Y265682D01*
Y265223D01*
X390747Y264763D01*
X390287D01*
X390747D01*
X391206Y264304D01*
Y263845D01*
X390747Y263386D01*
X389828D01*
X389369Y263845D01*
X393961Y266141D02*
X392124D01*
Y264763D01*
X393042D01*
X392124D01*
Y263386D01*
X400721Y281628D02*
X401180Y282087D01*
Y283005D01*
X400721Y283465D01*
X398884D01*
X398425Y283005D01*
Y282087D01*
X398884Y281628D01*
X398425Y278873D02*
Y280710D01*
X400262Y278873D01*
X400721D01*
X401180Y279332D01*
Y280250D01*
X400721Y280710D01*
X401180Y276118D02*
Y277955D01*
X399803D01*
Y277036D01*
Y277955D01*
X398425D01*
X323688Y266010D02*
X323229Y265551D01*
Y264632D01*
X323688Y264173D01*
X325525D01*
X325984Y264632D01*
Y265551D01*
X325525Y266010D01*
X325984Y266928D02*
Y267847D01*
Y267387D01*
X323229D01*
X323688Y266928D01*
Y269224D02*
X323229Y269683D01*
Y270602D01*
X323688Y271061D01*
X324148D01*
X324607Y270602D01*
Y270142D01*
Y270602D01*
X325066Y271061D01*
X325525D01*
X325984Y270602D01*
Y269683D01*
X325525Y269224D01*
X323229Y273816D02*
Y271979D01*
X324607D01*
Y272898D01*
Y271979D01*
X325984D01*
X318372Y338123D02*
X317913Y338582D01*
X316995D01*
X316535Y338123D01*
Y336286D01*
X316995Y335827D01*
X317913D01*
X318372Y336286D01*
X319290Y335827D02*
X320209D01*
X319750D01*
Y338582D01*
X319290Y338123D01*
X321586Y335827D02*
X322505D01*
X322045D01*
Y338582D01*
X321586Y338123D01*
X325719Y338582D02*
X323882D01*
Y337204D01*
X324800D01*
X323882D01*
Y335827D01*
X330971Y343241D02*
X330511Y343700D01*
X329593D01*
X329134Y343241D01*
Y341404D01*
X329593Y340945D01*
X330511D01*
X330971Y341404D01*
X333266Y340945D02*
Y343700D01*
X331889Y342322D01*
X333726D01*
X336481Y343700D02*
X334644D01*
Y342322D01*
X335562D01*
X334644D01*
Y340945D01*
X348819Y268109D02*
Y265354D01*
X350196D01*
X350656Y265813D01*
Y267650D01*
X350196Y268109D01*
X348819D01*
X351574D02*
Y265354D01*
X353411D01*
X354329D02*
X355247D01*
X354788D01*
Y268109D01*
X354329Y267650D01*
X358461Y268109D02*
X356625D01*
Y266732D01*
X357543D01*
X356625D01*
Y265354D01*
X359842Y268109D02*
Y265354D01*
X361220D01*
X361679Y265813D01*
Y267650D01*
X361220Y268109D01*
X359842D01*
X362597D02*
Y265354D01*
X364434D01*
X367189D02*
X365353D01*
X367189Y267191D01*
Y267650D01*
X366730Y268109D01*
X365812D01*
X365353Y267650D01*
X369944Y268109D02*
X368108D01*
Y266732D01*
X369026D01*
X368108D01*
Y265354D01*
X419229Y342860D02*
X420148D01*
X419689D01*
Y340105D01*
X419229D01*
X420148D01*
X423362Y342401D02*
X422903Y342860D01*
X421984D01*
X421525Y342401D01*
Y340564D01*
X421984Y340105D01*
X422903D01*
X423362Y340564D01*
X426117Y340105D02*
X424280D01*
X426117Y341942D01*
Y342401D01*
X425658Y342860D01*
X424739D01*
X424280Y342401D01*
X428872Y342860D02*
X427035D01*
Y341483D01*
X427954D01*
X427035D01*
Y340105D01*
X408136Y276377D02*
X407218D01*
X407677D01*
Y274081D01*
X407218Y273622D01*
X406758D01*
X406299Y274081D01*
X409054Y273163D02*
X410891D01*
X411809Y273622D02*
Y276377D01*
X413187D01*
X413646Y275918D01*
Y275000D01*
X413187Y274540D01*
X411809D01*
X414564Y275459D02*
Y273622D01*
Y274540D01*
X415023Y275000D01*
X415483Y275459D01*
X415942D01*
X417778Y273622D02*
X418697D01*
X419156Y274081D01*
Y275000D01*
X418697Y275459D01*
X417778D01*
X417319Y275000D01*
Y274081D01*
X417778Y273622D01*
X420993Y272704D02*
X421452D01*
X421911Y273163D01*
Y275459D01*
X420534D01*
X420074Y275000D01*
Y274081D01*
X420534Y273622D01*
X421911D01*
X422829D02*
X423748D01*
X423288D01*
Y276377D01*
X422829Y275918D01*
X426962Y276377D02*
X425125D01*
Y275000D01*
X426044D01*
X425125D01*
Y273622D01*
X446063Y329921D02*
X443308D01*
Y331299D01*
X443767Y331758D01*
X444686D01*
X445145Y331299D01*
Y329921D01*
Y330840D02*
X446063Y331758D01*
Y332676D02*
Y333595D01*
Y333135D01*
X443308D01*
X443767Y332676D01*
Y334972D02*
X443308Y335431D01*
Y336350D01*
X443767Y336809D01*
X444226D01*
X444686Y336350D01*
X445145Y336809D01*
X445604D01*
X446063Y336350D01*
Y335431D01*
X445604Y334972D01*
X445145D01*
X444686Y335431D01*
X444226Y334972D01*
X443767D01*
X444686Y335431D02*
Y336350D01*
X443308Y339564D02*
Y337727D01*
X444686D01*
Y338646D01*
Y337727D01*
X446063D01*
X351181Y291732D02*
Y294487D01*
X352559D01*
X353018Y294028D01*
Y293110D01*
X352559Y292651D01*
X351181D01*
X352099D02*
X353018Y291732D01*
X353936D02*
X354854D01*
X354395D01*
Y294487D01*
X353936Y294028D01*
X358069Y294487D02*
X356232D01*
Y293110D01*
X357150Y293569D01*
X357610D01*
X358069Y293110D01*
Y292191D01*
X357610Y291732D01*
X356691D01*
X356232Y292191D01*
X360824Y294487D02*
X358987D01*
Y293110D01*
X359905D01*
X358987D01*
Y291732D01*
X361417D02*
Y294487D01*
X362795D01*
X363254Y294028D01*
Y293110D01*
X362795Y292651D01*
X361417D01*
X362336D02*
X363254Y291732D01*
X364172D02*
X365091D01*
X364632D01*
Y294487D01*
X364172Y294028D01*
X366468Y294487D02*
X368305D01*
Y294028D01*
X366468Y292191D01*
Y291732D01*
X371060Y294487D02*
X369223D01*
Y293110D01*
X370142D01*
X369223D01*
Y291732D01*
X376614Y334645D02*
Y332349D01*
X377073Y331890D01*
X377992D01*
X378451Y332349D01*
Y334645D01*
X381206Y331890D02*
X379369D01*
X381206Y333726D01*
Y334186D01*
X380747Y334645D01*
X379828D01*
X379369Y334186D01*
X383961Y334645D02*
X382124D01*
Y333267D01*
X383043D01*
X382124D01*
Y331890D01*
X325984Y336220D02*
Y333924D01*
X326443Y333465D01*
X327362D01*
X327821Y333924D01*
Y336220D01*
X328739Y335760D02*
X329198Y336220D01*
X330117D01*
X330576Y335760D01*
Y335301D01*
X330117Y334842D01*
X329658D01*
X330117D01*
X330576Y334383D01*
Y333924D01*
X330117Y333465D01*
X329198D01*
X328739Y333924D01*
X333331Y336220D02*
X331494D01*
Y334842D01*
X332413D01*
X331494D01*
Y333465D01*
X397638Y296457D02*
X400393D01*
Y295079D01*
X399934Y294620D01*
X399015D01*
X398556Y295079D01*
Y296457D01*
Y295538D02*
X397638Y294620D01*
Y293702D02*
Y292783D01*
Y293243D01*
X400393D01*
X399934Y293702D01*
X400393Y289569D02*
X399934Y290488D01*
X399015Y291406D01*
X398097D01*
X397638Y290947D01*
Y290028D01*
X398097Y289569D01*
X398556D01*
X399015Y290028D01*
Y291406D01*
X400393Y286814D02*
Y288651D01*
X399015D01*
Y287733D01*
Y288651D01*
X397638D01*
X361100Y309572D02*
Y312328D01*
X362478D01*
X362937Y311868D01*
Y310950D01*
X362478Y310491D01*
X361100D01*
X362018D02*
X362937Y309572D01*
X365692D02*
X363855D01*
X365692Y311409D01*
Y311868D01*
X365233Y312328D01*
X364314D01*
X363855Y311868D01*
X366610D02*
X367069Y312328D01*
X367988D01*
X368447Y311868D01*
Y310032D01*
X367988Y309572D01*
X367069D01*
X366610Y310032D01*
Y311868D01*
X371202Y312328D02*
X369365D01*
Y310950D01*
X370284D01*
X369365D01*
Y309572D01*
X360630Y303543D02*
Y306298D01*
X362007D01*
X362467Y305839D01*
Y304921D01*
X362007Y304462D01*
X360630D01*
X361548D02*
X362467Y303543D01*
X363385D02*
X364303D01*
X363844D01*
Y306298D01*
X363385Y305839D01*
X365681Y304002D02*
X366140Y303543D01*
X367058D01*
X367517Y304002D01*
Y305839D01*
X367058Y306298D01*
X366140D01*
X365681Y305839D01*
Y305380D01*
X366140Y304921D01*
X367517D01*
X370272Y306298D02*
X368436D01*
Y304921D01*
X369354D01*
X368436D01*
Y303543D01*
X365616Y327886D02*
X365157Y328346D01*
X364239D01*
X363779Y327886D01*
Y326050D01*
X364239Y325590D01*
X365157D01*
X365616Y326050D01*
X366534Y325590D02*
X367453D01*
X366994D01*
Y328346D01*
X366534Y327886D01*
X370208Y325590D02*
Y328346D01*
X368830Y326968D01*
X370667D01*
X373422Y328346D02*
X371585D01*
Y326968D01*
X372504D01*
X371585D01*
Y325590D01*
X364829Y321705D02*
X364370Y322165D01*
X363451D01*
X362992Y321705D01*
Y319869D01*
X363451Y319409D01*
X364370D01*
X364829Y319869D01*
X365747Y319409D02*
X366666D01*
X366206D01*
Y322165D01*
X365747Y321705D01*
X369880Y322165D02*
X368043D01*
Y320787D01*
X368961Y321246D01*
X369421D01*
X369880Y320787D01*
Y319869D01*
X369421Y319409D01*
X368502D01*
X368043Y319869D01*
X372635Y322165D02*
X370798D01*
Y320787D01*
X371716D01*
X370798D01*
Y319409D01*
X243569Y159186D02*
X243110Y159645D01*
X242192D01*
X241732Y159186D01*
Y157349D01*
X242192Y156890D01*
X243110D01*
X243569Y157349D01*
X244487Y159186D02*
X244947Y159645D01*
X245865D01*
X246324Y159186D01*
Y158726D01*
X245865Y158267D01*
X245406D01*
X245865D01*
X246324Y157808D01*
Y157349D01*
X245865Y156890D01*
X244947D01*
X244487Y157349D01*
X247242Y159645D02*
Y156890D01*
X248620D01*
X249079Y157349D01*
Y159186D01*
X248620Y159645D01*
X247242D01*
X257020Y178478D02*
X257479Y178937D01*
Y179856D01*
X257020Y180315D01*
X255184D01*
X254724Y179856D01*
Y178937D01*
X255184Y178478D01*
X254724Y175723D02*
Y177560D01*
X256561Y175723D01*
X257020D01*
X257479Y176182D01*
Y177101D01*
X257020Y177560D01*
X257479Y174805D02*
X254724D01*
Y173427D01*
X255184Y172968D01*
X257020D01*
X257479Y173427D01*
Y174805D01*
X181562Y166010D02*
X181103Y165551D01*
Y164632D01*
X181562Y164173D01*
X183399D01*
X183858Y164632D01*
Y165551D01*
X183399Y166010D01*
X183858Y166928D02*
Y167847D01*
Y167387D01*
X181103D01*
X181562Y166928D01*
Y169224D02*
X181103Y169683D01*
Y170602D01*
X181562Y171061D01*
X182022D01*
X182481Y170602D01*
Y170142D01*
Y170602D01*
X182940Y171061D01*
X183399D01*
X183858Y170602D01*
Y169683D01*
X183399Y169224D01*
X181103Y171979D02*
X183858D01*
Y173357D01*
X183399Y173816D01*
X181562D01*
X181103Y173357D01*
Y171979D01*
X177033Y236548D02*
X176574Y237007D01*
X175656D01*
X175197Y236548D01*
Y234711D01*
X175656Y234252D01*
X176574D01*
X177033Y234711D01*
X177952Y234252D02*
X178870D01*
X178411D01*
Y237007D01*
X177952Y236548D01*
X180248Y234252D02*
X181166D01*
X180707D01*
Y237007D01*
X180248Y236548D01*
X182544Y237007D02*
Y234252D01*
X183921D01*
X184380Y234711D01*
Y236548D01*
X183921Y237007D01*
X182544D01*
X186111Y226312D02*
X185652Y226771D01*
X184733D01*
X184274Y226312D01*
Y224475D01*
X184733Y224016D01*
X185652D01*
X186111Y224475D01*
X188407Y224016D02*
Y226771D01*
X187029Y225393D01*
X188866D01*
X189784Y226771D02*
Y224016D01*
X191162D01*
X191621Y224475D01*
Y226312D01*
X191162Y226771D01*
X189784D01*
X204724Y161416D02*
Y158661D01*
X206102D01*
X206561Y159121D01*
Y160957D01*
X206102Y161416D01*
X204724D01*
X207479D02*
Y158661D01*
X209316D01*
X210234D02*
X211153D01*
X210694D01*
Y161416D01*
X210234Y160957D01*
X212530Y161416D02*
Y158661D01*
X213908D01*
X214367Y159121D01*
Y160957D01*
X213908Y161416D01*
X212530D01*
X216142D02*
Y158661D01*
X217519D01*
X217978Y159121D01*
Y160957D01*
X217519Y161416D01*
X216142D01*
X218897D02*
Y158661D01*
X220733D01*
X223488D02*
X221652D01*
X223488Y160498D01*
Y160957D01*
X223029Y161416D01*
X222111D01*
X221652Y160957D01*
X224407Y161416D02*
Y158661D01*
X225784D01*
X226243Y159121D01*
Y160957D01*
X225784Y161416D01*
X224407D01*
X273425Y235472D02*
X274343D01*
X273884D01*
Y232716D01*
X273425D01*
X274343D01*
X277558Y235012D02*
X277098Y235472D01*
X276180D01*
X275721Y235012D01*
Y233176D01*
X276180Y232716D01*
X277098D01*
X277558Y233176D01*
X280313Y232716D02*
X278476D01*
X280313Y234553D01*
Y235012D01*
X279854Y235472D01*
X278935D01*
X278476Y235012D01*
X281231Y235472D02*
Y232716D01*
X282609D01*
X283068Y233176D01*
Y235012D01*
X282609Y235472D01*
X281231D01*
X264829Y169684D02*
X263911D01*
X264370D01*
Y167388D01*
X263911Y166929D01*
X263451D01*
X262992Y167388D01*
X265747Y166470D02*
X267584D01*
X268502Y166929D02*
Y169684D01*
X269880D01*
X270339Y169225D01*
Y168307D01*
X269880Y167848D01*
X268502D01*
X271257Y168766D02*
Y166929D01*
Y167848D01*
X271716Y168307D01*
X272176Y168766D01*
X272635D01*
X274471Y166929D02*
X275390D01*
X275849Y167388D01*
Y168307D01*
X275390Y168766D01*
X274471D01*
X274012Y168307D01*
Y167388D01*
X274471Y166929D01*
X277686Y166011D02*
X278145D01*
X278604Y166470D01*
Y168766D01*
X277226D01*
X276767Y168307D01*
Y167388D01*
X277226Y166929D01*
X278604D01*
X279522D02*
X280441D01*
X279981D01*
Y169684D01*
X279522Y169225D01*
X281818Y169684D02*
Y166929D01*
X283196D01*
X283655Y167388D01*
Y169225D01*
X283196Y169684D01*
X281818D01*
X287008Y239764D02*
Y242519D01*
X288385D01*
X288844Y242060D01*
Y241141D01*
X288385Y240682D01*
X287008D01*
X287926D02*
X288844Y239764D01*
X289763D02*
X290681D01*
X290222D01*
Y242519D01*
X289763Y242060D01*
X292059D02*
X292518Y242519D01*
X293436D01*
X293895Y242060D01*
Y241600D01*
X293436Y241141D01*
X293895Y240682D01*
Y240223D01*
X293436Y239764D01*
X292518D01*
X292059Y240223D01*
Y240682D01*
X292518Y241141D01*
X292059Y241600D01*
Y242060D01*
X292518Y241141D02*
X293436D01*
X294814Y242519D02*
Y239764D01*
X296191D01*
X296650Y240223D01*
Y242060D01*
X296191Y242519D01*
X294814D01*
X207874Y185433D02*
Y188188D01*
X209251D01*
X209711Y187729D01*
Y186811D01*
X209251Y186351D01*
X207874D01*
X208792D02*
X209711Y185433D01*
X210629D02*
X211547D01*
X211088D01*
Y188188D01*
X210629Y187729D01*
X214762Y188188D02*
X212925D01*
Y186811D01*
X213843Y187270D01*
X214302D01*
X214762Y186811D01*
Y185892D01*
X214302Y185433D01*
X213384D01*
X212925Y185892D01*
X215680Y188188D02*
Y185433D01*
X217057D01*
X217517Y185892D01*
Y187729D01*
X217057Y188188D01*
X215680D01*
X217717Y185433D02*
Y188188D01*
X219094D01*
X219553Y187729D01*
Y186811D01*
X219094Y186351D01*
X217717D01*
X218635D02*
X219553Y185433D01*
X220472D02*
X221390D01*
X220931D01*
Y188188D01*
X220472Y187729D01*
X222767Y188188D02*
X224604D01*
Y187729D01*
X222767Y185892D01*
Y185433D01*
X225522Y188188D02*
Y185433D01*
X226900D01*
X227359Y185892D01*
Y187729D01*
X226900Y188188D01*
X225522D01*
X246850Y226377D02*
Y224081D01*
X247310Y223622D01*
X248228D01*
X248687Y224081D01*
Y226377D01*
X251442Y223622D02*
X249605D01*
X251442Y225459D01*
Y225918D01*
X250983Y226377D01*
X250065D01*
X249605Y225918D01*
X252360Y226377D02*
Y223622D01*
X253738D01*
X254197Y224081D01*
Y225918D01*
X253738Y226377D01*
X252360D01*
X186727Y240550D02*
Y238254D01*
X187186Y237795D01*
X188104D01*
X188563Y238254D01*
Y240550D01*
X189482Y240091D02*
X189941Y240550D01*
X190859D01*
X191318Y240091D01*
Y239632D01*
X190859Y239173D01*
X190400D01*
X190859D01*
X191318Y238714D01*
Y238254D01*
X190859Y237795D01*
X189941D01*
X189482Y238254D01*
X192237Y240550D02*
Y237795D01*
X193614D01*
X194073Y238254D01*
Y240091D01*
X193614Y240550D01*
X192237D01*
X253937Y192126D02*
X256692D01*
Y190749D01*
X256233Y190289D01*
X255314D01*
X254855Y190749D01*
Y192126D01*
Y191208D02*
X253937Y190289D01*
Y189371D02*
Y188453D01*
Y188912D01*
X256692D01*
X256233Y189371D01*
X256692Y185238D02*
X256233Y186157D01*
X255314Y187075D01*
X254396D01*
X253937Y186616D01*
Y185698D01*
X254396Y185238D01*
X254855D01*
X255314Y185698D01*
Y187075D01*
X256692Y184320D02*
X253937D01*
Y182943D01*
X254396Y182483D01*
X256233D01*
X256692Y182943D01*
Y184320D01*
X217566Y203937D02*
Y206692D01*
X218944D01*
X219403Y206233D01*
Y205314D01*
X218944Y204855D01*
X217566D01*
X218484D02*
X219403Y203937D01*
X222158D02*
X220321D01*
X222158Y205774D01*
Y206233D01*
X221699Y206692D01*
X220780D01*
X220321Y206233D01*
X223076D02*
X223535Y206692D01*
X224454D01*
X224913Y206233D01*
Y204396D01*
X224454Y203937D01*
X223535D01*
X223076Y204396D01*
Y206233D01*
X225831Y206692D02*
Y203937D01*
X227209D01*
X227668Y204396D01*
Y206233D01*
X227209Y206692D01*
X225831D01*
X217066Y197638D02*
Y200393D01*
X218444D01*
X218903Y199934D01*
Y199015D01*
X218444Y198556D01*
X217066D01*
X217985D02*
X218903Y197638D01*
X219821D02*
X220740D01*
X220280D01*
Y200393D01*
X219821Y199934D01*
X222117Y198097D02*
X222576Y197638D01*
X223495D01*
X223954Y198097D01*
Y199934D01*
X223495Y200393D01*
X222576D01*
X222117Y199934D01*
Y199475D01*
X222576Y199015D01*
X223954D01*
X224872Y200393D02*
Y197638D01*
X226250D01*
X226709Y198097D01*
Y199934D01*
X226250Y200393D01*
X224872D01*
X221522Y221587D02*
X221063Y222046D01*
X220144D01*
X219685Y221587D01*
Y219750D01*
X220144Y219291D01*
X221063D01*
X221522Y219750D01*
X222440Y219291D02*
X223358D01*
X222899D01*
Y222046D01*
X222440Y221587D01*
X226113Y219291D02*
Y222046D01*
X224736Y220669D01*
X226573D01*
X227491Y222046D02*
Y219291D01*
X228868D01*
X229328Y219750D01*
Y221587D01*
X228868Y222046D01*
X227491D01*
X221128Y215288D02*
X220669Y215747D01*
X219750D01*
X219291Y215288D01*
Y213451D01*
X219750Y212992D01*
X220669D01*
X221128Y213451D01*
X222046Y212992D02*
X222965D01*
X222505D01*
Y215747D01*
X222046Y215288D01*
X226179Y215747D02*
X224342D01*
Y214370D01*
X225261Y214829D01*
X225720D01*
X226179Y214370D01*
Y213451D01*
X225720Y212992D01*
X224801D01*
X224342Y213451D01*
X227097Y215747D02*
Y212992D01*
X228475D01*
X228934Y213451D01*
Y215288D01*
X228475Y215747D01*
X227097D01*
X384514Y162532D02*
X384055Y162991D01*
X383136D01*
X382677Y162532D01*
Y160695D01*
X383136Y160236D01*
X384055D01*
X384514Y160695D01*
X385432Y162532D02*
X385891Y162991D01*
X386810D01*
X387269Y162532D01*
Y162073D01*
X386810Y161614D01*
X386350D01*
X386810D01*
X387269Y161155D01*
Y160695D01*
X386810Y160236D01*
X385891D01*
X385432Y160695D01*
X390024Y162532D02*
X389565Y162991D01*
X388646D01*
X388187Y162532D01*
Y160695D01*
X388646Y160236D01*
X389565D01*
X390024Y160695D01*
X397571Y180447D02*
X398031Y180906D01*
Y181824D01*
X397571Y182283D01*
X395735D01*
X395276Y181824D01*
Y180906D01*
X395735Y180447D01*
X395276Y177692D02*
Y179528D01*
X397112Y177692D01*
X397571D01*
X398031Y178151D01*
Y179069D01*
X397571Y179528D01*
Y174937D02*
X398031Y175396D01*
Y176314D01*
X397571Y176773D01*
X395735D01*
X395276Y176314D01*
Y175396D01*
X395735Y174937D01*
X322901Y167978D02*
X322442Y167519D01*
Y166601D01*
X322901Y166142D01*
X324738D01*
X325197Y166601D01*
Y167519D01*
X324738Y167978D01*
X325197Y168897D02*
Y169815D01*
Y169356D01*
X322442D01*
X322901Y168897D01*
Y171193D02*
X322442Y171652D01*
Y172570D01*
X322901Y173029D01*
X323360D01*
X323819Y172570D01*
Y172111D01*
Y172570D01*
X324278Y173029D01*
X324738D01*
X325197Y172570D01*
Y171652D01*
X324738Y171193D01*
X322901Y175784D02*
X322442Y175325D01*
Y174407D01*
X322901Y173948D01*
X324738D01*
X325197Y174407D01*
Y175325D01*
X324738Y175784D01*
X312665Y239632D02*
X312206Y239173D01*
Y238254D01*
X312665Y237795D01*
X314502D01*
X314961Y238254D01*
Y239173D01*
X314502Y239632D01*
X314961Y240550D02*
Y241469D01*
Y241009D01*
X312206D01*
X312665Y240550D01*
X314961Y242846D02*
Y243764D01*
Y243305D01*
X312206D01*
X312665Y242846D01*
Y246979D02*
X312206Y246519D01*
Y245601D01*
X312665Y245142D01*
X314502D01*
X314961Y245601D01*
Y246519D01*
X314502Y246979D01*
X323884Y233398D02*
X323425Y233857D01*
X322506D01*
X322047Y233398D01*
Y231561D01*
X322506Y231102D01*
X323425D01*
X323884Y231561D01*
X326180Y231102D02*
Y233857D01*
X324802Y232480D01*
X326639D01*
X329394Y233398D02*
X328935Y233857D01*
X328016D01*
X327557Y233398D01*
Y231561D01*
X328016Y231102D01*
X328935D01*
X329394Y231561D01*
X346063Y163385D02*
Y160630D01*
X347441D01*
X347900Y161089D01*
Y162926D01*
X347441Y163385D01*
X346063D01*
X348818D02*
Y160630D01*
X350655D01*
X351573D02*
X352491D01*
X352032D01*
Y163385D01*
X351573Y162926D01*
X355706D02*
X355246Y163385D01*
X354328D01*
X353869Y162926D01*
Y161089D01*
X354328Y160630D01*
X355246D01*
X355706Y161089D01*
X356693Y163385D02*
Y160630D01*
X358070D01*
X358530Y161089D01*
Y162926D01*
X358070Y163385D01*
X356693D01*
X359448D02*
Y160630D01*
X361285D01*
X364040D02*
X362203D01*
X364040Y162467D01*
Y162926D01*
X363580Y163385D01*
X362662D01*
X362203Y162926D01*
X366795D02*
X366336Y163385D01*
X365417D01*
X364958Y162926D01*
Y161089D01*
X365417Y160630D01*
X366336D01*
X366795Y161089D01*
X414567Y238188D02*
X415485D01*
X415026D01*
Y235433D01*
X414567D01*
X415485D01*
X418700Y237729D02*
X418240Y238188D01*
X417322D01*
X416863Y237729D01*
Y235892D01*
X417322Y235433D01*
X418240D01*
X418700Y235892D01*
X421454Y235433D02*
X419618D01*
X421454Y237270D01*
Y237729D01*
X420995Y238188D01*
X420077D01*
X419618Y237729D01*
X424209D02*
X423750Y238188D01*
X422832D01*
X422373Y237729D01*
Y235892D01*
X422832Y235433D01*
X423750D01*
X424209Y235892D01*
X405380Y171653D02*
X404462D01*
X404921D01*
Y169357D01*
X404462Y168898D01*
X404003D01*
X403543Y169357D01*
X406298Y168438D02*
X408135D01*
X409053Y168898D02*
Y171653D01*
X410431D01*
X410890Y171194D01*
Y170275D01*
X410431Y169816D01*
X409053D01*
X411808Y170734D02*
Y168898D01*
Y169816D01*
X412267Y170275D01*
X412727Y170734D01*
X413186D01*
X415023Y168898D02*
X415941D01*
X416400Y169357D01*
Y170275D01*
X415941Y170734D01*
X415023D01*
X414563Y170275D01*
Y169357D01*
X415023Y168898D01*
X418237Y167979D02*
X418696D01*
X419155Y168438D01*
Y170734D01*
X417778D01*
X417318Y170275D01*
Y169357D01*
X417778Y168898D01*
X419155D01*
X420073D02*
X420992D01*
X420533D01*
Y171653D01*
X420073Y171194D01*
X424206D02*
X423747Y171653D01*
X422828D01*
X422369Y171194D01*
Y169357D01*
X422828Y168898D01*
X423747D01*
X424206Y169357D01*
X438972Y234833D02*
Y237588D01*
X440349D01*
X440808Y237129D01*
Y236210D01*
X440349Y235751D01*
X438972D01*
X439890D02*
X440808Y234833D01*
X441727D02*
X442645D01*
X442186D01*
Y237588D01*
X441727Y237129D01*
X444023D02*
X444482Y237588D01*
X445400D01*
X445859Y237129D01*
Y236669D01*
X445400Y236210D01*
X445859Y235751D01*
Y235292D01*
X445400Y234833D01*
X444482D01*
X444023Y235292D01*
Y235751D01*
X444482Y236210D01*
X444023Y236669D01*
Y237129D01*
X444482Y236210D02*
X445400D01*
X448614Y237129D02*
X448155Y237588D01*
X447237D01*
X446777Y237129D01*
Y235292D01*
X447237Y234833D01*
X448155D01*
X448614Y235292D01*
X348031Y187402D02*
Y190157D01*
X349409D01*
X349868Y189697D01*
Y188779D01*
X349409Y188320D01*
X348031D01*
X348950D02*
X349868Y187402D01*
X350786D02*
X351705D01*
X351246D01*
Y190157D01*
X350786Y189697D01*
X354919Y190157D02*
X353082D01*
Y188779D01*
X354001Y189238D01*
X354460D01*
X354919Y188779D01*
Y187861D01*
X354460Y187402D01*
X353541D01*
X353082Y187861D01*
X357674Y189697D02*
X357215Y190157D01*
X356297D01*
X355837Y189697D01*
Y187861D01*
X356297Y187402D01*
X357215D01*
X357674Y187861D01*
X359449Y187008D02*
Y189763D01*
X360826D01*
X361285Y189304D01*
Y188385D01*
X360826Y187926D01*
X359449D01*
X360367D02*
X361285Y187008D01*
X362204D02*
X363122D01*
X362663D01*
Y189763D01*
X362204Y189304D01*
X364500Y189763D02*
X366336D01*
Y189304D01*
X364500Y187467D01*
Y187008D01*
X369091Y189304D02*
X368632Y189763D01*
X367714D01*
X367255Y189304D01*
Y187467D01*
X367714Y187008D01*
X368632D01*
X369091Y187467D01*
X388188Y229802D02*
Y227506D01*
X388647Y227047D01*
X389566D01*
X390025Y227506D01*
Y229802D01*
X392780Y227047D02*
X390943D01*
X392780Y228884D01*
Y229343D01*
X392321Y229802D01*
X391402D01*
X390943Y229343D01*
X395535D02*
X395076Y229802D01*
X394157D01*
X393698Y229343D01*
Y227506D01*
X394157Y227047D01*
X395076D01*
X395535Y227506D01*
X319291Y229527D02*
Y227231D01*
X319750Y226772D01*
X320669D01*
X321128Y227231D01*
Y229527D01*
X322046Y229067D02*
X322505Y229527D01*
X323424D01*
X323883Y229067D01*
Y228608D01*
X323424Y228149D01*
X322965D01*
X323424D01*
X323883Y227690D01*
Y227231D01*
X323424Y226772D01*
X322505D01*
X322046Y227231D01*
X326638Y229067D02*
X326179Y229527D01*
X325261D01*
X324801Y229067D01*
Y227231D01*
X325261Y226772D01*
X326179D01*
X326638Y227231D01*
X394488Y194488D02*
X397243D01*
Y193111D01*
X396784Y192651D01*
X395866D01*
X395407Y193111D01*
Y194488D01*
Y193570D02*
X394488Y192651D01*
Y191733D02*
Y190815D01*
Y191274D01*
X397243D01*
X396784Y191733D01*
X397243Y187601D02*
X396784Y188519D01*
X395866Y189437D01*
X394947D01*
X394488Y188978D01*
Y188060D01*
X394947Y187601D01*
X395407D01*
X395866Y188060D01*
Y189437D01*
X396784Y184846D02*
X397243Y185305D01*
Y186223D01*
X396784Y186682D01*
X394947D01*
X394488Y186223D01*
Y185305D01*
X394947Y184846D01*
X359055Y206299D02*
Y209054D01*
X360433D01*
X360892Y208595D01*
Y207677D01*
X360433Y207218D01*
X359055D01*
X359974D02*
X360892Y206299D01*
X363647D02*
X361810D01*
X363647Y208136D01*
Y208595D01*
X363188Y209054D01*
X362269D01*
X361810Y208595D01*
X364565D02*
X365024Y209054D01*
X365943D01*
X366402Y208595D01*
Y206758D01*
X365943Y206299D01*
X365024D01*
X364565Y206758D01*
Y208595D01*
X369157D02*
X368698Y209054D01*
X367779D01*
X367320Y208595D01*
Y206758D01*
X367779Y206299D01*
X368698D01*
X369157Y206758D01*
X359055Y200787D02*
Y203542D01*
X360433D01*
X360892Y203083D01*
Y202165D01*
X360433Y201706D01*
X359055D01*
X359974D02*
X360892Y200787D01*
X361810D02*
X362729D01*
X362269D01*
Y203542D01*
X361810Y203083D01*
X364106Y201247D02*
X364565Y200787D01*
X365483D01*
X365943Y201247D01*
Y203083D01*
X365483Y203542D01*
X364565D01*
X364106Y203083D01*
Y202624D01*
X364565Y202165D01*
X365943D01*
X368698Y203083D02*
X368238Y203542D01*
X367320D01*
X366861Y203083D01*
Y201247D01*
X367320Y200787D01*
X368238D01*
X368698Y201247D01*
X362467Y223162D02*
X362007Y223621D01*
X361089D01*
X360630Y223162D01*
Y221325D01*
X361089Y220866D01*
X362007D01*
X362467Y221325D01*
X363385Y220866D02*
X364303D01*
X363844D01*
Y223621D01*
X363385Y223162D01*
X367058Y220866D02*
Y223621D01*
X365681Y222244D01*
X367517D01*
X370272Y223162D02*
X369813Y223621D01*
X368895D01*
X368436Y223162D01*
Y221325D01*
X368895Y220866D01*
X369813D01*
X370272Y221325D01*
X362467Y216863D02*
X362007Y217322D01*
X361089D01*
X360630Y216863D01*
Y215026D01*
X361089Y214567D01*
X362007D01*
X362467Y215026D01*
X363385Y214567D02*
X364303D01*
X363844D01*
Y217322D01*
X363385Y216863D01*
X367517Y217322D02*
X365681D01*
Y215944D01*
X366599Y216404D01*
X367058D01*
X367517Y215944D01*
Y215026D01*
X367058Y214567D01*
X366140D01*
X365681Y215026D01*
X370272Y216863D02*
X369813Y217322D01*
X368895D01*
X368436Y216863D01*
Y215026D01*
X368895Y214567D01*
X369813D01*
X370272Y215026D01*
X521915Y300721D02*
X521456Y301180D01*
X520538D01*
X520079Y300721D01*
Y298884D01*
X520538Y298425D01*
X521456D01*
X521915Y298884D01*
X522834Y300721D02*
X523293Y301180D01*
X524211D01*
X524670Y300721D01*
Y300262D01*
X524211Y299803D01*
X523752D01*
X524211D01*
X524670Y299343D01*
Y298884D01*
X524211Y298425D01*
X523293D01*
X522834Y298884D01*
X525589Y301180D02*
Y298425D01*
X526966D01*
X527425Y298884D01*
Y299343D01*
X526966Y299803D01*
X525589D01*
X526966D01*
X527425Y300262D01*
Y300721D01*
X526966Y301180D01*
X525589D01*
X538123Y289896D02*
X538582Y290355D01*
Y291273D01*
X538123Y291732D01*
X536286D01*
X535827Y291273D01*
Y290355D01*
X536286Y289896D01*
X535827Y287141D02*
Y288977D01*
X537664Y287141D01*
X538123D01*
X538582Y287600D01*
Y288518D01*
X538123Y288977D01*
X538582Y286222D02*
X535827D01*
Y284845D01*
X536286Y284386D01*
X536745D01*
X537204Y284845D01*
Y286222D01*
Y284845D01*
X537664Y284386D01*
X538123D01*
X538582Y284845D01*
Y286222D01*
X474935Y268248D02*
X475394Y267788D01*
X476312D01*
X476772Y268248D01*
Y270084D01*
X476312Y270543D01*
X475394D01*
X474935Y270084D01*
X474017Y270543D02*
X473098D01*
X473558D01*
Y267788D01*
X474017Y268248D01*
X471721D02*
X471262Y267788D01*
X470343D01*
X469884Y268248D01*
Y268707D01*
X470343Y269166D01*
X470802D01*
X470343D01*
X469884Y269625D01*
Y270084D01*
X470343Y270543D01*
X471262D01*
X471721Y270084D01*
X468966Y267788D02*
Y270543D01*
X467588D01*
X467129Y270084D01*
Y269625D01*
X467588Y269166D01*
X468966D01*
X467588D01*
X467129Y268707D01*
Y268248D01*
X467588Y267788D01*
X468966D01*
X449869Y334908D02*
X449410Y334448D01*
Y333530D01*
X449869Y333071D01*
X451706D01*
X452165Y333530D01*
Y334448D01*
X451706Y334908D01*
X452165Y335826D02*
Y336744D01*
Y336285D01*
X449410D01*
X449869Y335826D01*
X452165Y338122D02*
Y339040D01*
Y338581D01*
X449410D01*
X449869Y338122D01*
X449410Y340418D02*
X452165D01*
Y341795D01*
X451706Y342254D01*
X451247D01*
X450788Y341795D01*
Y340418D01*
Y341795D01*
X450329Y342254D01*
X449869D01*
X449410Y341795D01*
Y340418D01*
X464435Y342060D02*
X463976Y342519D01*
X463058D01*
X462598Y342060D01*
Y340223D01*
X463058Y339764D01*
X463976D01*
X464435Y340223D01*
X466731Y339764D02*
Y342519D01*
X465353Y341141D01*
X467190D01*
X468109Y342519D02*
Y339764D01*
X469486D01*
X469945Y340223D01*
Y340682D01*
X469486Y341141D01*
X468109D01*
X469486D01*
X469945Y341600D01*
Y342060D01*
X469486Y342519D01*
X468109D01*
X486614Y272440D02*
Y269685D01*
X487992D01*
X488451Y270144D01*
Y271981D01*
X487992Y272440D01*
X486614D01*
X489369D02*
Y269685D01*
X491206D01*
X492124D02*
X493043D01*
X492583D01*
Y272440D01*
X492124Y271981D01*
X494420Y272440D02*
Y269685D01*
X495798D01*
X496257Y270144D01*
Y270603D01*
X495798Y271063D01*
X494420D01*
X495798D01*
X496257Y271522D01*
Y271981D01*
X495798Y272440D01*
X494420D01*
X497638D02*
Y269685D01*
X499015D01*
X499474Y270144D01*
Y271981D01*
X499015Y272440D01*
X497638D01*
X500393D02*
Y269685D01*
X502229D01*
X504985D02*
X503148D01*
X504985Y271522D01*
Y271981D01*
X504525Y272440D01*
X503607D01*
X503148Y271981D01*
X505903Y272440D02*
Y269685D01*
X507280D01*
X507739Y270144D01*
Y270603D01*
X507280Y271063D01*
X505903D01*
X507280D01*
X507739Y271522D01*
Y271981D01*
X507280Y272440D01*
X505903D01*
X546400Y348155D02*
X547318D01*
X546859D01*
Y345400D01*
X546400D01*
X547318D01*
X550532Y347696D02*
X550073Y348155D01*
X549155D01*
X548696Y347696D01*
Y345859D01*
X549155Y345400D01*
X550073D01*
X550532Y345859D01*
X553288Y345400D02*
X551451D01*
X553288Y347237D01*
Y347696D01*
X552828Y348155D01*
X551910D01*
X551451Y347696D01*
X554206Y348155D02*
Y345400D01*
X555583D01*
X556043Y345859D01*
Y346318D01*
X555583Y346778D01*
X554206D01*
X555583D01*
X556043Y347237D01*
Y347696D01*
X555583Y348155D01*
X554206D01*
X545931Y280708D02*
X545013D01*
X545472D01*
Y278412D01*
X545013Y277953D01*
X544554D01*
X544095Y278412D01*
X546849Y277494D02*
X548686D01*
X549605Y277953D02*
Y280708D01*
X550982D01*
X551441Y280249D01*
Y279330D01*
X550982Y278871D01*
X549605D01*
X552360Y279789D02*
Y277953D01*
Y278871D01*
X552819Y279330D01*
X553278Y279789D01*
X553737D01*
X555574Y277953D02*
X556492D01*
X556951Y278412D01*
Y279330D01*
X556492Y279789D01*
X555574D01*
X555115Y279330D01*
Y278412D01*
X555574Y277953D01*
X558788Y277034D02*
X559247D01*
X559706Y277494D01*
Y279789D01*
X558329D01*
X557870Y279330D01*
Y278412D01*
X558329Y277953D01*
X559706D01*
X560625D02*
X561543D01*
X561084D01*
Y280708D01*
X560625Y280249D01*
X562921Y280708D02*
Y277953D01*
X564298D01*
X564757Y278412D01*
Y278871D01*
X564298Y279330D01*
X562921D01*
X564298D01*
X564757Y279789D01*
Y280249D01*
X564298Y280708D01*
X562921D01*
X582677Y340158D02*
X585432D01*
Y338780D01*
X584973Y338321D01*
X584055D01*
X583596Y338780D01*
Y340158D01*
Y339239D02*
X582677Y338321D01*
Y337403D02*
Y336484D01*
Y336943D01*
X585432D01*
X584973Y337403D01*
Y335107D02*
X585432Y334647D01*
Y333729D01*
X584973Y333270D01*
X584514D01*
X584055Y333729D01*
X583596Y333270D01*
X583136D01*
X582677Y333729D01*
Y334647D01*
X583136Y335107D01*
X583596D01*
X584055Y334647D01*
X584514Y335107D01*
X584973D01*
X584055Y334647D02*
Y333729D01*
X585432Y332352D02*
X582677D01*
Y330974D01*
X583136Y330515D01*
X583596D01*
X584055Y330974D01*
Y332352D01*
Y330974D01*
X584514Y330515D01*
X584973D01*
X585432Y330974D01*
Y332352D01*
X488976Y296457D02*
Y299212D01*
X490354D01*
X490813Y298753D01*
Y297834D01*
X490354Y297375D01*
X488976D01*
X489895D02*
X490813Y296457D01*
X491731D02*
X492650D01*
X492191D01*
Y299212D01*
X491731Y298753D01*
X495864Y299212D02*
X494027D01*
Y297834D01*
X494946Y298293D01*
X495405D01*
X495864Y297834D01*
Y296916D01*
X495405Y296457D01*
X494486D01*
X494027Y296916D01*
X496782Y299212D02*
Y296457D01*
X498160D01*
X498619Y296916D01*
Y297375D01*
X498160Y297834D01*
X496782D01*
X498160D01*
X498619Y298293D01*
Y298753D01*
X498160Y299212D01*
X496782D01*
X500000Y296161D02*
Y298916D01*
X501377D01*
X501837Y298457D01*
Y297539D01*
X501377Y297080D01*
X500000D01*
X500918D02*
X501837Y296161D01*
X502755D02*
X503673D01*
X503214D01*
Y298916D01*
X502755Y298457D01*
X505051Y298916D02*
X506888D01*
Y298457D01*
X505051Y296621D01*
Y296161D01*
X507806Y298916D02*
Y296161D01*
X509183D01*
X509643Y296621D01*
Y297080D01*
X509183Y297539D01*
X507806D01*
X509183D01*
X509643Y297998D01*
Y298457D01*
X509183Y298916D01*
X507806D01*
X512992Y340157D02*
Y337861D01*
X513451Y337402D01*
X514370D01*
X514829Y337861D01*
Y340157D01*
X517584Y337402D02*
X515747D01*
X517584Y339238D01*
Y339697D01*
X517125Y340157D01*
X516206D01*
X515747Y339697D01*
X518502Y340157D02*
Y337402D01*
X519880D01*
X520339Y337861D01*
Y338320D01*
X519880Y338779D01*
X518502D01*
X519880D01*
X520339Y339238D01*
Y339697D01*
X519880Y340157D01*
X518502D01*
X461024Y337794D02*
Y335498D01*
X461483Y335039D01*
X462401D01*
X462860Y335498D01*
Y337794D01*
X463779Y337335D02*
X464238Y337794D01*
X465156D01*
X465615Y337335D01*
Y336876D01*
X465156Y336417D01*
X464697D01*
X465156D01*
X465615Y335958D01*
Y335498D01*
X465156Y335039D01*
X464238D01*
X463779Y335498D01*
X466534Y337794D02*
Y335039D01*
X467911D01*
X468370Y335498D01*
Y335958D01*
X467911Y336417D01*
X466534D01*
X467911D01*
X468370Y336876D01*
Y337335D01*
X467911Y337794D01*
X466534D01*
X535039Y303150D02*
X537794D01*
Y301772D01*
X537335Y301313D01*
X536417D01*
X535958Y301772D01*
Y303150D01*
Y302231D02*
X535039Y301313D01*
Y300395D02*
Y299476D01*
Y299935D01*
X537794D01*
X537335Y300395D01*
X537794Y296262D02*
X537335Y297180D01*
X536417Y298099D01*
X535499D01*
X535039Y297640D01*
Y296721D01*
X535499Y296262D01*
X535958D01*
X536417Y296721D01*
Y298099D01*
X537794Y295344D02*
X535039D01*
Y293966D01*
X535499Y293507D01*
X535958D01*
X536417Y293966D01*
Y295344D01*
Y293966D01*
X536876Y293507D01*
X537335D01*
X537794Y293966D01*
Y295344D01*
X499213Y314961D02*
Y317716D01*
X500590D01*
X501049Y317256D01*
Y316338D01*
X500590Y315879D01*
X499213D01*
X500131D02*
X501049Y314961D01*
X503804D02*
X501968D01*
X503804Y316797D01*
Y317256D01*
X503345Y317716D01*
X502427D01*
X501968Y317256D01*
X504723D02*
X505182Y317716D01*
X506100D01*
X506559Y317256D01*
Y315420D01*
X506100Y314961D01*
X505182D01*
X504723Y315420D01*
Y317256D01*
X507478Y317716D02*
Y314961D01*
X508855D01*
X509314Y315420D01*
Y315879D01*
X508855Y316338D01*
X507478D01*
X508855D01*
X509314Y316797D01*
Y317256D01*
X508855Y317716D01*
X507478D01*
X499213Y309449D02*
Y312204D01*
X500590D01*
X501049Y311745D01*
Y310826D01*
X500590Y310367D01*
X499213D01*
X500131D02*
X501049Y309449D01*
X501968D02*
X502886D01*
X502427D01*
Y312204D01*
X501968Y311745D01*
X504263Y309908D02*
X504723Y309449D01*
X505641D01*
X506100Y309908D01*
Y311745D01*
X505641Y312204D01*
X504723D01*
X504263Y311745D01*
Y311285D01*
X504723Y310826D01*
X506100D01*
X507019Y312204D02*
Y309449D01*
X508396D01*
X508855Y309908D01*
Y310367D01*
X508396Y310826D01*
X507019D01*
X508396D01*
X508855Y311285D01*
Y311745D01*
X508396Y312204D01*
X507019D01*
X503018Y333792D02*
X502559Y334251D01*
X501640D01*
X501181Y333792D01*
Y331955D01*
X501640Y331496D01*
X502559D01*
X503018Y331955D01*
X503936Y331496D02*
X504854D01*
X504395D01*
Y334251D01*
X503936Y333792D01*
X507610Y331496D02*
Y334251D01*
X506232Y332874D01*
X508069D01*
X508987Y334251D02*
Y331496D01*
X510364D01*
X510824Y331955D01*
Y332414D01*
X510364Y332874D01*
X508987D01*
X510364D01*
X510824Y333333D01*
Y333792D01*
X510364Y334251D01*
X508987D01*
X503018Y327493D02*
X502559Y327952D01*
X501640D01*
X501181Y327493D01*
Y325656D01*
X501640Y325197D01*
X502559D01*
X503018Y325656D01*
X503936Y325197D02*
X504854D01*
X504395D01*
Y327952D01*
X503936Y327493D01*
X508069Y327952D02*
X506232D01*
Y326574D01*
X507150Y327033D01*
X507610D01*
X508069Y326574D01*
Y325656D01*
X507610Y325197D01*
X506691D01*
X506232Y325656D01*
X508987Y327952D02*
Y325197D01*
X510364D01*
X510824Y325656D01*
Y326115D01*
X510364Y326574D01*
X508987D01*
X510364D01*
X510824Y327033D01*
Y327493D01*
X510364Y327952D01*
X508987D01*
X498293Y219225D02*
X497834Y219684D01*
X496916D01*
X496457Y219225D01*
Y217388D01*
X496916Y216929D01*
X497834D01*
X498293Y217388D01*
X499212Y216929D02*
X500130D01*
X499671D01*
Y219684D01*
X499212Y219225D01*
X503344Y219684D02*
X501508D01*
Y218307D01*
X502426Y218766D01*
X502885D01*
X503344Y218307D01*
Y217388D01*
X502885Y216929D01*
X501967D01*
X501508Y217388D01*
X504263Y216929D02*
Y218766D01*
X505181Y219684D01*
X506099Y218766D01*
Y216929D01*
Y218307D01*
X504263D01*
X498293Y225524D02*
X497834Y225983D01*
X496916D01*
X496457Y225524D01*
Y223688D01*
X496916Y223228D01*
X497834D01*
X498293Y223688D01*
X499212Y223228D02*
X500130D01*
X499671D01*
Y225983D01*
X499212Y225524D01*
X502885Y223228D02*
Y225983D01*
X501508Y224606D01*
X503344D01*
X504263Y223228D02*
Y225065D01*
X505181Y225983D01*
X506099Y225065D01*
Y223228D01*
Y224606D01*
X504263D01*
X494488Y201575D02*
Y204330D01*
X495866D01*
X496325Y203871D01*
Y202952D01*
X495866Y202493D01*
X494488D01*
X495406D02*
X496325Y201575D01*
X497243D02*
X498162D01*
X497702D01*
Y204330D01*
X497243Y203871D01*
X499539Y202034D02*
X499998Y201575D01*
X500917D01*
X501376Y202034D01*
Y203871D01*
X500917Y204330D01*
X499998D01*
X499539Y203871D01*
Y203412D01*
X499998Y202952D01*
X501376D01*
X502294Y201575D02*
Y203412D01*
X503212Y204330D01*
X504131Y203412D01*
Y201575D01*
Y202952D01*
X502294D01*
X494631Y207068D02*
Y209823D01*
X496008D01*
X496468Y209364D01*
Y208445D01*
X496008Y207986D01*
X494631D01*
X495549D02*
X496468Y207068D01*
X499223D02*
X497386D01*
X499223Y208904D01*
Y209364D01*
X498763Y209823D01*
X497845D01*
X497386Y209364D01*
X500141D02*
X500600Y209823D01*
X501518D01*
X501978Y209364D01*
Y207527D01*
X501518Y207068D01*
X500600D01*
X500141Y207527D01*
Y209364D01*
X502896Y207068D02*
Y208904D01*
X503814Y209823D01*
X504733Y208904D01*
Y207068D01*
Y208445D01*
X502896D01*
X713648Y390485D02*
X713189Y390944D01*
X712270D01*
X711811Y390485D01*
Y390026D01*
X712270Y389566D01*
X713189D01*
X713648Y389107D01*
Y388648D01*
X713189Y388189D01*
X712270D01*
X711811Y388648D01*
X714566Y390944D02*
Y388189D01*
X715484Y389107D01*
X716403Y388189D01*
Y390944D01*
X717321Y388189D02*
X718239D01*
X717780D01*
Y390944D01*
X717321Y390485D01*
X664000Y375000D02*
X661245D01*
Y376378D01*
X661704Y376837D01*
X662622D01*
X663082Y376378D01*
Y375000D01*
Y375918D02*
X664000Y376837D01*
Y377755D02*
Y378673D01*
Y378214D01*
X661245D01*
X661704Y377755D01*
X664000Y381428D02*
X661245D01*
X662622Y380051D01*
Y381888D01*
X674667Y375000D02*
X671912D01*
Y376378D01*
X672371Y376837D01*
X673289D01*
X673748Y376378D01*
Y375000D01*
Y375918D02*
X674667Y376837D01*
Y377755D02*
Y378673D01*
Y378214D01*
X671912D01*
X672371Y377755D01*
Y380051D02*
X671912Y380510D01*
Y381428D01*
X672371Y381888D01*
X672830D01*
X673289Y381428D01*
Y380969D01*
Y381428D01*
X673748Y381888D01*
X674207D01*
X674667Y381428D01*
Y380510D01*
X674207Y380051D01*
X680333Y375000D02*
X677578D01*
Y376378D01*
X678038Y376837D01*
X678956D01*
X679415Y376378D01*
Y375000D01*
Y375918D02*
X680333Y376837D01*
Y377755D02*
Y378673D01*
Y378214D01*
X677578D01*
X678038Y377755D01*
X680333Y381888D02*
Y380051D01*
X678497Y381888D01*
X678038D01*
X677578Y381428D01*
Y380510D01*
X678038Y380051D01*
X669167Y375000D02*
X666412D01*
Y376378D01*
X666871Y376837D01*
X667789D01*
X668248Y376378D01*
Y375000D01*
Y375918D02*
X669167Y376837D01*
Y377755D02*
Y378673D01*
Y378214D01*
X666412D01*
X666871Y377755D01*
X669167Y380051D02*
Y380969D01*
Y380510D01*
X666412D01*
X666871Y380051D01*
X519433Y474815D02*
X522188D01*
Y473437D01*
X521729Y472978D01*
X520811D01*
X520351Y473437D01*
Y474815D01*
Y473896D02*
X519433Y472978D01*
X521729Y472060D02*
X522188Y471601D01*
Y470682D01*
X521729Y470223D01*
X521270D01*
X520811Y470682D01*
X520351Y470223D01*
X519892D01*
X519433Y470682D01*
Y471601D01*
X519892Y472060D01*
X520351D01*
X520811Y471601D01*
X521270Y472060D01*
X521729D01*
X520811Y471601D02*
Y470682D01*
X525339Y474937D02*
X528094D01*
Y473560D01*
X527634Y473100D01*
X526716D01*
X526257Y473560D01*
Y474937D01*
Y474019D02*
X525339Y473100D01*
X528094Y472182D02*
Y470345D01*
X527634D01*
X525798Y472182D01*
X525339D01*
X538976Y474937D02*
X541731D01*
Y473560D01*
X541272Y473100D01*
X540354D01*
X539895Y473560D01*
Y474937D01*
Y474019D02*
X538976Y473100D01*
X541731Y470345D02*
X541272Y471264D01*
X540354Y472182D01*
X539435D01*
X538976Y471723D01*
Y470805D01*
X539435Y470345D01*
X539895D01*
X540354Y470805D01*
Y472182D01*
X544925Y474937D02*
X547680D01*
Y473560D01*
X547221Y473100D01*
X546303D01*
X545844Y473560D01*
Y474937D01*
Y474019D02*
X544925Y473100D01*
X547680Y470345D02*
Y472182D01*
X546303D01*
X546762Y471264D01*
Y470805D01*
X546303Y470345D01*
X545384D01*
X544925Y470805D01*
Y471723D01*
X545384Y472182D01*
X594882Y446457D02*
Y449212D01*
X596259D01*
X596719Y448752D01*
Y447834D01*
X596259Y447375D01*
X594882D01*
X595800D02*
X596719Y446457D01*
X599014D02*
Y449212D01*
X597637Y447834D01*
X599474D01*
X594882Y439370D02*
Y442125D01*
X596259D01*
X596719Y441666D01*
Y440748D01*
X596259Y440288D01*
X594882D01*
X595800D02*
X596719Y439370D01*
X597637Y441666D02*
X598096Y442125D01*
X599014D01*
X599474Y441666D01*
Y441207D01*
X599014Y440748D01*
X598555D01*
X599014D01*
X599474Y440288D01*
Y439829D01*
X599014Y439370D01*
X598096D01*
X597637Y439829D01*
X594882Y433071D02*
Y435826D01*
X596259D01*
X596719Y435367D01*
Y434448D01*
X596259Y433989D01*
X594882D01*
X595800D02*
X596719Y433071D01*
X599474D02*
X597637D01*
X599474Y434907D01*
Y435367D01*
X599014Y435826D01*
X598096D01*
X597637Y435367D01*
X594882Y425984D02*
Y428739D01*
X596259D01*
X596719Y428280D01*
Y427362D01*
X596259Y426903D01*
X594882D01*
X595800D02*
X596719Y425984D01*
X597637D02*
X598555D01*
X598096D01*
Y428739D01*
X597637Y428280D01*
X531102Y199213D02*
X533857D01*
Y197835D01*
X533398Y197376D01*
X532480D01*
X532021Y197835D01*
Y199213D01*
Y198294D02*
X531102Y197376D01*
Y196458D02*
Y195539D01*
Y195998D01*
X533857D01*
X533398Y196458D01*
X533857Y192325D02*
X533398Y193243D01*
X532480Y194162D01*
X531562D01*
X531102Y193703D01*
Y192784D01*
X531562Y192325D01*
X532021D01*
X532480Y192784D01*
Y194162D01*
X531102Y191407D02*
X532939D01*
X533857Y190488D01*
X532939Y189570D01*
X531102D01*
X532480D01*
Y191407D01*
X499474Y436223D02*
X499015Y436682D01*
X498097D01*
X497638Y436223D01*
Y434386D01*
X498097Y433927D01*
X499015D01*
X499474Y434386D01*
X500393Y436682D02*
X502229D01*
Y436223D01*
X500393Y434386D01*
Y433927D01*
X454724Y231101D02*
Y228806D01*
X455184Y228346D01*
X456102D01*
X456561Y228806D01*
Y231101D01*
X457479Y230642D02*
X457939Y231101D01*
X458857D01*
X459316Y230642D01*
Y230183D01*
X458857Y229724D01*
X458398D01*
X458857D01*
X459316Y229265D01*
Y228806D01*
X458857Y228346D01*
X457939D01*
X457479Y228806D01*
X460234Y228346D02*
Y230183D01*
X461153Y231101D01*
X462071Y230183D01*
Y228346D01*
Y229724D01*
X460234D01*
X523622Y232283D02*
Y229987D01*
X524081Y229528D01*
X525000D01*
X525459Y229987D01*
Y232283D01*
X528214Y229528D02*
X526377D01*
X528214Y231364D01*
Y231823D01*
X527755Y232283D01*
X526836D01*
X526377Y231823D01*
X529132Y229528D02*
Y231364D01*
X530050Y232283D01*
X530969Y231364D01*
Y229528D01*
Y230905D01*
X529132D01*
X494488Y189370D02*
Y192125D01*
X495866D01*
X496325Y191666D01*
Y190748D01*
X495866Y190288D01*
X494488D01*
X495406D02*
X496325Y189370D01*
X497243D02*
X498162D01*
X497702D01*
Y192125D01*
X497243Y191666D01*
X499539Y192125D02*
X501376D01*
Y191666D01*
X499539Y189829D01*
Y189370D01*
X502294D02*
Y191207D01*
X503212Y192125D01*
X504131Y191207D01*
Y189370D01*
Y190748D01*
X502294D01*
X483465Y189764D02*
Y192519D01*
X484842D01*
X485301Y192060D01*
Y191141D01*
X484842Y190682D01*
X483465D01*
X484383D02*
X485301Y189764D01*
X486220D02*
X487138D01*
X486679D01*
Y192519D01*
X486220Y192060D01*
X490352Y192519D02*
X488515D01*
Y191141D01*
X489434Y191601D01*
X489893D01*
X490352Y191141D01*
Y190223D01*
X489893Y189764D01*
X488975D01*
X488515Y190223D01*
X491270Y189764D02*
Y191601D01*
X492189Y192519D01*
X493107Y191601D01*
Y189764D01*
Y191141D01*
X491270D01*
X572835Y223228D02*
X575590D01*
Y221851D01*
X575131Y221392D01*
X574212D01*
X573753Y221851D01*
Y223228D01*
Y222310D02*
X572835Y221392D01*
Y220473D02*
Y219555D01*
Y220014D01*
X575590D01*
X575131Y220473D01*
Y218178D02*
X575590Y217718D01*
Y216800D01*
X575131Y216341D01*
X574671D01*
X574212Y216800D01*
X573753Y216341D01*
X573294D01*
X572835Y216800D01*
Y217718D01*
X573294Y218178D01*
X573753D01*
X574212Y217718D01*
X574671Y218178D01*
X575131D01*
X574212Y217718D02*
Y216800D01*
X572835Y215423D02*
X574671D01*
X575590Y214504D01*
X574671Y213586D01*
X572835D01*
X574212D01*
Y215423D01*
X493308Y409449D02*
X496063D01*
Y411285D01*
Y412204D02*
Y413122D01*
Y412663D01*
X493308D01*
X493767Y412204D01*
X541207Y174015D02*
X540288D01*
X540748D01*
Y171719D01*
X540288Y171260D01*
X539829D01*
X539370Y171719D01*
X542125Y170801D02*
X543962D01*
X544880Y171260D02*
Y174015D01*
X546258D01*
X546717Y173556D01*
Y172637D01*
X546258Y172178D01*
X544880D01*
X547635Y173097D02*
Y171260D01*
Y172178D01*
X548094Y172637D01*
X548554Y173097D01*
X549013D01*
X550849Y171260D02*
X551768D01*
X552227Y171719D01*
Y172637D01*
X551768Y173097D01*
X550849D01*
X550390Y172637D01*
Y171719D01*
X550849Y171260D01*
X554064Y170342D02*
X554523D01*
X554982Y170801D01*
Y173097D01*
X553604D01*
X553145Y172637D01*
Y171719D01*
X553604Y171260D01*
X554982D01*
X555900D02*
X556818D01*
X556359D01*
Y174015D01*
X555900Y173556D01*
X558196Y171260D02*
Y173097D01*
X559114Y174015D01*
X560033Y173097D01*
Y171260D01*
Y172637D01*
X558196D01*
X496719Y483857D02*
X495800D01*
X496259D01*
Y481562D01*
X495800Y481102D01*
X495341D01*
X494882Y481562D01*
X497637Y480643D02*
X499474D01*
X500392Y481102D02*
Y483857D01*
X501769D01*
X502229Y483398D01*
Y482480D01*
X501769Y482021D01*
X500392D01*
X503147Y483857D02*
Y481102D01*
X504525D01*
X504984Y481562D01*
Y483398D01*
X504525Y483857D01*
X503147D01*
X611417Y346062D02*
X612336D01*
X611876D01*
Y343307D01*
X611417D01*
X612336D01*
X615550Y345603D02*
X615091Y346062D01*
X614172D01*
X613713Y345603D01*
Y343766D01*
X614172Y343307D01*
X615091D01*
X615550Y343766D01*
X616468Y343307D02*
X617386D01*
X616927D01*
Y346062D01*
X616468Y345603D01*
X541600Y241455D02*
X542518D01*
X542059D01*
Y238700D01*
X541600D01*
X542518D01*
X545732Y240996D02*
X545273Y241455D01*
X544355D01*
X543896Y240996D01*
Y239159D01*
X544355Y238700D01*
X545273D01*
X545732Y239159D01*
X548488Y238700D02*
X546651D01*
X548488Y240537D01*
Y240996D01*
X548028Y241455D01*
X547110D01*
X546651Y240996D01*
X549406Y238700D02*
Y240537D01*
X550324Y241455D01*
X551243Y240537D01*
Y238700D01*
Y240077D01*
X549406D01*
X493307Y165747D02*
Y162992D01*
X494685D01*
X495144Y163451D01*
Y165288D01*
X494685Y165747D01*
X493307D01*
X496062D02*
Y162992D01*
X497899D01*
X500654D02*
X498817D01*
X500654Y164829D01*
Y165288D01*
X500195Y165747D01*
X499276D01*
X498817Y165288D01*
X501572Y162992D02*
Y164829D01*
X502491Y165747D01*
X503409Y164829D01*
Y162992D01*
Y164370D01*
X501572D01*
X482283Y165747D02*
Y162992D01*
X483661D01*
X484120Y163451D01*
Y165288D01*
X483661Y165747D01*
X482283D01*
X485039D02*
Y162992D01*
X486875D01*
X487793D02*
X488712D01*
X488253D01*
Y165747D01*
X487793Y165288D01*
X490089Y162992D02*
Y164829D01*
X491008Y165747D01*
X491926Y164829D01*
Y162992D01*
Y164370D01*
X490089D01*
X458923Y235760D02*
X458464Y236220D01*
X457546D01*
X457087Y235760D01*
Y233924D01*
X457546Y233465D01*
X458464D01*
X458923Y233924D01*
X461219Y233465D02*
Y236220D01*
X459842Y234842D01*
X461678D01*
X462597Y233465D02*
Y235301D01*
X463515Y236220D01*
X464433Y235301D01*
Y233465D01*
Y234842D01*
X462597D01*
X447506Y242453D02*
X447047Y242913D01*
X446129D01*
X445669Y242453D01*
Y240617D01*
X446129Y240158D01*
X447047D01*
X447506Y240617D01*
X448424Y240158D02*
X449343D01*
X448883D01*
Y242913D01*
X448424Y242453D01*
X450720Y240158D02*
X451639D01*
X451179D01*
Y242913D01*
X450720Y242453D01*
X453016Y240158D02*
Y241994D01*
X453934Y242913D01*
X454853Y241994D01*
Y240158D01*
Y241535D01*
X453016D01*
X456759Y163648D02*
X456300Y163189D01*
Y162270D01*
X456759Y161811D01*
X458596D01*
X459055Y162270D01*
Y163189D01*
X458596Y163648D01*
X459055Y164566D02*
Y165484D01*
Y165025D01*
X456300D01*
X456759Y164566D01*
Y166862D02*
X456300Y167321D01*
Y168239D01*
X456759Y168699D01*
X457218D01*
X457678Y168239D01*
Y167780D01*
Y168239D01*
X458137Y168699D01*
X458596D01*
X459055Y168239D01*
Y167321D01*
X458596Y166862D01*
X459055Y169617D02*
X457218D01*
X456300Y170535D01*
X457218Y171454D01*
X459055D01*
X457678D01*
Y169617D01*
X669478Y295229D02*
X669019Y295688D01*
X668101D01*
X667642Y295229D01*
Y293392D01*
X668101Y292933D01*
X669019D01*
X669478Y293392D01*
X672233Y295688D02*
X670397D01*
Y294311D01*
X671315Y294770D01*
X671774D01*
X672233Y294311D01*
Y293392D01*
X671774Y292933D01*
X670856D01*
X670397Y293392D01*
X604199Y281823D02*
X603740Y282283D01*
X602821D01*
X602362Y281823D01*
Y279987D01*
X602821Y279528D01*
X603740D01*
X604199Y279987D01*
X606954Y279528D02*
X605117D01*
X606954Y281364D01*
Y281823D01*
X606495Y282283D01*
X605576D01*
X605117Y281823D01*
X607872D02*
X608331Y282283D01*
X609250D01*
X609709Y281823D01*
Y281364D01*
X609250Y280905D01*
X608791D01*
X609250D01*
X609709Y280446D01*
Y279987D01*
X609250Y279528D01*
X608331D01*
X607872Y279987D01*
X529200Y378608D02*
X528741Y378149D01*
Y377231D01*
X529200Y376772D01*
X531037D01*
X531496Y377231D01*
Y378149D01*
X531037Y378608D01*
X531496Y381363D02*
Y379527D01*
X529659Y381363D01*
X529200D01*
X528741Y380904D01*
Y379986D01*
X529200Y379527D01*
X531496Y383659D02*
X528741D01*
X530119Y382282D01*
Y384118D01*
X533398Y181234D02*
X533857Y181693D01*
Y182612D01*
X533398Y183071D01*
X531562D01*
X531102Y182612D01*
Y181693D01*
X531562Y181234D01*
X531102Y178479D02*
Y180316D01*
X532939Y178479D01*
X533398D01*
X533857Y178938D01*
Y179857D01*
X533398Y180316D01*
X531102Y177561D02*
X532939D01*
X533857Y176643D01*
X532939Y175724D01*
X531102D01*
X532480D01*
Y177561D01*
X520539Y387270D02*
X520080Y386811D01*
Y385892D01*
X520539Y385433D01*
X522375D01*
X522835Y385892D01*
Y386811D01*
X522375Y387270D01*
X522835Y388188D02*
Y389106D01*
Y388647D01*
X520080D01*
X520539Y388188D01*
X521128Y164107D02*
X520669Y164566D01*
X519750D01*
X519291Y164107D01*
Y162270D01*
X519750Y161811D01*
X520669D01*
X521128Y162270D01*
X522046Y164107D02*
X522506Y164566D01*
X523424D01*
X523883Y164107D01*
Y163648D01*
X523424Y163189D01*
X522965D01*
X523424D01*
X523883Y162729D01*
Y162270D01*
X523424Y161811D01*
X522506D01*
X522046Y162270D01*
X524801Y161811D02*
Y163648D01*
X525720Y164566D01*
X526638Y163648D01*
Y161811D01*
Y163189D01*
X524801D01*
X672441Y475590D02*
Y472835D01*
X673818D01*
X674278Y473294D01*
Y475131D01*
X673818Y475590D01*
X672441D01*
X675196Y472835D02*
X676114D01*
X675655D01*
Y475590D01*
X675196Y475131D01*
X463254Y417650D02*
X462795Y418109D01*
X461876D01*
X461417Y417650D01*
Y415813D01*
X461876Y415354D01*
X462795D01*
X463254Y415813D01*
X464172Y417650D02*
X464632Y418109D01*
X465550D01*
X466009Y417650D01*
Y417191D01*
X465550Y416732D01*
X466009Y416273D01*
Y415813D01*
X465550Y415354D01*
X464632D01*
X464172Y415813D01*
Y416273D01*
X464632Y416732D01*
X464172Y417191D01*
Y417650D01*
X464632Y416732D02*
X465550D01*
X463137Y452796D02*
X462677Y453255D01*
X461759D01*
X461300Y452796D01*
Y450959D01*
X461759Y450500D01*
X462677D01*
X463137Y450959D01*
X464055D02*
X464514Y450500D01*
X465433D01*
X465892Y450959D01*
Y452796D01*
X465433Y453255D01*
X464514D01*
X464055Y452796D01*
Y452337D01*
X464514Y451877D01*
X465892D01*
X469737Y459159D02*
Y460996D01*
X469277Y461455D01*
X468359D01*
X467900Y460996D01*
Y459159D01*
X468359Y458700D01*
X469277D01*
X468818Y459618D02*
X469737Y458700D01*
X469277D02*
X469737Y459159D01*
X470655Y458700D02*
X471573D01*
X471114D01*
Y461455D01*
X470655Y460996D01*
X501100Y451100D02*
Y453855D01*
X502478D01*
X502937Y453396D01*
Y452478D01*
X502478Y452018D01*
X501100D01*
X502018D02*
X502937Y451100D01*
X503855Y451559D02*
X504314Y451100D01*
X505232D01*
X505692Y451559D01*
Y453396D01*
X505232Y453855D01*
X504314D01*
X503855Y453396D01*
Y452937D01*
X504314Y452478D01*
X505692D01*
X523490Y255839D02*
X523031Y256298D01*
X522113D01*
X521654Y255839D01*
Y254002D01*
X522113Y253543D01*
X523031D01*
X523490Y254002D01*
X524409Y253543D02*
X525327D01*
X524868D01*
Y256298D01*
X524409Y255839D01*
X528541Y253543D02*
X526704D01*
X528541Y255380D01*
Y255839D01*
X528082Y256298D01*
X527164D01*
X526704Y255839D01*
X488385Y256298D02*
X487467D01*
X487008Y255839D01*
Y254002D01*
X487467Y253543D01*
X488385D01*
X488844Y254002D01*
Y255839D01*
X488385Y256298D01*
X491600Y255839D02*
X491140Y256298D01*
X490222D01*
X489763Y255839D01*
Y255380D01*
X490222Y254921D01*
X491140D01*
X491600Y254462D01*
Y254002D01*
X491140Y253543D01*
X490222D01*
X489763Y254002D01*
X494355Y255839D02*
X493895Y256298D01*
X492977D01*
X492518Y255839D01*
Y254002D01*
X492977Y253543D01*
X493895D01*
X494355Y254002D01*
X495273Y253543D02*
X496191D01*
X495732D01*
Y256298D01*
X495273Y255839D01*
X581102Y418504D02*
Y421259D01*
X582480D01*
X582939Y420800D01*
Y419881D01*
X582480Y419422D01*
X581102D01*
X582021D02*
X582939Y418504D01*
X583857D02*
X584776D01*
X584317D01*
Y421259D01*
X583857Y420800D01*
X586153D02*
X586612Y421259D01*
X587531D01*
X587990Y420800D01*
Y418963D01*
X587531Y418504D01*
X586612D01*
X586153Y418963D01*
Y420800D01*
X604986Y236942D02*
X604527Y237401D01*
X603609D01*
X603150Y236942D01*
Y235105D01*
X603609Y234646D01*
X604527D01*
X604986Y235105D01*
X605905Y234646D02*
X606823D01*
X606364D01*
Y237401D01*
X605905Y236942D01*
X610037Y237401D02*
X609119Y236942D01*
X608201Y236023D01*
Y235105D01*
X608660Y234646D01*
X609578D01*
X610037Y235105D01*
Y235564D01*
X609578Y236023D01*
X608201D01*
D17*
X528661Y509317D02*
Y506318D01*
X530161D01*
X530661Y506818D01*
Y508817D01*
X530161Y509317D01*
X528661D01*
X531660D02*
Y506318D01*
X533660D01*
X534659D02*
X535659D01*
X535159D01*
Y509317D01*
X534659Y508817D01*
X537159D02*
X537659Y509317D01*
X538658D01*
X539158Y508817D01*
Y506818D01*
X538658Y506318D01*
X537659D01*
X537159Y506818D01*
Y508817D01*
X525591Y505512D02*
X522591D01*
Y507011D01*
X523091Y507511D01*
X524091D01*
X524591Y507011D01*
Y505512D01*
Y506511D02*
X525591Y507511D01*
Y510010D02*
X522591D01*
X524091Y508511D01*
Y510510D01*
X525591Y513509D02*
Y511510D01*
X523591Y513509D01*
X523091D01*
X522591Y513009D01*
Y512010D01*
X523091Y511510D01*
X599055Y509199D02*
Y506200D01*
X600555D01*
X601054Y506700D01*
Y508699D01*
X600555Y509199D01*
X599055D01*
X602054D02*
Y506200D01*
X604053D01*
X605053Y506700D02*
X605553Y506200D01*
X606553D01*
X607053Y506700D01*
Y508699D01*
X606553Y509199D01*
X605553D01*
X605053Y508699D01*
Y508199D01*
X605553Y507699D01*
X607053D01*
X596457Y505512D02*
X593458D01*
Y507011D01*
X593958Y507511D01*
X594957D01*
X595457Y507011D01*
Y505512D01*
Y506511D02*
X596457Y507511D01*
Y510010D02*
X593458D01*
X594957Y508511D01*
Y510510D01*
X596457Y511510D02*
Y512510D01*
Y512010D01*
X593458D01*
X593958Y511510D01*
X615354Y508905D02*
Y505905D01*
X616854D01*
X617354Y506405D01*
Y508405D01*
X616854Y508905D01*
X615354D01*
X618353D02*
Y505905D01*
X620353D01*
X621352Y508905D02*
X623352D01*
Y508405D01*
X621352Y506405D01*
Y505905D01*
X612205Y505630D02*
X609206D01*
Y507129D01*
X609706Y507629D01*
X610705D01*
X611205Y507129D01*
Y505630D01*
Y506630D02*
X612205Y507629D01*
X609706Y508629D02*
X609206Y509129D01*
Y510128D01*
X609706Y510628D01*
X610205D01*
X610705Y510128D01*
Y509629D01*
Y510128D01*
X611205Y510628D01*
X611705D01*
X612205Y510128D01*
Y509129D01*
X611705Y508629D01*
Y511628D02*
X612205Y512128D01*
Y513128D01*
X611705Y513627D01*
X609706D01*
X609206Y513128D01*
Y512128D01*
X609706Y511628D01*
X610205D01*
X610705Y512128D01*
Y513627D01*
X546142Y508648D02*
Y505649D01*
X547641D01*
X548141Y506149D01*
Y508148D01*
X547641Y508648D01*
X546142D01*
X549141D02*
Y505649D01*
X551140D01*
X552140Y508148D02*
X552640Y508648D01*
X553639D01*
X554139Y508148D01*
Y507648D01*
X553639Y507148D01*
X554139Y506648D01*
Y506149D01*
X553639Y505649D01*
X552640D01*
X552140Y506149D01*
Y506648D01*
X552640Y507148D01*
X552140Y507648D01*
Y508148D01*
X552640Y507148D02*
X553639D01*
X543701Y505512D02*
X540702D01*
Y507011D01*
X541202Y507511D01*
X542201D01*
X542701Y507011D01*
Y505512D01*
Y506511D02*
X543701Y507511D01*
Y510010D02*
X540702D01*
X542201Y508511D01*
Y510510D01*
X541202Y511510D02*
X540702Y512010D01*
Y513009D01*
X541202Y513509D01*
X543201D01*
X543701Y513009D01*
Y512010D01*
X543201Y511510D01*
X541202D01*
X632047Y508923D02*
Y505924D01*
X633547D01*
X634047Y506424D01*
Y508424D01*
X633547Y508923D01*
X632047D01*
X635046D02*
Y505924D01*
X637045D01*
X640045Y508923D02*
X638045D01*
Y507424D01*
X639045Y507924D01*
X639545D01*
X640045Y507424D01*
Y506424D01*
X639545Y505924D01*
X638545D01*
X638045Y506424D01*
X629528Y505591D02*
X626529D01*
Y507090D01*
X627028Y507590D01*
X628028D01*
X628528Y507090D01*
Y505591D01*
Y506590D02*
X629528Y507590D01*
X627028Y508590D02*
X626529Y509089D01*
Y510089D01*
X627028Y510589D01*
X627528D01*
X628028Y510089D01*
Y509589D01*
Y510089D01*
X628528Y510589D01*
X629028D01*
X629528Y510089D01*
Y509089D01*
X629028Y508590D01*
X626529Y511589D02*
Y513588D01*
X627028D01*
X629028Y511589D01*
X629528D01*
X564803Y508011D02*
Y505012D01*
X566303D01*
X566802Y505512D01*
Y507511D01*
X566303Y508011D01*
X564803D01*
X567802D02*
Y505012D01*
X569801D01*
X572800Y508011D02*
X571801Y507511D01*
X570801Y506512D01*
Y505512D01*
X571301Y505012D01*
X572301D01*
X572800Y505512D01*
Y506012D01*
X572301Y506512D01*
X570801D01*
X562598Y504843D02*
X559599D01*
Y506342D01*
X560099Y506842D01*
X561099D01*
X561599Y506342D01*
Y504843D01*
Y505842D02*
X562598Y506842D01*
X560099Y507842D02*
X559599Y508341D01*
Y509341D01*
X560099Y509841D01*
X560599D01*
X561099Y509341D01*
Y508841D01*
Y509341D01*
X561599Y509841D01*
X562099D01*
X562598Y509341D01*
Y508341D01*
X562099Y507842D01*
X560099Y510841D02*
X559599Y511340D01*
Y512340D01*
X560099Y512840D01*
X560599D01*
X561099Y512340D01*
X561599Y512840D01*
X562099D01*
X562598Y512340D01*
Y511340D01*
X562099Y510841D01*
X561599D01*
X561099Y511340D01*
X560599Y510841D01*
X560099D01*
X561099Y511340D02*
Y512340D01*
X647165Y507979D02*
Y504980D01*
X648665D01*
X649165Y505479D01*
Y507479D01*
X648665Y507979D01*
X647165D01*
X650164D02*
Y504980D01*
X652164D01*
X653163Y507479D02*
X653663Y507979D01*
X654663D01*
X655163Y507479D01*
Y506979D01*
X654663Y506479D01*
X654163D01*
X654663D01*
X655163Y505979D01*
Y505479D01*
X654663Y504980D01*
X653663D01*
X653163Y505479D01*
X645669Y505236D02*
X642670D01*
Y506736D01*
X643170Y507236D01*
X644170D01*
X644670Y506736D01*
Y505236D01*
Y506236D02*
X645669Y507236D01*
X643170Y508235D02*
X642670Y508735D01*
Y509735D01*
X643170Y510235D01*
X643670D01*
X644170Y509735D01*
Y509235D01*
Y509735D01*
X644670Y510235D01*
X645169D01*
X645669Y509735D01*
Y508735D01*
X645169Y508235D01*
X642670Y513234D02*
Y511234D01*
X644170D01*
X643670Y512234D01*
Y512734D01*
X644170Y513234D01*
X645169D01*
X645669Y512734D01*
Y511734D01*
X645169Y511234D01*
X580315Y505118D02*
X577316D01*
Y506618D01*
X577816Y507118D01*
X578815D01*
X579315Y506618D01*
Y505118D01*
Y506118D02*
X580315Y507118D01*
X577816Y508117D02*
X577316Y508617D01*
Y509617D01*
X577816Y510116D01*
X578316D01*
X578815Y509617D01*
Y509117D01*
Y509617D01*
X579315Y510116D01*
X579815D01*
X580315Y509617D01*
Y508617D01*
X579815Y508117D01*
X577316Y513116D02*
X577816Y512116D01*
X578815Y511116D01*
X579815D01*
X580315Y511616D01*
Y512616D01*
X579815Y513116D01*
X579315D01*
X578815Y512616D01*
Y511116D01*
X582677Y508101D02*
Y505102D01*
X584177D01*
X584676Y505601D01*
Y507601D01*
X584177Y508101D01*
X582677D01*
X585676D02*
Y505102D01*
X587675D01*
X590175D02*
Y508101D01*
X588675Y506601D01*
X590674D01*
X191369Y440688D02*
X190870Y441188D01*
X189870D01*
X189370Y440688D01*
Y438689D01*
X189870Y438189D01*
X190870D01*
X191369Y438689D01*
X192369Y440688D02*
X192869Y441188D01*
X193869D01*
X194369Y440688D01*
Y440188D01*
X193869Y439688D01*
X193369D01*
X193869D01*
X194369Y439189D01*
Y438689D01*
X193869Y438189D01*
X192869D01*
X192369Y438689D01*
X195368Y440688D02*
X195868Y441188D01*
X196868D01*
X197368Y440688D01*
Y438689D01*
X196868Y438189D01*
X195868D01*
X195368Y438689D01*
Y440688D01*
X198367Y441188D02*
Y438189D01*
Y439688D01*
X200366D01*
Y441188D01*
Y438189D01*
X326802Y447012D02*
X326303Y447512D01*
X325303D01*
X324803Y447012D01*
Y445012D01*
X325303Y444513D01*
X326303D01*
X326802Y445012D01*
X327802Y447012D02*
X328302Y447512D01*
X329302D01*
X329802Y447012D01*
Y446512D01*
X329302Y446012D01*
X328802D01*
X329302D01*
X329802Y445512D01*
Y445012D01*
X329302Y444513D01*
X328302D01*
X327802Y445012D01*
X330801Y447012D02*
X331301Y447512D01*
X332301D01*
X332801Y447012D01*
Y445012D01*
X332301Y444513D01*
X331301D01*
X330801Y445012D01*
Y447012D01*
X335800D02*
X335300Y447512D01*
X334300D01*
X333800Y447012D01*
Y445012D01*
X334300Y444513D01*
X335300D01*
X335800Y445012D01*
Y446012D01*
X334800D01*
X331133Y347949D02*
X330633Y348449D01*
X329634D01*
X329134Y347949D01*
Y345950D01*
X329634Y345450D01*
X330633D01*
X331133Y345950D01*
X332133Y347949D02*
X332633Y348449D01*
X333632D01*
X334132Y347949D01*
Y347449D01*
X333632Y346949D01*
X333133D01*
X333632D01*
X334132Y346449D01*
Y345950D01*
X333632Y345450D01*
X332633D01*
X332133Y345950D01*
X335132Y347949D02*
X335632Y348449D01*
X336631D01*
X337131Y347949D01*
Y345950D01*
X336631Y345450D01*
X335632D01*
X335132Y345950D01*
Y347949D01*
X340130Y348449D02*
X338131D01*
Y346949D01*
X339131D01*
X338131D01*
Y345450D01*
X194913Y347775D02*
X194413Y348275D01*
X193413D01*
X192913Y347775D01*
Y345775D01*
X193413Y345276D01*
X194413D01*
X194913Y345775D01*
X195912Y347775D02*
X196412Y348275D01*
X197412D01*
X197912Y347775D01*
Y347275D01*
X197412Y346775D01*
X196912D01*
X197412D01*
X197912Y346275D01*
Y345775D01*
X197412Y345276D01*
X196412D01*
X195912Y345775D01*
X198911Y347775D02*
X199411Y348275D01*
X200411D01*
X200911Y347775D01*
Y345775D01*
X200411Y345276D01*
X199411D01*
X198911Y345775D01*
Y347775D01*
X203910Y348275D02*
X201910D01*
Y345276D01*
X203910D01*
X201910Y346775D02*
X202910D01*
X191369Y234783D02*
X190870Y235282D01*
X189870D01*
X189370Y234783D01*
Y232783D01*
X189870Y232283D01*
X190870D01*
X191369Y232783D01*
X192369Y234783D02*
X192869Y235282D01*
X193869D01*
X194369Y234783D01*
Y234283D01*
X193869Y233783D01*
X193369D01*
X193869D01*
X194369Y233283D01*
Y232783D01*
X193869Y232283D01*
X192869D01*
X192369Y232783D01*
X195368Y234783D02*
X195868Y235282D01*
X196868D01*
X197368Y234783D01*
Y232783D01*
X196868Y232283D01*
X195868D01*
X195368Y232783D01*
Y234783D01*
X198367Y235282D02*
Y232283D01*
X199867D01*
X200366Y232783D01*
Y234783D01*
X199867Y235282D01*
X198367D01*
X322078Y238720D02*
X321578Y239219D01*
X320579D01*
X320079Y238720D01*
Y236720D01*
X320579Y236221D01*
X321578D01*
X322078Y236720D01*
X323078Y238720D02*
X323578Y239219D01*
X324577D01*
X325077Y238720D01*
Y238220D01*
X324577Y237720D01*
X324077D01*
X324577D01*
X325077Y237220D01*
Y236720D01*
X324577Y236221D01*
X323578D01*
X323078Y236720D01*
X326077Y238720D02*
X326577Y239219D01*
X327576D01*
X328076Y238720D01*
Y236720D01*
X327576Y236221D01*
X326577D01*
X326077Y236720D01*
Y238720D01*
X331075D02*
X330575Y239219D01*
X329576D01*
X329076Y238720D01*
Y236720D01*
X329576Y236221D01*
X330575D01*
X331075Y236720D01*
X461448Y346950D02*
X460948Y347449D01*
X459949D01*
X459449Y346950D01*
Y344950D01*
X459949Y344450D01*
X460948D01*
X461448Y344950D01*
X462448Y346950D02*
X462948Y347449D01*
X463947D01*
X464447Y346950D01*
Y346450D01*
X463947Y345950D01*
X463448D01*
X463947D01*
X464447Y345450D01*
Y344950D01*
X463947Y344450D01*
X462948D01*
X462448Y344950D01*
X465447Y346950D02*
X465947Y347449D01*
X466946D01*
X467446Y346950D01*
Y344950D01*
X466946Y344450D01*
X465947D01*
X465447Y344950D01*
Y346950D01*
X468446Y347449D02*
Y344450D01*
X469945D01*
X470445Y344950D01*
Y345450D01*
X469945Y345950D01*
X468446D01*
X469945D01*
X470445Y346450D01*
Y346950D01*
X469945Y347449D01*
X468446D01*
X459086Y240998D02*
X458586Y241498D01*
X457586D01*
X457087Y240998D01*
Y238999D01*
X457586Y238499D01*
X458586D01*
X459086Y238999D01*
X460086Y240998D02*
X460585Y241498D01*
X461585D01*
X462085Y240998D01*
Y240498D01*
X461585Y239999D01*
X461085D01*
X461585D01*
X462085Y239499D01*
Y238999D01*
X461585Y238499D01*
X460585D01*
X460086Y238999D01*
X463085Y240998D02*
X463585Y241498D01*
X464584D01*
X465084Y240998D01*
Y238999D01*
X464584Y238499D01*
X463585D01*
X463085Y238999D01*
Y240998D01*
X466084Y238499D02*
Y240498D01*
X467083Y241498D01*
X468083Y240498D01*
Y238499D01*
Y239999D01*
X466084D01*
D18*
X639370Y491582D02*
X640370D01*
X639870D01*
Y488583D01*
X639370D01*
X640370D01*
X643869Y491082D02*
X643369Y491582D01*
X642369D01*
X641869Y491082D01*
Y489082D01*
X642369Y488583D01*
X643369D01*
X643869Y489082D01*
X646368Y488583D02*
Y491582D01*
X644868Y490082D01*
X646868D01*
X659842Y487008D02*
Y490007D01*
X661342D01*
X661842Y489507D01*
Y488507D01*
X661342Y488007D01*
X659842D01*
X660842D02*
X661842Y487008D01*
X662842Y489507D02*
X663341Y490007D01*
X664341D01*
X664841Y489507D01*
Y489007D01*
X664341Y488507D01*
X663841D01*
X664341D01*
X664841Y488007D01*
Y487508D01*
X664341Y487008D01*
X663341D01*
X662842Y487508D01*
X667340Y487008D02*
Y490007D01*
X665841Y488507D01*
X667840D01*
X659842Y477165D02*
Y480164D01*
X661342D01*
X661842Y479665D01*
Y478665D01*
X661342Y478165D01*
X659842D01*
X660842D02*
X661842Y477165D01*
X662842Y479665D02*
X663341Y480164D01*
X664341D01*
X664841Y479665D01*
Y479165D01*
X664341Y478665D01*
X663841D01*
X664341D01*
X664841Y478165D01*
Y477665D01*
X664341Y477165D01*
X663341D01*
X662842Y477665D01*
X665841Y479665D02*
X666340Y480164D01*
X667340D01*
X667840Y479665D01*
Y479165D01*
X667340Y478665D01*
X666840D01*
X667340D01*
X667840Y478165D01*
Y477665D01*
X667340Y477165D01*
X666340D01*
X665841Y477665D01*
X622047Y471654D02*
Y474653D01*
X623547D01*
X624047Y474153D01*
Y473153D01*
X623547Y472653D01*
X622047D01*
X623047D02*
X624047Y471654D01*
X625046Y474153D02*
X625546Y474653D01*
X626546D01*
X627046Y474153D01*
Y473653D01*
X626546Y473153D01*
X626046D01*
X626546D01*
X627046Y472653D01*
Y472153D01*
X626546Y471654D01*
X625546D01*
X625046Y472153D01*
X630045Y471654D02*
X628045D01*
X630045Y473653D01*
Y474153D01*
X629545Y474653D01*
X628545D01*
X628045Y474153D01*
X659842Y481654D02*
Y484653D01*
X661342D01*
X661842Y484153D01*
Y483153D01*
X661342Y482653D01*
X659842D01*
X660842D02*
X661842Y481654D01*
X662842Y484153D02*
X663341Y484653D01*
X664341D01*
X664841Y484153D01*
Y483653D01*
X664341Y483153D01*
X663841D01*
X664341D01*
X664841Y482653D01*
Y482153D01*
X664341Y481654D01*
X663341D01*
X662842Y482153D01*
X665841Y481654D02*
X666840D01*
X666340D01*
Y484653D01*
X665841Y484153D01*
X654298Y445125D02*
Y442126D01*
X656297D01*
X658797D02*
Y445125D01*
X657297Y443625D01*
X659297D01*
X644351Y453495D02*
X643851Y452996D01*
Y451996D01*
X644351Y451496D01*
X646351D01*
X646850Y451996D01*
Y452996D01*
X646351Y453495D01*
X646850Y456495D02*
Y454495D01*
X644851Y456495D01*
X644351D01*
X643851Y455995D01*
Y454995D01*
X644351Y454495D01*
X646351Y457494D02*
X646850Y457994D01*
Y458994D01*
X646351Y459493D01*
X644351D01*
X643851Y458994D01*
Y457994D01*
X644351Y457494D01*
X644851D01*
X645351Y457994D01*
Y459493D01*
X662629Y458798D02*
X662129Y459298D01*
X661130D01*
X660630Y458798D01*
Y456799D01*
X661130Y456299D01*
X662129D01*
X662629Y456799D01*
X665628Y456299D02*
X663629D01*
X665628Y458299D01*
Y458798D01*
X665129Y459298D01*
X664129D01*
X663629Y458798D01*
X666628D02*
X667128Y459298D01*
X668127D01*
X668627Y458798D01*
Y458299D01*
X668127Y457799D01*
X668627Y457299D01*
Y456799D01*
X668127Y456299D01*
X667128D01*
X666628Y456799D01*
Y457299D01*
X667128Y457799D01*
X666628Y458299D01*
Y458798D01*
X667128Y457799D02*
X668127D01*
X652756Y237541D02*
Y240540D01*
X654255D01*
X654755Y240040D01*
Y239041D01*
X654255Y238541D01*
X652756D01*
X653756D02*
X654755Y237541D01*
X655755Y240040D02*
X656255Y240540D01*
X657255D01*
X657754Y240040D01*
Y239541D01*
X657255Y239041D01*
X656755D01*
X657255D01*
X657754Y238541D01*
Y238041D01*
X657255Y237541D01*
X656255D01*
X655755Y238041D01*
X658754Y240040D02*
X659254Y240540D01*
X660253D01*
X660753Y240040D01*
Y238041D01*
X660253Y237541D01*
X659254D01*
X658754Y238041D01*
Y240040D01*
X650394Y235039D02*
X647395D01*
Y236539D01*
X647894Y237039D01*
X648894D01*
X649394Y236539D01*
Y235039D01*
Y236039D02*
X650394Y237039D01*
Y240038D02*
Y238038D01*
X648394Y240038D01*
X647894D01*
X647395Y239538D01*
Y238538D01*
X647894Y238038D01*
X649894Y241037D02*
X650394Y241537D01*
Y242537D01*
X649894Y243037D01*
X647894D01*
X647395Y242537D01*
Y241537D01*
X647894Y241037D01*
X648394D01*
X648894Y241537D01*
Y243037D01*
X630709Y240551D02*
Y243550D01*
X632208D01*
X632708Y243050D01*
Y242051D01*
X632208Y241551D01*
X630709D01*
X631708D02*
X632708Y240551D01*
X635707D02*
X633708D01*
X635707Y242550D01*
Y243050D01*
X635207Y243550D01*
X634207D01*
X633708Y243050D01*
X636707D02*
X637207Y243550D01*
X638206D01*
X638706Y243050D01*
Y242550D01*
X638206Y242051D01*
X638706Y241551D01*
Y241051D01*
X638206Y240551D01*
X637207D01*
X636707Y241051D01*
Y241551D01*
X637207Y242051D01*
X636707Y242550D01*
Y243050D01*
X637207Y242051D02*
X638206D01*
X616929Y250787D02*
Y253786D01*
X618429D01*
X618928Y253287D01*
Y252287D01*
X618429Y251787D01*
X616929D01*
X617929D02*
X618928Y250787D01*
X621927D02*
X619928D01*
X621927Y252787D01*
Y253287D01*
X621428Y253786D01*
X620428D01*
X619928Y253287D01*
X622927Y253786D02*
X624927D01*
Y253287D01*
X622927Y251287D01*
Y250787D01*
X644882Y235039D02*
X641883D01*
Y236539D01*
X642383Y237039D01*
X643382D01*
X643882Y236539D01*
Y235039D01*
Y236039D02*
X644882Y237039D01*
Y240038D02*
Y238038D01*
X642882Y240038D01*
X642383D01*
X641883Y239538D01*
Y238538D01*
X642383Y238038D01*
X641883Y243037D02*
X642383Y242037D01*
X643382Y241037D01*
X644382D01*
X644882Y241537D01*
Y242537D01*
X644382Y243037D01*
X643882D01*
X643382Y242537D01*
Y241037D01*
X671260Y271419D02*
Y268420D01*
X673259D01*
X674259Y270919D02*
X674759Y271419D01*
X675758D01*
X676258Y270919D01*
Y270419D01*
X675758Y269920D01*
X675259D01*
X675758D01*
X676258Y269420D01*
Y268920D01*
X675758Y268420D01*
X674759D01*
X674259Y268920D01*
X685299Y282099D02*
X684300D01*
X684799D01*
Y279600D01*
X684300Y279100D01*
X683800D01*
X683300Y279600D01*
X688298Y282099D02*
X687299Y281599D01*
X686299Y280599D01*
Y279600D01*
X686799Y279100D01*
X687799D01*
X688298Y279600D01*
Y280100D01*
X687799Y280599D01*
X686299D01*
X627999Y276199D02*
X627499Y276699D01*
X626500D01*
X626000Y276199D01*
Y274200D01*
X626500Y273700D01*
X627499D01*
X627999Y274200D01*
X630998Y273700D02*
X628999D01*
X630998Y275699D01*
Y276199D01*
X630499Y276699D01*
X629499D01*
X628999Y276199D01*
X631998Y276699D02*
X633997D01*
Y276199D01*
X631998Y274200D01*
Y273700D01*
X616960Y276909D02*
X616460Y277409D01*
X615460D01*
X614961Y276909D01*
Y274909D01*
X615460Y274410D01*
X616460D01*
X616960Y274909D01*
X619959Y274410D02*
X617960D01*
X619959Y276409D01*
Y276909D01*
X619459Y277409D01*
X618460D01*
X617960Y276909D01*
X622958Y277409D02*
X621958Y276909D01*
X620959Y275909D01*
Y274909D01*
X621458Y274410D01*
X622458D01*
X622958Y274909D01*
Y275409D01*
X622458Y275909D01*
X620959D01*
X662236Y276515D02*
X661736Y277015D01*
X660736D01*
X660236Y276515D01*
Y274516D01*
X660736Y274016D01*
X661736D01*
X662236Y274516D01*
X665235Y274016D02*
X663235D01*
X665235Y276015D01*
Y276515D01*
X664735Y277015D01*
X663735D01*
X663235Y276515D01*
X668234Y277015D02*
X666234D01*
Y275515D01*
X667234Y276015D01*
X667734D01*
X668234Y275515D01*
Y274516D01*
X667734Y274016D01*
X666734D01*
X666234Y274516D01*
X685039Y433858D02*
Y436857D01*
X686539D01*
X687039Y436357D01*
Y435358D01*
X686539Y434858D01*
X685039D01*
X686039D02*
X687039Y433858D01*
X690038D02*
X688038D01*
X690038Y435858D01*
Y436357D01*
X689538Y436857D01*
X688538D01*
X688038Y436357D01*
X693037Y433858D02*
X691037D01*
X693037Y435858D01*
Y436357D01*
X692537Y436857D01*
X691537D01*
X691037Y436357D01*
X672835Y444338D02*
Y441339D01*
X674834D01*
X677833D02*
X675834D01*
X677833Y443338D01*
Y443838D01*
X677333Y444338D01*
X676334D01*
X675834Y443838D01*
X687199Y489399D02*
X686200D01*
X686699D01*
Y486900D01*
X686200Y486400D01*
X685700D01*
X685200Y486900D01*
X690198Y489399D02*
X688199D01*
Y487899D01*
X689199Y488399D01*
X689699D01*
X690198Y487899D01*
Y486900D01*
X689699Y486400D01*
X688699D01*
X688199Y486900D01*
X644095Y274653D02*
X645094D01*
X644594D01*
Y271654D01*
X644095D01*
X645094D01*
X648593Y274153D02*
X648093Y274653D01*
X647093D01*
X646594Y274153D01*
Y272153D01*
X647093Y271654D01*
X648093D01*
X648593Y272153D01*
X649593Y274153D02*
X650093Y274653D01*
X651092D01*
X651592Y274153D01*
Y273653D01*
X651092Y273153D01*
X650592D01*
X651092D01*
X651592Y272653D01*
Y272153D01*
X651092Y271654D01*
X650093D01*
X649593Y272153D01*
X177953Y385827D02*
X174954D01*
Y387326D01*
X175454Y387826D01*
X176453D01*
X176953Y387326D01*
Y385827D01*
Y386826D02*
X177953Y387826D01*
Y390825D02*
Y388826D01*
X175953Y390825D01*
X175454D01*
X174954Y390325D01*
Y389326D01*
X175454Y388826D01*
X174954Y393824D02*
Y391825D01*
X176453D01*
X175953Y392825D01*
Y393324D01*
X176453Y393824D01*
X177453D01*
X177953Y393324D01*
Y392325D01*
X177453Y391825D01*
X174954Y394824D02*
X177953D01*
X176453D01*
Y396823D01*
X174954D01*
X177953D01*
X314961Y371260D02*
X311962D01*
Y372759D01*
X312461Y373259D01*
X313461D01*
X313961Y372759D01*
Y371260D01*
Y372259D02*
X314961Y373259D01*
Y376258D02*
Y374259D01*
X312961Y376258D01*
X312461D01*
X311962Y375758D01*
Y374759D01*
X312461Y374259D01*
X311962Y379257D02*
Y377258D01*
X313461D01*
X312961Y378258D01*
Y378757D01*
X313461Y379257D01*
X314461D01*
X314961Y378757D01*
Y377758D01*
X314461Y377258D01*
X312461Y382256D02*
X311962Y381756D01*
Y380757D01*
X312461Y380257D01*
X314461D01*
X314961Y380757D01*
Y381756D01*
X314461Y382256D01*
X313461D01*
Y381257D01*
X320079Y281890D02*
X317080D01*
Y283389D01*
X317580Y283889D01*
X318579D01*
X319079Y283389D01*
Y281890D01*
Y282889D02*
X320079Y283889D01*
Y286888D02*
Y284889D01*
X318079Y286888D01*
X317580D01*
X317080Y286388D01*
Y285389D01*
X317580Y284889D01*
X317080Y289887D02*
Y287888D01*
X318579D01*
X318079Y288888D01*
Y289387D01*
X318579Y289887D01*
X319579D01*
X320079Y289387D01*
Y288388D01*
X319579Y287888D01*
X317080Y292886D02*
Y290887D01*
X318579D01*
Y291886D01*
Y290887D01*
X320079D01*
X174409Y288976D02*
X171410D01*
Y290476D01*
X171910Y290976D01*
X172910D01*
X173410Y290476D01*
Y288976D01*
Y289976D02*
X174409Y290976D01*
Y293975D02*
Y291975D01*
X172410Y293975D01*
X171910D01*
X171410Y293475D01*
Y292475D01*
X171910Y291975D01*
X171410Y296974D02*
Y294974D01*
X172910D01*
X172410Y295974D01*
Y296474D01*
X172910Y296974D01*
X173910D01*
X174409Y296474D01*
Y295474D01*
X173910Y294974D01*
X171410Y299973D02*
Y297973D01*
X174409D01*
Y299973D01*
X172910Y297973D02*
Y298973D01*
X174803Y173079D02*
X171804D01*
Y174578D01*
X172304Y175078D01*
X173304D01*
X173803Y174578D01*
Y173079D01*
Y174078D02*
X174803Y175078D01*
Y178077D02*
Y176078D01*
X172804Y178077D01*
X172304D01*
X171804Y177577D01*
Y176578D01*
X172304Y176078D01*
X171804Y181076D02*
Y179077D01*
X173304D01*
X172804Y180077D01*
Y180576D01*
X173304Y181076D01*
X174303D01*
X174803Y180576D01*
Y179577D01*
X174303Y179077D01*
X171804Y182076D02*
X174803D01*
Y183575D01*
X174303Y184075D01*
X172304D01*
X171804Y183575D01*
Y182076D01*
X314173Y183465D02*
Y186464D01*
X315673D01*
X316173Y185964D01*
Y184964D01*
X315673Y184464D01*
X314173D01*
X315173D02*
X316173Y183465D01*
X319172D02*
X317172D01*
X319172Y185464D01*
Y185964D01*
X318672Y186464D01*
X317672D01*
X317172Y185964D01*
X322171Y186464D02*
X320171D01*
Y184964D01*
X321171Y185464D01*
X321671D01*
X322171Y184964D01*
Y183964D01*
X321671Y183465D01*
X320671D01*
X320171Y183964D01*
X325170Y185964D02*
X324670Y186464D01*
X323670D01*
X323170Y185964D01*
Y183964D01*
X323670Y183465D01*
X324670D01*
X325170Y183964D01*
X483858Y273228D02*
Y276227D01*
X485358D01*
X485858Y275728D01*
Y274728D01*
X485358Y274228D01*
X483858D01*
X484858D02*
X485858Y273228D01*
X488857D02*
X486857D01*
X488857Y275228D01*
Y275728D01*
X488357Y276227D01*
X487357D01*
X486857Y275728D01*
X491856Y276227D02*
X489856D01*
Y274728D01*
X490856Y275228D01*
X491356D01*
X491856Y274728D01*
Y273728D01*
X491356Y273228D01*
X490356D01*
X489856Y273728D01*
X492855Y276227D02*
Y273228D01*
X494355D01*
X494855Y273728D01*
Y274228D01*
X494355Y274728D01*
X492855D01*
X494355D01*
X494855Y275228D01*
Y275728D01*
X494355Y276227D01*
X492855D01*
X453543Y180315D02*
X450544D01*
Y181815D01*
X451044Y182314D01*
X452044D01*
X452544Y181815D01*
Y180315D01*
Y181315D02*
X453543Y182314D01*
Y185313D02*
Y183314D01*
X451544Y185313D01*
X451044D01*
X450544Y184813D01*
Y183814D01*
X451044Y183314D01*
X450544Y188312D02*
Y186313D01*
X452044D01*
X451544Y187313D01*
Y187812D01*
X452044Y188312D01*
X453044D01*
X453543Y187812D01*
Y186813D01*
X453044Y186313D01*
X453543Y189312D02*
X451544D01*
X450544Y190312D01*
X451544Y191311D01*
X453543D01*
X452044D01*
Y189312D01*
X181753Y421291D02*
X181253Y420791D01*
Y419791D01*
X181753Y419291D01*
X183752D01*
X184252Y419791D01*
Y420791D01*
X183752Y421291D01*
X184252Y422290D02*
Y423290D01*
Y422790D01*
X181253D01*
X181753Y422290D01*
Y424790D02*
X181253Y425289D01*
Y426289D01*
X181753Y426789D01*
X183752D01*
X184252Y426289D01*
Y425289D01*
X183752Y424790D01*
X181753D01*
X181253Y427789D02*
X184252D01*
X182752D01*
Y429788D01*
X181253D01*
X184252D01*
X307737Y400818D02*
X307237Y400318D01*
Y399319D01*
X307737Y398819D01*
X309736D01*
X310236Y399319D01*
Y400318D01*
X309736Y400818D01*
X310236Y401818D02*
Y402818D01*
Y402318D01*
X307237D01*
X307737Y401818D01*
Y404317D02*
X307237Y404817D01*
Y405817D01*
X307737Y406317D01*
X309736D01*
X310236Y405817D01*
Y404817D01*
X309736Y404317D01*
X307737D01*
Y409315D02*
X307237Y408816D01*
Y407816D01*
X307737Y407316D01*
X309736D01*
X310236Y407816D01*
Y408816D01*
X309736Y409315D01*
X308737D01*
Y408316D01*
X312076Y321397D02*
X311576Y321897D01*
X310576D01*
X310076Y321397D01*
Y319397D01*
X310576Y318898D01*
X311576D01*
X312076Y319397D01*
X313075Y318898D02*
X314075D01*
X313575D01*
Y321897D01*
X313075Y321397D01*
X315575D02*
X316074Y321897D01*
X317074D01*
X317574Y321397D01*
Y319397D01*
X317074Y318898D01*
X316074D01*
X315575Y319397D01*
Y321397D01*
X320573Y321897D02*
X318574D01*
Y320397D01*
X319573D01*
X318574D01*
Y318898D01*
X182117Y342498D02*
X181618Y342998D01*
X180618D01*
X180118Y342498D01*
Y340499D01*
X180618Y339999D01*
X181618D01*
X182117Y340499D01*
X183117Y339999D02*
X184117D01*
X183617D01*
Y342998D01*
X183117Y342498D01*
X185616D02*
X186116Y342998D01*
X187116D01*
X187616Y342498D01*
Y340499D01*
X187116Y339999D01*
X186116D01*
X185616Y340499D01*
Y342498D01*
X190615Y342998D02*
X188615D01*
Y339999D01*
X190615D01*
X188615Y341499D02*
X189615D01*
X165046Y228483D02*
X164546Y228983D01*
X163546D01*
X163047Y228483D01*
Y226484D01*
X163546Y225984D01*
X164546D01*
X165046Y226484D01*
X166045Y225984D02*
X167045D01*
X166545D01*
Y228983D01*
X166045Y228483D01*
X168545D02*
X169044Y228983D01*
X170044D01*
X170544Y228483D01*
Y226484D01*
X170044Y225984D01*
X169044D01*
X168545Y226484D01*
Y228483D01*
X171544Y228983D02*
Y225984D01*
X173043D01*
X173543Y226484D01*
Y228483D01*
X173043Y228983D01*
X171544D01*
X311674Y200341D02*
X311174Y199842D01*
Y198842D01*
X311674Y198342D01*
X313673D01*
X314173Y198842D01*
Y199842D01*
X313673Y200341D01*
X314173Y201341D02*
Y202341D01*
Y201841D01*
X311174D01*
X311674Y201341D01*
Y203840D02*
X311174Y204340D01*
Y205340D01*
X311674Y205840D01*
X313673D01*
X314173Y205340D01*
Y204340D01*
X313673Y203840D01*
X311674D01*
Y208839D02*
X311174Y208339D01*
Y207339D01*
X311674Y206839D01*
X313673D01*
X314173Y207339D01*
Y208339D01*
X313673Y208839D01*
X455375Y329952D02*
X454875Y329452D01*
Y328453D01*
X455375Y327953D01*
X457374D01*
X457874Y328453D01*
Y329452D01*
X457374Y329952D01*
X457874Y330952D02*
Y331951D01*
Y331452D01*
X454875D01*
X455375Y330952D01*
Y333451D02*
X454875Y333951D01*
Y334950D01*
X455375Y335450D01*
X457374D01*
X457874Y334950D01*
Y333951D01*
X457374Y333451D01*
X455375D01*
X454875Y336450D02*
X457874D01*
Y337949D01*
X457374Y338449D01*
X456874D01*
X456375Y337949D01*
Y336450D01*
Y337949D01*
X455875Y338449D01*
X455375D01*
X454875Y337949D01*
Y336450D01*
X451438Y219603D02*
X450938Y219104D01*
Y218104D01*
X451438Y217604D01*
X453437D01*
X453937Y218104D01*
Y219104D01*
X453437Y219603D01*
X453937Y220603D02*
Y221603D01*
Y221103D01*
X450938D01*
X451438Y220603D01*
Y223102D02*
X450938Y223602D01*
Y224602D01*
X451438Y225101D01*
X453437D01*
X453937Y224602D01*
Y223602D01*
X453437Y223102D01*
X451438D01*
X453937Y226101D02*
X451938D01*
X450938Y227101D01*
X451938Y228100D01*
X453937D01*
X452437D01*
Y226101D01*
X244125Y395019D02*
X243625Y395519D01*
X242626D01*
X242126Y395019D01*
Y393020D01*
X242626Y392520D01*
X243625D01*
X244125Y393020D01*
X247124Y395519D02*
X246125Y395019D01*
X245125Y394019D01*
Y393020D01*
X245625Y392520D01*
X246624D01*
X247124Y393020D01*
Y393519D01*
X246624Y394019D01*
X245125D01*
X248124Y395519D02*
Y392520D01*
Y394019D01*
X250123D01*
Y395519D01*
Y392520D01*
X377590Y402481D02*
X377090Y402981D01*
X376090D01*
X375590Y402481D01*
Y400481D01*
X376090Y399982D01*
X377090D01*
X377590Y400481D01*
X380589Y402981D02*
X379589Y402481D01*
X378590Y401481D01*
Y400481D01*
X379089Y399982D01*
X380089D01*
X380589Y400481D01*
Y400981D01*
X380089Y401481D01*
X378590D01*
X383588Y402481D02*
X383088Y402981D01*
X382088D01*
X381589Y402481D01*
Y400481D01*
X382088Y399982D01*
X383088D01*
X383588Y400481D01*
Y401481D01*
X382588D01*
X379558Y299728D02*
X379059Y300227D01*
X378059D01*
X377559Y299728D01*
Y297728D01*
X378059Y297228D01*
X379059D01*
X379558Y297728D01*
X382557Y300227D02*
X381558Y299728D01*
X380558Y298728D01*
Y297728D01*
X381058Y297228D01*
X382058D01*
X382557Y297728D01*
Y298228D01*
X382058Y298728D01*
X380558D01*
X385557Y300227D02*
X383557D01*
Y298728D01*
X384557D01*
X383557D01*
Y297228D01*
X238614Y299499D02*
X238114Y299999D01*
X237114D01*
X236614Y299499D01*
Y297500D01*
X237114Y297000D01*
X238114D01*
X238614Y297500D01*
X241613Y299999D02*
X240613Y299499D01*
X239613Y298499D01*
Y297500D01*
X240113Y297000D01*
X241113D01*
X241613Y297500D01*
Y298000D01*
X241113Y298499D01*
X239613D01*
X244612Y299999D02*
X242612D01*
Y297000D01*
X244612D01*
X242612Y298499D02*
X243612D01*
X236645Y191869D02*
X236145Y192369D01*
X235145D01*
X234646Y191869D01*
Y189870D01*
X235145Y189370D01*
X236145D01*
X236645Y189870D01*
X239644Y192369D02*
X238644Y191869D01*
X237645Y190870D01*
Y189870D01*
X238144Y189370D01*
X239144D01*
X239644Y189870D01*
Y190370D01*
X239144Y190870D01*
X237645D01*
X240644Y192369D02*
Y189370D01*
X242143D01*
X242643Y189870D01*
Y191869D01*
X242143Y192369D01*
X240644D01*
X375818Y195413D02*
X375318Y195912D01*
X374319D01*
X373819Y195413D01*
Y193413D01*
X374319Y192913D01*
X375318D01*
X375818Y193413D01*
X378817Y195912D02*
X377818Y195413D01*
X376818Y194413D01*
Y193413D01*
X377318Y192913D01*
X378317D01*
X378817Y193413D01*
Y193913D01*
X378317Y194413D01*
X376818D01*
X381816Y195413D02*
X381316Y195912D01*
X380317D01*
X379817Y195413D01*
Y193413D01*
X380317Y192913D01*
X381316D01*
X381816Y193413D01*
X516566Y304861D02*
X516066Y305361D01*
X515067D01*
X514567Y304861D01*
Y302862D01*
X515067Y302362D01*
X516066D01*
X516566Y302862D01*
X519565Y305361D02*
X518566Y304861D01*
X517566Y303862D01*
Y302862D01*
X518066Y302362D01*
X519066D01*
X519565Y302862D01*
Y303362D01*
X519066Y303862D01*
X517566D01*
X520565Y305361D02*
Y302362D01*
X522064D01*
X522564Y302862D01*
Y303362D01*
X522064Y303862D01*
X520565D01*
X522064D01*
X522564Y304362D01*
Y304861D01*
X522064Y305361D01*
X520565D01*
X511842Y196594D02*
X511342Y197093D01*
X510342D01*
X509842Y196594D01*
Y194594D01*
X510342Y194095D01*
X511342D01*
X511842Y194594D01*
X514841Y197093D02*
X513841Y196594D01*
X512842Y195594D01*
Y194594D01*
X513341Y194095D01*
X514341D01*
X514841Y194594D01*
Y195094D01*
X514341Y195594D01*
X512842D01*
X515841Y194095D02*
Y196094D01*
X516840Y197093D01*
X517840Y196094D01*
Y194095D01*
Y195594D01*
X515841D01*
M02*
