G04*
G04 #@! TF.GenerationSoftware,Altium Limited,Altium Designer,19.0.15 (446)*
G04*
G04 Layer_Color=16711935*
%FSLAX25Y25*%
%MOIN*%
G70*
G01*
G75*
%ADD13C,0.01000*%
%ADD97C,0.11430*%
%ADD98C,0.07099*%
%ADD99C,0.06115*%
%ADD100C,0.05918*%
%ADD101O,0.07887X0.18517*%
%ADD102O,0.16548X0.07887*%
%ADD103O,0.07887X0.16548*%
%ADD104C,0.03359*%
%ADD105O,0.07099X0.04737*%
%ADD106R,0.06706X0.06706*%
%ADD107C,0.06706*%
%ADD108C,0.05800*%
%ADD109C,0.06312*%
D13*
X334646Y531496D02*
X728346D01*
X98819Y137795D02*
Y531496D01*
X472047D01*
X99213Y137795D02*
X492913D01*
X335039D02*
X728346D01*
Y531496D01*
D97*
X111456Y353646D02*
D03*
Y393647D02*
D03*
Y282780D02*
D03*
Y322780D02*
D03*
Y424513D02*
D03*
Y464513D02*
D03*
Y211914D02*
D03*
Y251914D02*
D03*
D98*
X146456Y363647D02*
D03*
Y373646D02*
D03*
Y383646D02*
D03*
X136456Y373646D02*
D03*
X146456Y292780D02*
D03*
Y302780D02*
D03*
Y312780D02*
D03*
X136456Y302780D02*
D03*
X146456Y434513D02*
D03*
Y444513D02*
D03*
Y454513D02*
D03*
X136456Y444513D02*
D03*
X146456Y221914D02*
D03*
Y231914D02*
D03*
Y241914D02*
D03*
X136456Y231914D02*
D03*
D99*
X109449Y186063D02*
D03*
X119449D02*
D03*
X129449D02*
D03*
X139449D02*
D03*
X109409Y481220D02*
D03*
X119409D02*
D03*
X129409D02*
D03*
X139409D02*
D03*
D100*
X109449Y196063D02*
D03*
X119449D02*
D03*
X129449D02*
D03*
X139449D02*
D03*
X109409Y491221D02*
D03*
X119409D02*
D03*
X129409D02*
D03*
X139409D02*
D03*
D101*
X687992Y253543D02*
D03*
D102*
X699409Y272441D02*
D03*
D103*
X711811Y253543D02*
D03*
D104*
X692205Y462992D02*
D03*
Y466142D02*
D03*
Y459842D02*
D03*
Y469291D02*
D03*
Y456693D02*
D03*
Y472441D02*
D03*
Y453543D02*
D03*
Y475591D02*
D03*
X694961Y461417D02*
D03*
Y467717D02*
D03*
Y458268D02*
D03*
Y470866D02*
D03*
Y455118D02*
D03*
Y474016D02*
D03*
D105*
X696732Y481378D02*
D03*
Y447756D02*
D03*
X715354Y481378D02*
D03*
Y447756D02*
D03*
D106*
X488500Y464000D02*
D03*
X545118Y180945D02*
D03*
X409291Y178583D02*
D03*
X549843Y287638D02*
D03*
X271500Y284500D02*
D03*
X268740Y176614D02*
D03*
X412047Y283307D02*
D03*
X410079Y387244D02*
D03*
X276220Y379764D02*
D03*
D107*
X488500Y474000D02*
D03*
X498500Y464000D02*
D03*
Y474000D02*
D03*
X508500Y464000D02*
D03*
Y474000D02*
D03*
X545118Y190945D02*
D03*
X555118Y180945D02*
D03*
Y190945D02*
D03*
X565118Y180945D02*
D03*
Y190945D02*
D03*
X409291Y188583D02*
D03*
X419291Y178583D02*
D03*
Y188583D02*
D03*
X429291Y178583D02*
D03*
Y188583D02*
D03*
X549843Y297638D02*
D03*
X559842Y287638D02*
D03*
Y297638D02*
D03*
X569842Y287638D02*
D03*
Y297638D02*
D03*
X271500Y294500D02*
D03*
X281500Y284500D02*
D03*
Y294500D02*
D03*
X291500Y284500D02*
D03*
Y294500D02*
D03*
X268740Y186614D02*
D03*
X278740Y176614D02*
D03*
Y186614D02*
D03*
X288740Y176614D02*
D03*
Y186614D02*
D03*
X412047Y293307D02*
D03*
X422047Y283307D02*
D03*
Y293307D02*
D03*
X432047Y283307D02*
D03*
Y293307D02*
D03*
X410079Y397244D02*
D03*
X420079Y387244D02*
D03*
Y397244D02*
D03*
X430079Y387244D02*
D03*
Y397244D02*
D03*
X276220Y389764D02*
D03*
X286221Y379764D02*
D03*
Y389764D02*
D03*
X296220Y379764D02*
D03*
Y389764D02*
D03*
D108*
X112425Y159500D02*
D03*
X112400Y509500D02*
D03*
D109*
X701023Y358500D02*
D03*
Y368500D02*
D03*
Y378500D02*
D03*
X691023D02*
D03*
Y368500D02*
D03*
Y358500D02*
D03*
M02*
