G04*
G04 #@! TF.GenerationSoftware,Altium Limited,Altium Designer,19.1.6 (110)*
G04*
G04 Layer_Color=8421504*
%FSLAX25Y25*%
%MOIN*%
G70*
G01*
G75*
%ADD19R,0.08071X0.08661*%
%ADD20R,0.04134X0.02559*%
%ADD21R,0.03898X0.02835*%
%ADD22R,0.02441X0.02441*%
%ADD23R,0.02441X0.02441*%
%ADD24R,0.04134X0.05512*%
%ADD25R,0.05512X0.03543*%
%ADD26R,0.06102X0.02362*%
%ADD27R,0.02441X0.02284*%
%ADD28R,0.12992X0.04134*%
%ADD29R,0.02284X0.02441*%
%ADD30R,0.03740X0.03937*%
%ADD31R,0.02559X0.04134*%
%ADD32R,0.05512X0.04134*%
%ADD33R,0.03937X0.03937*%
%ADD34R,0.08268X0.02362*%
%ADD35R,0.00787X0.04331*%
%ADD36R,0.00787X0.03150*%
%ADD37R,0.03150X0.00984*%
%ADD38R,0.02756X0.00984*%
%ADD39R,0.03543X0.01575*%
%ADD40R,0.13189X0.13189*%
%ADD41O,0.04134X0.01181*%
%ADD42O,0.01181X0.04134*%
%ADD43R,0.21850X0.25591*%
%ADD44R,0.03937X0.11221*%
%ADD45R,0.06299X0.10039*%
%ADD46R,0.03937X0.03740*%
%ADD47R,0.02835X0.03898*%
%ADD48R,0.03543X0.03937*%
%ADD49R,0.04724X0.01181*%
%ADD50R,0.03937X0.00787*%
%ADD51O,0.02165X0.06890*%
%ADD52O,0.06890X0.02165*%
%ADD53R,0.10039X0.06299*%
%ADD54O,0.02362X0.07480*%
%ADD55R,0.03543X0.03150*%
%ADD56R,0.03937X0.03543*%
%ADD57R,0.02362X0.03937*%
%ADD58R,0.07874X0.21654*%
%ADD59R,0.06299X0.05315*%
G36*
X631299Y333425D02*
X624685D01*
Y339094D01*
X631299D01*
Y333425D01*
D02*
G37*
G36*
X621772D02*
X615158D01*
Y339094D01*
X621772D01*
Y333425D01*
D02*
G37*
G36*
X631299Y325630D02*
X624685D01*
Y331299D01*
X631299D01*
Y325630D01*
D02*
G37*
G36*
X621772D02*
X615158D01*
Y331299D01*
X621772D01*
Y325630D01*
D02*
G37*
G36*
X631299Y317835D02*
X624685D01*
Y323504D01*
X631299D01*
Y317835D01*
D02*
G37*
G36*
X621772D02*
X615158D01*
Y323504D01*
X621772D01*
Y317835D01*
D02*
G37*
D19*
X673364Y237194D02*
D03*
Y254517D02*
D03*
D20*
X413660Y367717D02*
D03*
Y360236D02*
D03*
X422715Y363976D02*
D03*
X263071Y344094D02*
D03*
X254016Y340354D02*
D03*
Y347835D02*
D03*
D21*
X457049Y412284D02*
D03*
Y406850D02*
D03*
X524803Y496496D02*
D03*
Y501929D02*
D03*
X594882Y496496D02*
D03*
Y501929D02*
D03*
X611417Y496496D02*
D03*
Y501929D02*
D03*
X542520Y496496D02*
D03*
Y501929D02*
D03*
X627953Y496496D02*
D03*
Y501929D02*
D03*
X561417Y496496D02*
D03*
Y501929D02*
D03*
X644488Y496496D02*
D03*
Y501929D02*
D03*
X578740Y496496D02*
D03*
Y501929D02*
D03*
X302362Y321882D02*
D03*
Y316449D02*
D03*
X294094Y446102D02*
D03*
Y451535D02*
D03*
X429528Y354370D02*
D03*
Y359803D02*
D03*
X308261Y158701D02*
D03*
Y164134D02*
D03*
X439961Y158701D02*
D03*
Y164134D02*
D03*
X583090Y212244D02*
D03*
Y217677D02*
D03*
X392126Y401929D02*
D03*
Y396496D02*
D03*
X394094Y297992D02*
D03*
Y292559D02*
D03*
X250787Y191299D02*
D03*
Y185866D02*
D03*
X258268Y394449D02*
D03*
Y389016D02*
D03*
X253543Y299173D02*
D03*
Y293740D02*
D03*
X391339Y193268D02*
D03*
Y187835D02*
D03*
X531890Y302323D02*
D03*
Y296890D02*
D03*
X527165Y195630D02*
D03*
Y190197D02*
D03*
D22*
X178425Y392638D02*
D03*
Y396181D02*
D03*
X322047Y376457D02*
D03*
Y380000D02*
D03*
X318189Y304720D02*
D03*
Y301177D02*
D03*
X175026Y294976D02*
D03*
Y298519D02*
D03*
X182283Y178543D02*
D03*
Y182087D02*
D03*
X315638Y201711D02*
D03*
Y198168D02*
D03*
X455905Y185039D02*
D03*
Y188583D02*
D03*
X182677Y412045D02*
D03*
Y415588D02*
D03*
X313779Y405709D02*
D03*
Y409252D02*
D03*
X452362Y215158D02*
D03*
Y211614D02*
D03*
X456299Y320472D02*
D03*
Y324016D02*
D03*
X650000Y454921D02*
D03*
Y458465D02*
D03*
D23*
X480547Y292129D02*
D03*
X484091D02*
D03*
X202953Y433071D02*
D03*
X199409D02*
D03*
X336811Y440945D02*
D03*
X333268D02*
D03*
X338779Y336614D02*
D03*
X335236D02*
D03*
X198228Y338189D02*
D03*
X194685D02*
D03*
X198228Y229921D02*
D03*
X194685D02*
D03*
X336024Y232283D02*
D03*
X332480D02*
D03*
X476575Y341142D02*
D03*
X473032D02*
D03*
X471850Y234456D02*
D03*
X468307D02*
D03*
X202953Y429134D02*
D03*
X199409D02*
D03*
X336811Y436614D02*
D03*
X333268D02*
D03*
X338779Y332677D02*
D03*
X335236D02*
D03*
X198228Y333858D02*
D03*
X194685D02*
D03*
X198228Y225500D02*
D03*
X194685D02*
D03*
X336024Y227953D02*
D03*
X332480D02*
D03*
X476575Y337008D02*
D03*
X473032D02*
D03*
X471850Y230315D02*
D03*
X468307D02*
D03*
X318701Y315898D02*
D03*
X315158D02*
D03*
X178150Y336614D02*
D03*
X181693D02*
D03*
X177495Y224803D02*
D03*
X181039D02*
D03*
X315748Y210906D02*
D03*
X312205D02*
D03*
X658465Y457874D02*
D03*
X654921D02*
D03*
D24*
X659465Y278740D02*
D03*
X652378D02*
D03*
X652362Y286221D02*
D03*
X659449D02*
D03*
D25*
X532205Y493720D02*
D03*
Y501200D02*
D03*
X602598Y493720D02*
D03*
Y501200D02*
D03*
X618504Y493720D02*
D03*
Y501200D02*
D03*
X550079Y493720D02*
D03*
Y501200D02*
D03*
X635197Y493720D02*
D03*
Y501200D02*
D03*
X568740Y493720D02*
D03*
Y501200D02*
D03*
X652283Y493720D02*
D03*
Y501200D02*
D03*
X586220Y493720D02*
D03*
Y501200D02*
D03*
X228346Y376969D02*
D03*
Y369488D02*
D03*
X362205Y384449D02*
D03*
Y376969D02*
D03*
X364173Y280512D02*
D03*
Y273031D02*
D03*
X223622Y281693D02*
D03*
Y274213D02*
D03*
X220866Y173819D02*
D03*
Y166339D02*
D03*
X361417Y175787D02*
D03*
Y168307D02*
D03*
X501968Y284842D02*
D03*
Y277362D02*
D03*
X497244Y178150D02*
D03*
Y170669D02*
D03*
X218504Y376969D02*
D03*
Y369488D02*
D03*
X352362Y384449D02*
D03*
Y376969D02*
D03*
X354331Y280512D02*
D03*
Y273031D02*
D03*
X213779Y281693D02*
D03*
Y274213D02*
D03*
X211024Y173819D02*
D03*
Y166339D02*
D03*
X351575Y175787D02*
D03*
Y168307D02*
D03*
X492126Y284842D02*
D03*
Y277362D02*
D03*
X487402Y178150D02*
D03*
Y170669D02*
D03*
D26*
X210630Y392087D02*
D03*
Y397087D02*
D03*
Y402087D02*
D03*
Y407087D02*
D03*
Y412087D02*
D03*
Y417087D02*
D03*
Y422087D02*
D03*
X189370Y392087D02*
D03*
Y397087D02*
D03*
Y402087D02*
D03*
Y407087D02*
D03*
Y412087D02*
D03*
Y417087D02*
D03*
Y422087D02*
D03*
X205906Y296811D02*
D03*
Y301811D02*
D03*
Y306811D02*
D03*
Y311811D02*
D03*
Y316811D02*
D03*
Y321811D02*
D03*
Y326811D02*
D03*
X184646Y296811D02*
D03*
Y301811D02*
D03*
Y306811D02*
D03*
Y311811D02*
D03*
Y316811D02*
D03*
Y321811D02*
D03*
Y326811D02*
D03*
X297638Y401535D02*
D03*
Y406535D02*
D03*
Y411535D02*
D03*
Y416535D02*
D03*
Y421535D02*
D03*
Y426535D02*
D03*
Y431535D02*
D03*
X276378Y401535D02*
D03*
Y406535D02*
D03*
Y411535D02*
D03*
Y416535D02*
D03*
Y421535D02*
D03*
Y426535D02*
D03*
Y431535D02*
D03*
X433465Y305079D02*
D03*
Y310079D02*
D03*
Y315079D02*
D03*
Y320079D02*
D03*
Y325079D02*
D03*
Y330079D02*
D03*
Y335079D02*
D03*
X412205Y305079D02*
D03*
Y310079D02*
D03*
Y315079D02*
D03*
Y320079D02*
D03*
Y325079D02*
D03*
Y330079D02*
D03*
Y335079D02*
D03*
X290158Y198386D02*
D03*
Y203386D02*
D03*
Y208386D02*
D03*
Y213386D02*
D03*
Y218386D02*
D03*
Y223386D02*
D03*
Y228386D02*
D03*
X268898Y198386D02*
D03*
Y203386D02*
D03*
Y208386D02*
D03*
Y213386D02*
D03*
Y218386D02*
D03*
Y223386D02*
D03*
Y228386D02*
D03*
X430709Y200354D02*
D03*
Y205354D02*
D03*
Y210354D02*
D03*
Y215354D02*
D03*
Y220354D02*
D03*
Y225354D02*
D03*
Y230354D02*
D03*
X409449Y200354D02*
D03*
Y205354D02*
D03*
Y210354D02*
D03*
Y215354D02*
D03*
Y220354D02*
D03*
Y225354D02*
D03*
Y230354D02*
D03*
X323228Y429567D02*
D03*
Y424567D02*
D03*
Y419567D02*
D03*
Y414567D02*
D03*
Y409567D02*
D03*
Y404567D02*
D03*
Y399567D02*
D03*
X344488Y429567D02*
D03*
Y424567D02*
D03*
Y419567D02*
D03*
Y414567D02*
D03*
Y409567D02*
D03*
Y404567D02*
D03*
Y399567D02*
D03*
X410236Y439016D02*
D03*
Y434016D02*
D03*
Y429016D02*
D03*
Y424016D02*
D03*
Y419016D02*
D03*
Y414016D02*
D03*
Y409016D02*
D03*
X431496Y439016D02*
D03*
Y434016D02*
D03*
Y429016D02*
D03*
Y424016D02*
D03*
Y419016D02*
D03*
Y414016D02*
D03*
Y409016D02*
D03*
X545276Y232716D02*
D03*
Y227716D02*
D03*
Y222716D02*
D03*
Y217717D02*
D03*
Y212717D02*
D03*
Y207716D02*
D03*
Y202716D02*
D03*
X566535Y232716D02*
D03*
Y227716D02*
D03*
Y222716D02*
D03*
Y217717D02*
D03*
Y212717D02*
D03*
Y207716D02*
D03*
Y202716D02*
D03*
X550000Y339409D02*
D03*
Y334409D02*
D03*
Y329410D02*
D03*
Y324410D02*
D03*
Y319409D02*
D03*
Y314409D02*
D03*
Y309409D02*
D03*
X571260Y339409D02*
D03*
Y334409D02*
D03*
Y329410D02*
D03*
Y324410D02*
D03*
Y319409D02*
D03*
Y314409D02*
D03*
Y309409D02*
D03*
X271654Y336260D02*
D03*
Y331260D02*
D03*
Y326260D02*
D03*
Y321260D02*
D03*
Y316260D02*
D03*
Y311260D02*
D03*
Y306260D02*
D03*
X292913Y336260D02*
D03*
Y331260D02*
D03*
Y326260D02*
D03*
Y321260D02*
D03*
Y316260D02*
D03*
Y311260D02*
D03*
Y306260D02*
D03*
X458268Y223268D02*
D03*
Y218268D02*
D03*
Y213268D02*
D03*
Y208268D02*
D03*
Y203268D02*
D03*
Y198268D02*
D03*
Y193268D02*
D03*
X479528Y223268D02*
D03*
Y218268D02*
D03*
Y213268D02*
D03*
Y208268D02*
D03*
Y203268D02*
D03*
Y198268D02*
D03*
Y193268D02*
D03*
X181890Y218937D02*
D03*
Y213937D02*
D03*
Y208937D02*
D03*
Y203937D02*
D03*
Y198937D02*
D03*
Y193937D02*
D03*
Y188937D02*
D03*
X203150Y218937D02*
D03*
Y213937D02*
D03*
Y208937D02*
D03*
Y203937D02*
D03*
Y198937D02*
D03*
Y193937D02*
D03*
Y188937D02*
D03*
X325197Y325630D02*
D03*
Y320630D02*
D03*
Y315630D02*
D03*
Y310630D02*
D03*
Y305630D02*
D03*
Y300630D02*
D03*
Y295630D02*
D03*
X346457Y325630D02*
D03*
Y320630D02*
D03*
Y315630D02*
D03*
Y310630D02*
D03*
Y305630D02*
D03*
Y300630D02*
D03*
Y295630D02*
D03*
X322441Y220905D02*
D03*
Y215905D02*
D03*
Y210906D02*
D03*
Y205906D02*
D03*
Y200905D02*
D03*
Y195905D02*
D03*
Y190905D02*
D03*
X343701Y220905D02*
D03*
Y215905D02*
D03*
Y210906D02*
D03*
Y205906D02*
D03*
Y200905D02*
D03*
Y195905D02*
D03*
Y190905D02*
D03*
X462992Y329961D02*
D03*
Y324961D02*
D03*
Y319961D02*
D03*
Y314961D02*
D03*
Y309961D02*
D03*
Y304961D02*
D03*
Y299961D02*
D03*
X484252Y329961D02*
D03*
Y324961D02*
D03*
Y319961D02*
D03*
Y314961D02*
D03*
Y309961D02*
D03*
Y304961D02*
D03*
Y299961D02*
D03*
D27*
X178347Y295039D02*
D03*
Y298740D02*
D03*
X182283Y392638D02*
D03*
Y396339D02*
D03*
X318189Y376650D02*
D03*
Y380350D02*
D03*
X318110Y294246D02*
D03*
Y297946D02*
D03*
X178150Y178465D02*
D03*
Y182165D02*
D03*
X315638Y191063D02*
D03*
Y194764D02*
D03*
X451968Y193819D02*
D03*
Y197520D02*
D03*
X485039Y281850D02*
D03*
Y285551D02*
D03*
X644095Y245787D02*
D03*
Y249488D02*
D03*
X648425D02*
D03*
Y245787D02*
D03*
X301589Y445551D02*
D03*
Y441850D02*
D03*
X438976Y438465D02*
D03*
Y434764D02*
D03*
X440945Y334528D02*
D03*
Y330827D02*
D03*
X300394Y335709D02*
D03*
Y332008D02*
D03*
X578740Y338858D02*
D03*
Y335157D02*
D03*
X574016Y232165D02*
D03*
Y228465D02*
D03*
D28*
X173622Y402362D02*
D03*
Y426772D02*
D03*
X311417Y416142D02*
D03*
Y440551D02*
D03*
X306693Y284252D02*
D03*
Y308661D02*
D03*
X170783Y303150D02*
D03*
Y327559D02*
D03*
X168110Y194882D02*
D03*
Y219291D02*
D03*
X302756Y199606D02*
D03*
Y224016D02*
D03*
X450000Y314651D02*
D03*
Y290242D02*
D03*
X442913Y206295D02*
D03*
Y230705D02*
D03*
D29*
X213914Y429961D02*
D03*
X210214D02*
D03*
X348701Y333465D02*
D03*
X345000D02*
D03*
X208543Y335039D02*
D03*
X204842D02*
D03*
X206181Y227165D02*
D03*
X202480D02*
D03*
X346339Y229134D02*
D03*
X342638D02*
D03*
X482165Y231496D02*
D03*
X478465D02*
D03*
X690433Y440736D02*
D03*
X686732D02*
D03*
X664055Y467114D02*
D03*
X660354D02*
D03*
X664350Y473622D02*
D03*
X660650D02*
D03*
X660354Y463290D02*
D03*
X664055D02*
D03*
X629803Y468307D02*
D03*
X626102D02*
D03*
X658135Y272654D02*
D03*
X654435D02*
D03*
X218228Y401968D02*
D03*
X221929D02*
D03*
X352087Y410236D02*
D03*
X355787D02*
D03*
X354055Y305118D02*
D03*
X357756D02*
D03*
X213504Y306693D02*
D03*
X217205D02*
D03*
X210748Y199213D02*
D03*
X214449D02*
D03*
X351299Y201575D02*
D03*
X355000D02*
D03*
X491850Y310630D02*
D03*
X495551D02*
D03*
X487126Y202756D02*
D03*
X490827D02*
D03*
X294646Y235311D02*
D03*
X290945D02*
D03*
X435310Y235620D02*
D03*
X431609D02*
D03*
X343819Y437795D02*
D03*
X347520D02*
D03*
X482795Y338189D02*
D03*
X486496D02*
D03*
D30*
X231496Y395276D02*
D03*
X237795D02*
D03*
X365354Y402087D02*
D03*
X371654D02*
D03*
X367717Y298425D02*
D03*
X374016D02*
D03*
X225984Y299213D02*
D03*
X232283D02*
D03*
X222835Y191732D02*
D03*
X229134D02*
D03*
X363386Y193701D02*
D03*
X369685D02*
D03*
X499606Y196063D02*
D03*
X505905D02*
D03*
X504724Y303150D02*
D03*
X511024D02*
D03*
X446457Y236614D02*
D03*
X452756D02*
D03*
X357480Y215748D02*
D03*
X351181D02*
D03*
X357480Y222047D02*
D03*
X351181D02*
D03*
X498032Y326378D02*
D03*
X491732D02*
D03*
X498032Y332677D02*
D03*
X491732D02*
D03*
X219685Y327953D02*
D03*
X213386D02*
D03*
X219685Y321654D02*
D03*
X213386D02*
D03*
X216929Y213779D02*
D03*
X210630D02*
D03*
X216929Y220079D02*
D03*
X210630D02*
D03*
X183071Y229527D02*
D03*
X176772D02*
D03*
X360236Y320472D02*
D03*
X353937D02*
D03*
X360236Y326772D02*
D03*
X353937D02*
D03*
X322835Y332008D02*
D03*
X316535D02*
D03*
X358268Y430709D02*
D03*
X351969D02*
D03*
X358268Y424409D02*
D03*
X351969D02*
D03*
X224410Y423228D02*
D03*
X218110D02*
D03*
X224410Y416929D02*
D03*
X218110D02*
D03*
X493701Y218110D02*
D03*
X487402D02*
D03*
X493701Y224409D02*
D03*
X487402D02*
D03*
X600197Y318110D02*
D03*
X606496D02*
D03*
D31*
X303346Y183307D02*
D03*
X310827D02*
D03*
X307087Y192362D02*
D03*
X439961Y185669D02*
D03*
X447441D02*
D03*
X443701Y194724D02*
D03*
X283858Y450591D02*
D03*
X287598Y441535D02*
D03*
X280118D02*
D03*
X447244Y411221D02*
D03*
X450984Y402165D02*
D03*
X443504D02*
D03*
X530391Y355528D02*
D03*
X534131Y346472D02*
D03*
X526650D02*
D03*
X583071Y227756D02*
D03*
X579331Y236811D02*
D03*
X586811D02*
D03*
D32*
X662992Y261811D02*
D03*
Y268898D02*
D03*
D33*
X670581Y264085D02*
D03*
X676487D02*
D03*
X671850Y448819D02*
D03*
X677756D02*
D03*
Y468307D02*
D03*
D34*
X640354Y257480D02*
D03*
Y265354D02*
D03*
D35*
X638583Y266339D02*
D03*
X642520D02*
D03*
X638583Y256496D02*
D03*
X642520D02*
D03*
X645669D02*
D03*
Y266339D02*
D03*
D36*
X647244Y255906D02*
D03*
X648819D02*
D03*
X650394D02*
D03*
X651968D02*
D03*
Y266929D02*
D03*
X650394D02*
D03*
X648819D02*
D03*
X647244D02*
D03*
D37*
X654724Y260433D02*
D03*
Y258465D02*
D03*
Y262402D02*
D03*
Y264370D02*
D03*
D38*
X654921Y256496D02*
D03*
Y266339D02*
D03*
D39*
X662402Y450787D02*
D03*
Y447638D02*
D03*
X655709Y450787D02*
D03*
Y447638D02*
D03*
D40*
X645276Y472835D02*
D03*
D41*
X635827Y466929D02*
D03*
Y468898D02*
D03*
Y470866D02*
D03*
Y472835D02*
D03*
Y474803D02*
D03*
Y476772D02*
D03*
Y478740D02*
D03*
X654724D02*
D03*
Y476772D02*
D03*
Y474803D02*
D03*
Y472835D02*
D03*
Y470866D02*
D03*
Y468898D02*
D03*
Y466929D02*
D03*
D42*
X639370Y482283D02*
D03*
X641339D02*
D03*
X643307D02*
D03*
X645276D02*
D03*
X647244D02*
D03*
X649213D02*
D03*
X651181D02*
D03*
Y463386D02*
D03*
X649213D02*
D03*
X647244D02*
D03*
X645276D02*
D03*
X643307D02*
D03*
X641339D02*
D03*
X639370D02*
D03*
D43*
X623228Y328465D02*
D03*
D44*
X632205Y303071D02*
D03*
X614252D02*
D03*
D45*
X669614Y311008D02*
D03*
Y297228D02*
D03*
X599213Y291535D02*
D03*
Y305315D02*
D03*
X513740Y172874D02*
D03*
Y186653D02*
D03*
X470866Y182087D02*
D03*
Y168307D02*
D03*
X335039Y179724D02*
D03*
Y165945D02*
D03*
X378346Y169488D02*
D03*
Y183268D02*
D03*
X518898Y278740D02*
D03*
Y292520D02*
D03*
X240551Y276575D02*
D03*
Y290354D02*
D03*
X197244Y285630D02*
D03*
Y271850D02*
D03*
X194488Y177756D02*
D03*
Y163976D02*
D03*
X237402Y168701D02*
D03*
Y182480D02*
D03*
X337795Y284449D02*
D03*
Y270669D02*
D03*
X381614Y274606D02*
D03*
Y288386D02*
D03*
X380669Y378221D02*
D03*
Y392000D02*
D03*
X335827Y388386D02*
D03*
Y374606D02*
D03*
X246063Y370740D02*
D03*
Y384520D02*
D03*
X201969Y380906D02*
D03*
Y367126D02*
D03*
X645571Y330610D02*
D03*
Y344390D02*
D03*
X598819Y406102D02*
D03*
Y392323D02*
D03*
X649606Y312008D02*
D03*
Y298228D02*
D03*
X605512Y258413D02*
D03*
Y244634D02*
D03*
D46*
X639370Y290945D02*
D03*
Y284646D02*
D03*
X499606Y422850D02*
D03*
Y429150D02*
D03*
X528000Y386350D02*
D03*
Y392650D02*
D03*
X258661Y382677D02*
D03*
Y376378D02*
D03*
X392520Y390158D02*
D03*
Y383858D02*
D03*
X394488Y286221D02*
D03*
Y279921D02*
D03*
X253937Y287402D02*
D03*
Y281102D02*
D03*
X251181Y179528D02*
D03*
Y173228D02*
D03*
X391732Y181496D02*
D03*
Y175197D02*
D03*
X532283Y290551D02*
D03*
Y284252D02*
D03*
X527559Y183858D02*
D03*
Y177559D02*
D03*
X313289Y232283D02*
D03*
Y225984D02*
D03*
X451181Y327165D02*
D03*
Y320866D02*
D03*
X183465Y283465D02*
D03*
Y289764D02*
D03*
X322047Y386221D02*
D03*
Y392520D02*
D03*
X188189Y378740D02*
D03*
Y385039D02*
D03*
X632953Y284803D02*
D03*
Y291102D02*
D03*
X463779Y404724D02*
D03*
Y411024D02*
D03*
Y438583D02*
D03*
Y444882D02*
D03*
X519791Y248139D02*
D03*
Y241840D02*
D03*
D47*
X632323Y247244D02*
D03*
X637756D02*
D03*
X546811Y355512D02*
D03*
X541378D02*
D03*
X489724Y185827D02*
D03*
X484291D02*
D03*
X499961D02*
D03*
X494527D02*
D03*
X364134Y183465D02*
D03*
X358701D02*
D03*
X353898D02*
D03*
X348465D02*
D03*
X504685Y292520D02*
D03*
X499252D02*
D03*
X494449D02*
D03*
X489016D02*
D03*
X216102Y289370D02*
D03*
X210669D02*
D03*
X226339D02*
D03*
X220905D02*
D03*
X223583Y181496D02*
D03*
X218150D02*
D03*
X213346D02*
D03*
X207913D02*
D03*
X366890Y288189D02*
D03*
X361457D02*
D03*
X356653D02*
D03*
X351220D02*
D03*
X354685Y392126D02*
D03*
X349252D02*
D03*
X364921D02*
D03*
X359488D02*
D03*
X220827Y384646D02*
D03*
X215394D02*
D03*
X231063D02*
D03*
X225630D02*
D03*
X351220Y415748D02*
D03*
X356653D02*
D03*
X353189Y310630D02*
D03*
X358622D02*
D03*
X209882Y204724D02*
D03*
X215315D02*
D03*
X217362Y407480D02*
D03*
X222795D02*
D03*
X212638Y312205D02*
D03*
X218071D02*
D03*
X350433Y207087D02*
D03*
X355866D02*
D03*
X490984Y316142D02*
D03*
X496417D02*
D03*
X486260Y208268D02*
D03*
X491693D02*
D03*
D48*
X659842Y247638D02*
D03*
X653543D02*
D03*
X584602Y447429D02*
D03*
X590902D02*
D03*
X584602Y440736D02*
D03*
X590902D02*
D03*
X584602Y434043D02*
D03*
X590902D02*
D03*
X584602Y427350D02*
D03*
X590902D02*
D03*
X577953Y419685D02*
D03*
X571654D02*
D03*
D49*
X687284Y475394D02*
D03*
Y473425D02*
D03*
Y471457D02*
D03*
Y469488D02*
D03*
Y467520D02*
D03*
Y465551D02*
D03*
Y463583D02*
D03*
Y461614D02*
D03*
Y459646D02*
D03*
Y457677D02*
D03*
Y455709D02*
D03*
Y453740D02*
D03*
D50*
X717520Y464567D02*
D03*
X705315D02*
D03*
D51*
X518252Y401256D02*
D03*
X521402D02*
D03*
X524551D02*
D03*
X527701D02*
D03*
X530850D02*
D03*
X534000D02*
D03*
X537150D02*
D03*
X540299D02*
D03*
X543449D02*
D03*
X546598D02*
D03*
X549748D02*
D03*
Y445744D02*
D03*
X546598D02*
D03*
X543449D02*
D03*
X540299D02*
D03*
X537150D02*
D03*
X534000D02*
D03*
X530850D02*
D03*
X527701D02*
D03*
X524551D02*
D03*
X521402D02*
D03*
X518252D02*
D03*
D52*
X556244Y407752D02*
D03*
Y410902D02*
D03*
Y414051D02*
D03*
Y417201D02*
D03*
Y420350D02*
D03*
Y423500D02*
D03*
Y426650D02*
D03*
Y429799D02*
D03*
Y432949D02*
D03*
Y436098D02*
D03*
Y439248D02*
D03*
X511756D02*
D03*
Y436098D02*
D03*
Y432949D02*
D03*
Y429799D02*
D03*
Y426650D02*
D03*
Y423500D02*
D03*
Y420350D02*
D03*
Y417201D02*
D03*
Y414051D02*
D03*
Y410902D02*
D03*
Y407752D02*
D03*
D53*
X553390Y386000D02*
D03*
X539610D02*
D03*
X462008Y282354D02*
D03*
X475787D02*
D03*
D54*
X537441Y222244D02*
D03*
X532441D02*
D03*
X527441D02*
D03*
X522441D02*
D03*
X517441D02*
D03*
X512441D02*
D03*
X507441D02*
D03*
X537441Y203740D02*
D03*
X532441D02*
D03*
X527441D02*
D03*
X522441D02*
D03*
X517441D02*
D03*
X512441D02*
D03*
X507441D02*
D03*
X401614Y219882D02*
D03*
X396614D02*
D03*
X391614D02*
D03*
X386614D02*
D03*
X381614D02*
D03*
X376614D02*
D03*
X371614D02*
D03*
X401614Y201378D02*
D03*
X396614D02*
D03*
X391614D02*
D03*
X386614D02*
D03*
X381614D02*
D03*
X376614D02*
D03*
X371614D02*
D03*
X542165Y328937D02*
D03*
X537165D02*
D03*
X532165D02*
D03*
X527165D02*
D03*
X522165D02*
D03*
X517165D02*
D03*
X512165D02*
D03*
X542165Y310433D02*
D03*
X537165D02*
D03*
X532165D02*
D03*
X527165D02*
D03*
X522165D02*
D03*
X517165D02*
D03*
X512165D02*
D03*
X263819Y325787D02*
D03*
X258819D02*
D03*
X253819D02*
D03*
X248819D02*
D03*
X243819D02*
D03*
X238819D02*
D03*
X233819D02*
D03*
X263819Y307283D02*
D03*
X258819D02*
D03*
X253819D02*
D03*
X248819D02*
D03*
X243819D02*
D03*
X238819D02*
D03*
X233819D02*
D03*
X261063Y217913D02*
D03*
X256063D02*
D03*
X251063D02*
D03*
X246063D02*
D03*
X241063D02*
D03*
X236063D02*
D03*
X231063D02*
D03*
X261063Y199409D02*
D03*
X256063D02*
D03*
X251063D02*
D03*
X246063D02*
D03*
X241063D02*
D03*
X236063D02*
D03*
X231063D02*
D03*
X404370Y324606D02*
D03*
X399370D02*
D03*
X394370D02*
D03*
X389370D02*
D03*
X384370D02*
D03*
X379370D02*
D03*
X374370D02*
D03*
X404370Y306102D02*
D03*
X399370D02*
D03*
X394370D02*
D03*
X389370D02*
D03*
X384370D02*
D03*
X379370D02*
D03*
X374370D02*
D03*
X402402Y428543D02*
D03*
X397402D02*
D03*
X392402D02*
D03*
X387402D02*
D03*
X382402D02*
D03*
X377402D02*
D03*
X372402D02*
D03*
X402402Y410039D02*
D03*
X397402D02*
D03*
X392402D02*
D03*
X387402D02*
D03*
X382402D02*
D03*
X377402D02*
D03*
X372402D02*
D03*
X268543Y421063D02*
D03*
X263543D02*
D03*
X258543D02*
D03*
X253543D02*
D03*
X248543D02*
D03*
X243543D02*
D03*
X238543D02*
D03*
X268543Y402559D02*
D03*
X263543D02*
D03*
X258543D02*
D03*
X253543D02*
D03*
X248543D02*
D03*
X243543D02*
D03*
X238543D02*
D03*
D55*
X499606Y416535D02*
D03*
Y411024D02*
D03*
D56*
X662500Y365850D02*
D03*
Y372150D02*
D03*
X673500Y365850D02*
D03*
Y372150D02*
D03*
X679000Y365850D02*
D03*
Y372150D02*
D03*
X668167Y365850D02*
D03*
Y372150D02*
D03*
X520472Y460236D02*
D03*
Y466535D02*
D03*
X526772Y460236D02*
D03*
Y466535D02*
D03*
X540158Y460236D02*
D03*
Y466535D02*
D03*
X546500Y460236D02*
D03*
Y466535D02*
D03*
X503543Y439370D02*
D03*
Y445669D02*
D03*
D57*
X678543Y459252D02*
D03*
X671063D02*
D03*
Y468307D02*
D03*
D58*
X478063Y406799D02*
D03*
Y444201D02*
D03*
D59*
X512000Y241568D02*
D03*
Y251411D02*
D03*
X500583D02*
D03*
Y241568D02*
D03*
M02*
