M48
;Layer_Color=9474304
;FILE_FORMAT=4:4
METRIC,LZ
;TYPE=PLATED
T1F00S00C0.3000
T2F00S00C0.4000
T3F00S00C0.6000
T5F00S00C0.8000
T6F00S00C0.9000
T8F00S00C2.0000
T9F00S00C2.7940
%
T01
X00418Y00389
X00760999Y00387999
X00771Y0038
X00801Y00371
X01105Y00389
X01128Y00363
X01155
X01148Y00371
X01838Y00359
Y005784
X01676Y00638869
X01669976Y0064273
X01671Y0065
X016635Y00645
X01657Y00639
X01624997Y00638999
X01652Y00686
X01660634Y00691
X0166883Y0068
X01671997Y00672999
X01684Y00693
X01634249Y00722
X01596Y00723
X01597967Y0069182
X01634Y007927
X016855Y0079
X01561Y007885
X01571Y0077226
X0155Y0077174
X0156Y00748
X01536Y00739
X01521Y007206
X01522Y00708
X01523Y006845
Y00646472
Y00621369
X01556Y00619496
X01565Y006515
X01563Y00680286
X01578Y0069182
X01465434Y00678278
X01462Y00612
X01461Y00603
X014435Y006255
X01425Y00607
X0141Y00605
Y00566
X01404Y00553
Y00538
X01421Y0054
X01401Y0052
X013716Y0050165
X01359Y00502
X0136525Y0049403
X0135Y00452
X0134Y00441
X01322Y0047
X013Y00502
X01296Y00536
X01286997Y00531999
X0126Y00542183
X01264Y00552714
X01254Y00581
X01295Y0058
X01286Y00638584
X0132Y0064
X01349Y00647635
X01361Y00641
X013761Y00648
X01381934Y00673763
X01361Y006765
X01347192Y00611339
X01365Y0059
X01351Y00543
X01235Y005403
X01261Y0049022
X01303Y00422
X0121Y00427
X01219Y0061
X01201Y00644
X01202Y00679
X01232303Y00708
X01209Y00732
X01212Y0076
X0121Y00775
X01272Y00767
X01312Y00774
X0137Y00773
X013771Y007649
X01386Y00773
X01412Y00791
X01408Y00712
X014929Y007873
Y00530869
X01468938Y00533531
X01475Y00485
X01483Y00452
X01491Y004596
X01497Y00437
X01491Y004275
X0118Y00428
X01163Y0041
X01148Y00413
X0113Y00416
X01099Y00414
X01106Y0043
X01136952Y004605
X01161Y00447
X011485Y005125
X01148Y00530083
X01163Y00578
X01173Y00576
X01161Y00593
Y00623
X0115Y00614
X01142Y00617
X01133Y00612
X011175Y00616
X01100998Y00635999
X0112Y00654
X0111965Y00681
X01135Y00681787
X01105Y00689
X0109Y00687
X01105Y00707
X0112Y0071
X01142Y00727
X01163469Y006975
X01185Y00698
X01176Y00668
X01142Y00646
X01183Y00613
X0119Y00606714
X01189Y00503
X01112Y00559054
X01079Y00569
X0108Y00578
X01065Y0056
X01059Y00547
Y00532
X01076Y00534
X01005Y00539
X01004Y00492
X01014Y00485
X010201Y0049022
X0102743Y0049784
X01014Y00467
X01006Y00445
X00995Y00435
X00974Y00445
X00966Y00413
X00935Y00414
X00866Y0042
X0080137Y0041137
X0084332Y00497
X00914Y004926
X00955Y00496
X00941998Y00525999
X00935Y00531
Y00549
X00936Y00559
X00946Y00574
X00919Y00548869
X00904Y00536
X00891Y00536286
X00819Y0057
X00795753Y006
X00811443Y00657
X00812Y00677
X00842Y00686
X00871Y00687
X0085Y00764
X00924Y00758
X00963Y00758839
X01021Y00762
X0103378
X0102743Y0075438
X01002152Y00698
X00999986Y00654
X01Y00605
X00989Y00596
X01023Y00585
X01065Y00607
X009693Y00675
X00775Y00671
X00764262Y00656
X00772Y00617
X00756Y00597
X00736Y00588
X00723Y0058
X00727999Y00614999
X00708Y00555
X00702Y00542
Y00527
X00719Y00529
X00669968Y00491
X00657
X0066294Y00484076
X00647Y0044
X00638Y0043
X00615Y00439
X00606Y0041137
X00598Y00493
X00589Y00525
X00574Y00511
X005659Y00531
X00557Y00533334
X00533Y005293
X00579Y00554
X00565Y00478
X00486Y004926
X00469Y00445
X00508Y00417
X00431Y00404
X00459838Y0056428
X00475Y0056
X00449Y00605
X00448Y00615
Y00625
Y00639
X0045Y0066
X00448822Y0069182
X00446Y00712
X00457Y00722
X00476Y00721
X00482Y00671
X00502Y00673
X00514Y0069
X00557Y00684
X00537238Y0066
X00524Y00617
X00511Y0061
X00500001Y00609999
X005143Y0059769
X0041Y00624
Y00639
X00412Y0065
X00414Y00672
X004145Y006845
X00408Y00749
X00494Y007666
X00563966Y007599
X00601Y00767
X00664Y00765
X0067691
X006701Y007569
X00785643Y00748174
X00793Y005434
X0079Y00452
X00771Y00409
X00760535Y00408
X0066675Y0057277
X00391Y00605
X00388Y00656
X00384Y00709
X00347635Y00677
X00304Y00682
X00274Y00692
X00286Y00785
X00341Y00793
X00323Y00589
X00285Y005671
X00383Y0051
X00381Y00487
X00384Y0081758
X00377Y00857
X00355Y00888
X00343449Y01163
X00382069Y01170199
X00284Y01103662
X00488Y01084
X00495Y01075
X00506Y01008
X005Y0099676
X0043458Y01005998
X00408Y00995
X00447Y00918
X00446Y00896
Y00887
X00454Y00878
X00446Y00869
X00416
X0042Y00878
X00416Y00887
X00410999Y00854998
X00429999Y00841998
X00465Y00839
X00469Y00855
X00475Y00881
X0048919Y00907
X00528Y00918
X00521Y00867
X00575Y00877
X00568Y00849
Y00834
X00569Y00816
X00565Y007986
X00592Y008
X00606Y007986
X00645Y00804
X00652Y00853
X00602Y00844
X00585Y00828
X00483Y00831
X00715Y00829
X00725226Y00823
X00726Y00803
X00709Y00801
Y00816
X007303Y00867
X00744Y00862
X00758Y00869
X00774Y00873
X00771Y00861
X0078Y0086
X00786Y00906
Y00921
X00783Y00934
X00767999Y00920998
X0076Y0092
X00656Y00944
X00621Y00934
X00619Y01008
X00621Y0104
X00611Y010415
X00583Y010445
X00587Y00993
X006731Y0100711
X0068834
X0068199Y00999652
X00658Y01045
X00721Y01043
Y01058
X00727Y01071
X00738Y01063
Y01045
X007705Y010675
X00767999Y01111
X00758Y01116
X00746
X00739525Y01121
X00741Y01099
X00758998Y01104998
X00757064Y01148072
X00771Y01147
X00778Y011317
X00789Y01131
X00768447Y01168
X00733307Y01167
X00705081Y01143
X00705452Y01111
X006059Y010921
X00612Y01083
X00823Y01101
X0082Y01139
X00859Y01135
X00857Y0116
X00851Y01081
X00844Y01028
X00804Y01044931
X00818Y0097
X00851Y00932
X00864Y00891
Y00866
X00889Y00897
Y00912
X0096495Y00934
X00995Y00966
X01014Y00907
X01036Y00915
X01076Y00910244
X01116Y00908
X01127Y00909
X01139Y0091
X01139857Y00920069
X01148Y00906
Y00888096
X01139Y00862
X01123237Y00863598
X01119869Y00832
X01128Y00831
X01115Y008254
X01072Y00826
X01066Y00813
Y00798
X01083Y008
X0106299Y008382
X01032Y00872
X01020998Y00871998
X00999922Y00846576
X01003Y00804
X00963Y00796311
X009509Y00797096
X00925Y00797
X00959998Y00839998
X00831Y00839
X00795049Y008549
X00795Y00893
X008Y00809114
X00875Y00997
X009181Y010215
X0092Y01061
X00952Y01062
X00964Y01061
X009586Y01028
X01016Y01026
X010287Y0102616
X0102235Y0101854
X01061Y01062
Y01077
X01067Y0109
X01078Y01064
X01113896Y01062998
X01097Y01125
X010221Y01165338
X00957Y01106
X00947Y01103
X00938Y01089
X011455Y01009
X01146Y0084
X01159Y00833
X01205Y00818
X012471Y00813
X0127Y00815334
X01274096Y008287
X0129Y008
X0131Y00807
Y0085
X01336Y00853
X01357Y00859
X01376Y00862
X01371Y00848
X01368Y00874
X01403Y0090304
Y00929
X01422Y00895
X01435Y00861
X0143031Y00851
Y008301
X01422Y00837
X01416Y00824
Y00809
X01433Y00811
X01469Y007986
X01487997Y00798
X01514Y00795
X01512997Y00802998
X01524Y00802
X01537Y00826811
X01522762Y00877
X01523Y00889
X01522Y00927
X0147Y00917
X01455Y00914
X0146256Y00947259
X01446Y00947
X01455Y00989
X0147Y00979
X01492Y01001
X01471Y01033978
X01476Y01066
X01474Y01093
X0146914Y0110769
X0146745Y0111947
X01466Y0113647
X01465434Y0116011
X01475Y01162
X01484Y01163
X01493Y01161
X01508Y01165
X0150965Y011775
X01502Y011875
X0153553Y0118347
X015275Y01169
X0154547Y0116153
X0155547Y0116953
X01558Y011875
X01583Y011892
X01584Y01178167
X01573Y01161
X01571Y01135
X01528Y01137
X01516Y01127
X0153553Y0111947
X0154547Y0110247
X0155547Y0108547
X01547Y01066
X01534Y01048
X01568Y01051
X01565Y00976
X01425Y00981
X01355Y01002
X01329Y00999
X0131572Y0100076
X01308Y0099
X01298Y00983
X01287Y0099
X01278Y00973
X01264Y00976
X01257Y00988
X0126Y01004
X01253941Y01034593
X01248Y01076
X0125Y01086
Y01111
X01326Y011
X0134453Y0109347
X01348Y01076
X01351Y01062
X01324Y01055
X01333Y0104
X01373Y01044
X01396Y01079
X01428Y01086
X01341Y01147
X01312Y01169
X01301997Y01005998
X01296Y01011
X01328Y00968
X01344Y00956
X01347Y0094
X01326Y00938
X01319Y00945
X01305Y0094
X01319Y00908
X01364Y00807
X01478Y008367
X01462Y00873
X01199Y00879
X01626Y00876
X016529
X01657Y00924
X0169926Y0089789
X0171577Y0090424
X01762Y00883
X01781Y00869
X01841Y00884
X01769Y00984
X0179Y01049
X01745
X01729Y01099
X01738Y01142
X01734Y01172
X0168Y01163
X01662Y01173
X01656997Y01150998
X01658Y01124
X01659Y01109
X01674Y01126
X01681Y01067
X01663Y01045
X01599Y01051
X01588Y00955
X0165Y00814893
X0170082Y00813
X01727Y00816
X01714Y00831
X01763Y01119
X01631Y01158244
X0163Y01193127
X01639Y01201563
X01647Y01192563
Y01212563
X0163
X016867Y01194
X017215Y01199
X01695Y01326
X0184Y01341
X01587Y01302
X01584Y01207
X0154547Y011997
X01521Y01205
X01506Y01214
X015Y01219
X01484Y012028
X01489Y01196
X01464Y01218
X0146256Y01243
X0141286Y01242
X01369Y01243
X01325Y01251
X01328Y01226
X01339Y01215
X01354Y01193127
X01378Y01195
X01308Y01237
X01297Y01248
X01286Y01258
X01229Y01226
X01229601Y01215
X01217Y01231
X01207Y01237
X01196
X01446Y013
X01183Y01233566
X00768Y01196
X00741Y01195
X00413
X00419Y01236
X00426Y01256
X0039Y01259
X00317Y01192
T02
X017582Y01152
Y0116
Y01168
Y01176
Y01184
X017652Y01188
Y01172
Y01164
Y01156
Y01196
Y01204
X017582Y012
Y01208
Y01192
T03
X01745Y007885
X01501997Y00731999
X01519Y00661
X0146
X01436Y00697
X01352Y00703
X0123Y00674
X01272249Y00582
X01365Y00538
X01419Y00582
X01173Y00589
X0116Y00668
X01078Y00601
X01021Y0053
X00811Y005911
X00822Y00414
X00783998Y00582999
X00784Y00625
X00785Y00663
X0064Y0068
X0059Y00585
X00474286Y00594
X00472Y00702
X00451Y00431
X00476Y00404
X00662Y00525
X00667Y00803
X00718Y00867
X00678Y00944
X00681Y01042
X0049Y00943
X00473Y00845
X00807Y00862
Y00926
X00864Y00917
X00951Y00845
X01024Y00797
X01087Y00864
X01165Y00854
X01177Y0099
X01157Y01114
X01078Y01132
X01019Y01063
X00958Y01123
X01213Y01086
X01322Y01084
X0133236Y0111366
X01384Y01091
X01355Y01176
X012635Y011505
X01254Y00929
X01227Y00955
X01292Y00894
X01449Y00889
X0143Y00958
X01461Y01045
X01377Y00808
X0166952Y00878818
X016695Y0094416
X01616Y01083
X0075116Y01193127
T05
X00278Y004726
Y00498
X003034
Y004726
X003288
Y00498
X003542
Y004726
X003541Y012223
X003287
X003033
X002779
Y012477
X003033
X003287
X003541
T06
X013846Y004596
Y00485
X0141
Y004596
X014354
Y00485
X014474Y007306
X01422
X013966
Y00756
X01422
X014474
X010974Y00745
X01072
X010466
Y007196
X01072
X010974
X010904Y00479
X01065
X010396
Y004536
X01065
X010904
X007334Y004486
X00708
X006826
Y00474
X00708
X007334
X0074041Y0072263
X0071501
X0068961
Y0074803
X0071501
X0074041
X00371999Y00743662
Y00769062
X00346599
X00371999Y00614462
Y00589062
Y00563662
X00346599Y00589062
X00371999Y00794462
Y00923662
Y00949062
Y00974462
X00346599Y00949062
X00371999Y01103662
Y01129062
Y01154462
X00346599Y01129062
X007016Y0099
Y009646
X00727
Y0099
X007524
Y009646
X010416Y009836
Y01009
X01067
Y009836
X010924
Y01009
X0124079Y0117856
X0126619
X0129159
X01755199Y0096139
X017806
Y0093599
Y0091059
X01755199
Y0093599
X0129159Y0120396
X0126619
X0124079
T08
X00283099Y00538262
Y00639862
Y00718262
Y00819862
Y00898262
Y00999862
Y01078262
Y01179862
T09
X0028556Y0040513
X00285496Y0129413
M30
